G04 Layer: BottomLayer*
G04 EasyEDA v6.4.25, 2022-01-30T22:18:30+11:00*
G04 a67cddfb3fce44daa9051d46cbbcc19f,10*
G04 Gerber Generator version 0.2*
G04 Scale: 100 percent, Rotated: No, Reflected: No *
G04 Dimensions in millimeters *
G04 leading zeros omitted , absolute positions ,4 integer and 5 decimal *
%FSLAX45Y45*%
%MOMM*%

%ADD12C,0.6096*%
%ADD17C,1.5240*%
%ADD18C,2.0000*%

%LPD*%
G36*
X500532Y25908D02*
G01*
X469900Y26873D01*
X440283Y29718D01*
X410870Y34391D01*
X381812Y40894D01*
X353212Y49225D01*
X325170Y59334D01*
X297840Y71170D01*
X271322Y84734D01*
X245719Y99923D01*
X221081Y116636D01*
X197561Y134924D01*
X175260Y154635D01*
X154178Y175717D01*
X134518Y198069D01*
X116281Y221589D01*
X99568Y246227D01*
X84429Y271881D01*
X70916Y298450D01*
X59080Y325780D01*
X49022Y353822D01*
X40741Y382422D01*
X34290Y411480D01*
X29616Y440893D01*
X26822Y470560D01*
X25908Y500532D01*
X25908Y7999475D01*
X26873Y8030108D01*
X29718Y8059724D01*
X34391Y8089138D01*
X40894Y8118195D01*
X49225Y8146796D01*
X59334Y8174837D01*
X71170Y8202117D01*
X84734Y8228685D01*
X99923Y8254288D01*
X116636Y8278926D01*
X134924Y8302447D01*
X154635Y8324748D01*
X175717Y8345779D01*
X198069Y8365490D01*
X221589Y8383727D01*
X246227Y8400440D01*
X271881Y8415578D01*
X298450Y8429091D01*
X325780Y8440877D01*
X353822Y8450986D01*
X382422Y8459266D01*
X411480Y8465718D01*
X440893Y8470392D01*
X470560Y8473135D01*
X500532Y8474100D01*
X7999475Y8474100D01*
X8030108Y8473135D01*
X8059724Y8470290D01*
X8089138Y8465616D01*
X8118195Y8459114D01*
X8146796Y8450783D01*
X8174837Y8440674D01*
X8202117Y8428837D01*
X8228685Y8415274D01*
X8254288Y8400084D01*
X8278926Y8383320D01*
X8302447Y8365083D01*
X8324748Y8345373D01*
X8345779Y8324291D01*
X8365490Y8301939D01*
X8383727Y8278418D01*
X8400440Y8253730D01*
X8415578Y8228126D01*
X8429091Y8201558D01*
X8440877Y8174228D01*
X8450986Y8146186D01*
X8459266Y8117586D01*
X8465718Y8088528D01*
X8470392Y8059115D01*
X8473135Y8029448D01*
X8474100Y7999475D01*
X8474100Y500532D01*
X8473135Y469900D01*
X8470290Y440283D01*
X8465616Y410870D01*
X8459114Y381812D01*
X8450783Y353212D01*
X8440674Y325170D01*
X8428837Y297840D01*
X8415274Y271322D01*
X8400084Y245719D01*
X8383320Y221081D01*
X8365083Y197561D01*
X8345373Y175260D01*
X8324291Y154178D01*
X8301939Y134518D01*
X8278368Y116281D01*
X8253730Y99568D01*
X8228126Y84429D01*
X8201558Y70916D01*
X8174228Y59080D01*
X8146186Y49022D01*
X8117586Y40741D01*
X8088528Y34290D01*
X8059115Y29616D01*
X8029448Y26822D01*
X7999475Y25908D01*
G37*

%LPC*%
G36*
X5604510Y7424166D02*
G01*
X5622594Y7425588D01*
X5640374Y7428839D01*
X5657799Y7433868D01*
X5674563Y7440726D01*
X5690514Y7449210D01*
X5705551Y7459319D01*
X5719470Y7470902D01*
X5732119Y7483906D01*
X5743346Y7498080D01*
X5753049Y7513370D01*
X5761177Y7529575D01*
X5767527Y7546543D01*
X5772150Y7564018D01*
X5774944Y7581900D01*
X5775858Y7599984D01*
X5774944Y7618120D01*
X5772150Y7636002D01*
X5767527Y7653477D01*
X5761177Y7670444D01*
X5753049Y7686649D01*
X5743346Y7701940D01*
X5732119Y7716113D01*
X5719470Y7729118D01*
X5705551Y7740700D01*
X5690514Y7750809D01*
X5674563Y7759293D01*
X5657799Y7766151D01*
X5640374Y7771180D01*
X5622594Y7774431D01*
X5604510Y7775854D01*
X5586425Y7775397D01*
X5568442Y7773060D01*
X5550814Y7768894D01*
X5533745Y7762951D01*
X5517337Y7755280D01*
X5501792Y7745933D01*
X5487314Y7735062D01*
X5474004Y7722768D01*
X5462066Y7709153D01*
X5451551Y7694422D01*
X5442661Y7678674D01*
X5435396Y7662062D01*
X5429910Y7644790D01*
X5426202Y7627061D01*
X5424322Y7609078D01*
X5424322Y7590942D01*
X5426202Y7572959D01*
X5429910Y7555230D01*
X5435396Y7537958D01*
X5442661Y7521346D01*
X5451551Y7505598D01*
X5462066Y7490866D01*
X5474004Y7477252D01*
X5487314Y7464958D01*
X5501792Y7454087D01*
X5517337Y7444740D01*
X5533745Y7437069D01*
X5550814Y7431125D01*
X5568442Y7426959D01*
X5586425Y7424623D01*
G37*
G36*
X750011Y223875D02*
G01*
X781761Y224790D01*
X813358Y227685D01*
X844753Y232460D01*
X875792Y239166D01*
X906424Y247700D01*
X936396Y258064D01*
X965758Y270205D01*
X994308Y284175D01*
X1021943Y299770D01*
X1048613Y317042D01*
X1074166Y335889D01*
X1098550Y356209D01*
X1121613Y378002D01*
X1143355Y401167D01*
X1163675Y425602D01*
X1182471Y451205D01*
X1199692Y477875D01*
X1215237Y505561D01*
X1229106Y534162D01*
X1241196Y563524D01*
X1251508Y593547D01*
X1259992Y624179D01*
X1266596Y655218D01*
X1271320Y686612D01*
X1274114Y718261D01*
X1274978Y749960D01*
X1274114Y781761D01*
X1271320Y813358D01*
X1266596Y844803D01*
X1259992Y875842D01*
X1251508Y906475D01*
X1241196Y936498D01*
X1229106Y965860D01*
X1215237Y994410D01*
X1199692Y1022096D01*
X1182471Y1048816D01*
X1163675Y1074420D01*
X1143355Y1098804D01*
X1121613Y1121968D01*
X1098550Y1143762D01*
X1074166Y1164132D01*
X1048613Y1182979D01*
X1021943Y1200251D01*
X994308Y1215847D01*
X965758Y1229766D01*
X936396Y1241958D01*
X906424Y1252321D01*
X875792Y1260856D01*
X844753Y1267510D01*
X813358Y1272336D01*
X781761Y1275181D01*
X750011Y1276146D01*
X718261Y1275181D01*
X686612Y1272336D01*
X655218Y1267510D01*
X624179Y1260856D01*
X593598Y1252321D01*
X563575Y1241958D01*
X534263Y1229766D01*
X505714Y1215847D01*
X478078Y1200251D01*
X451408Y1182979D01*
X425856Y1164132D01*
X401472Y1143762D01*
X378358Y1121968D01*
X356616Y1098804D01*
X336346Y1074420D01*
X317550Y1048816D01*
X300329Y1022096D01*
X284784Y994410D01*
X270916Y965860D01*
X258825Y936498D01*
X248513Y906475D01*
X240029Y875842D01*
X233425Y844803D01*
X228701Y813358D01*
X225907Y781761D01*
X224993Y750011D01*
X225907Y718261D01*
X228701Y686612D01*
X233425Y655218D01*
X240029Y624179D01*
X248513Y593547D01*
X258825Y563524D01*
X270916Y534162D01*
X284784Y505561D01*
X300329Y477875D01*
X317550Y451205D01*
X336346Y425602D01*
X356616Y401167D01*
X378358Y378002D01*
X401472Y356209D01*
X425856Y335889D01*
X451408Y317042D01*
X478078Y299770D01*
X505714Y284175D01*
X534263Y270205D01*
X563575Y258064D01*
X593598Y247700D01*
X624179Y239166D01*
X655218Y232460D01*
X686612Y227685D01*
X718261Y224790D01*
G37*
G36*
X3004515Y724154D02*
G01*
X3022600Y725576D01*
X3040380Y728827D01*
X3057804Y733856D01*
X3074568Y740714D01*
X3090519Y749198D01*
X3105556Y759307D01*
X3119475Y770890D01*
X3132124Y783894D01*
X3143351Y798068D01*
X3153054Y813358D01*
X3161182Y829564D01*
X3167532Y846531D01*
X3172155Y864006D01*
X3174949Y881887D01*
X3175863Y899972D01*
X3174949Y918108D01*
X3172155Y935990D01*
X3167532Y953465D01*
X3161182Y970432D01*
X3153054Y986637D01*
X3143351Y1001928D01*
X3132124Y1016101D01*
X3119475Y1029106D01*
X3105556Y1040688D01*
X3090519Y1050798D01*
X3074568Y1059281D01*
X3057804Y1066139D01*
X3040380Y1071168D01*
X3022600Y1074420D01*
X3004515Y1075842D01*
X2986430Y1075385D01*
X2968447Y1073048D01*
X2950819Y1068882D01*
X2933750Y1062939D01*
X2917342Y1055268D01*
X2901797Y1045921D01*
X2887319Y1035050D01*
X2874010Y1022756D01*
X2862072Y1009142D01*
X2851556Y994410D01*
X2842666Y978662D01*
X2835402Y962050D01*
X2829915Y944778D01*
X2826207Y927049D01*
X2824327Y909066D01*
X2824327Y890930D01*
X2826207Y872947D01*
X2829915Y855218D01*
X2835402Y837946D01*
X2842666Y821334D01*
X2851556Y805586D01*
X2862072Y790854D01*
X2874010Y777240D01*
X2887319Y764946D01*
X2901797Y754075D01*
X2917342Y744728D01*
X2933750Y737057D01*
X2950819Y731113D01*
X2968447Y726948D01*
X2986430Y724611D01*
G37*
G36*
X5001006Y1049985D02*
G01*
X7199020Y1049985D01*
X7199985Y1051001D01*
X7199985Y1449019D01*
X7199020Y1449984D01*
X5001006Y1449984D01*
X4999990Y1449019D01*
X4999990Y1051001D01*
G37*
G36*
X2804515Y1224178D02*
G01*
X2822600Y1225550D01*
X2840380Y1228801D01*
X2857804Y1233881D01*
X2874568Y1240688D01*
X2890520Y1249222D01*
X2905556Y1259332D01*
X2919476Y1270914D01*
X2932125Y1283868D01*
X2943352Y1298092D01*
X2953054Y1313383D01*
X2961182Y1329537D01*
X2967532Y1346504D01*
X2972155Y1364030D01*
X2974949Y1381912D01*
X2975864Y1399997D01*
X2974949Y1418082D01*
X2972155Y1435963D01*
X2967532Y1453489D01*
X2961182Y1470456D01*
X2953054Y1486611D01*
X2943352Y1501902D01*
X2932125Y1516126D01*
X2919476Y1529080D01*
X2905556Y1540662D01*
X2890520Y1550771D01*
X2874568Y1559306D01*
X2857804Y1566113D01*
X2840380Y1571193D01*
X2822600Y1574444D01*
X2804515Y1575816D01*
X2786430Y1575358D01*
X2768447Y1573022D01*
X2750820Y1568907D01*
X2733751Y1562912D01*
X2717342Y1555242D01*
X2701798Y1545945D01*
X2687320Y1535074D01*
X2674010Y1522780D01*
X2662072Y1509166D01*
X2651556Y1494383D01*
X2642666Y1478635D01*
X2635402Y1462024D01*
X2629916Y1444802D01*
X2626207Y1427073D01*
X2624328Y1409039D01*
X2624328Y1390954D01*
X2626207Y1372920D01*
X2629916Y1355191D01*
X2635402Y1337970D01*
X2642666Y1321358D01*
X2651556Y1305610D01*
X2662072Y1290828D01*
X2674010Y1277213D01*
X2687320Y1264920D01*
X2701798Y1254048D01*
X2717342Y1244752D01*
X2733751Y1237081D01*
X2750820Y1231087D01*
X2768447Y1226972D01*
X2786430Y1224635D01*
G37*
G36*
X5001006Y1550009D02*
G01*
X7199020Y1550009D01*
X7199985Y1550974D01*
X7199985Y1948992D01*
X7199020Y1950008D01*
X5001006Y1950008D01*
X4999990Y1948992D01*
X4999990Y1550974D01*
X5000193Y1550162D01*
G37*
G36*
X2239924Y1626819D02*
G01*
X2255113Y1626819D01*
X2270201Y1628698D01*
X2284933Y1632305D01*
X2299157Y1637690D01*
X2312619Y1644751D01*
X2325166Y1653387D01*
X2336546Y1663496D01*
X2346604Y1674875D01*
X2355240Y1687372D01*
X2362301Y1700834D01*
X2367686Y1715058D01*
X2371344Y1729790D01*
X2373172Y1744878D01*
X2373172Y1760118D01*
X2371344Y1775206D01*
X2367686Y1789938D01*
X2362301Y1804162D01*
X2355240Y1817624D01*
X2346604Y1830120D01*
X2336546Y1841500D01*
X2325166Y1851609D01*
X2312619Y1860245D01*
X2299157Y1867306D01*
X2284933Y1872691D01*
X2270201Y1876348D01*
X2255113Y1878177D01*
X2239924Y1878177D01*
X2224836Y1876348D01*
X2210054Y1872691D01*
X2195830Y1867306D01*
X2182368Y1860245D01*
X2169871Y1851609D01*
X2158492Y1841500D01*
X2148382Y1830120D01*
X2139746Y1817624D01*
X2132685Y1804162D01*
X2127300Y1789938D01*
X2123694Y1775206D01*
X2121865Y1760118D01*
X2121865Y1744878D01*
X2123694Y1729790D01*
X2127300Y1715058D01*
X2132685Y1700834D01*
X2139746Y1687372D01*
X2148382Y1674875D01*
X2158492Y1663496D01*
X2169871Y1653387D01*
X2182368Y1644751D01*
X2195830Y1637690D01*
X2210054Y1632305D01*
X2224836Y1628698D01*
G37*
G36*
X1992426Y1874316D02*
G01*
X2007616Y1874316D01*
X2022703Y1876145D01*
X2037486Y1879803D01*
X2051710Y1885188D01*
X2065121Y1892249D01*
X2077669Y1900885D01*
X2089048Y1910943D01*
X2099106Y1922322D01*
X2107742Y1934870D01*
X2114804Y1948332D01*
X2120188Y1962556D01*
X2123846Y1977288D01*
X2125675Y1992375D01*
X2125675Y2007565D01*
X2123846Y2022652D01*
X2120188Y2037435D01*
X2114804Y2051659D01*
X2107742Y2065121D01*
X2099106Y2077618D01*
X2089048Y2088997D01*
X2077669Y2099106D01*
X2065121Y2107742D01*
X2051710Y2114804D01*
X2037486Y2120188D01*
X2022703Y2123795D01*
X2007616Y2125624D01*
X1992426Y2125624D01*
X1977339Y2123795D01*
X1962556Y2120188D01*
X1948332Y2114804D01*
X1934870Y2107742D01*
X1922373Y2099106D01*
X1910994Y2088997D01*
X1900936Y2077618D01*
X1892300Y2065121D01*
X1885238Y2051659D01*
X1879854Y2037435D01*
X1876196Y2022652D01*
X1874367Y2007565D01*
X1874367Y1992375D01*
X1876196Y1977288D01*
X1879854Y1962556D01*
X1885238Y1948332D01*
X1892300Y1934870D01*
X1900936Y1922322D01*
X1910994Y1910943D01*
X1922373Y1900885D01*
X1934870Y1892249D01*
X1948332Y1885188D01*
X1962556Y1879803D01*
X1977339Y1876145D01*
G37*
G36*
X1744929Y2121814D02*
G01*
X1760118Y2121814D01*
X1775206Y2123643D01*
X1789988Y2127300D01*
X1792173Y2128113D01*
X1752549Y2167788D01*
X1712874Y2128113D01*
X1715058Y2127300D01*
X1729841Y2123643D01*
G37*
G36*
X1633169Y2207818D02*
G01*
X1672843Y2247493D01*
X1633169Y2287117D01*
X1632356Y2284933D01*
X1628698Y2270150D01*
X1626870Y2255062D01*
X1626870Y2239873D01*
X1628698Y2224786D01*
X1632356Y2210003D01*
G37*
G36*
X1871878Y2207818D02*
G01*
X1872742Y2210003D01*
X1876348Y2224786D01*
X1878177Y2239873D01*
X1878177Y2255062D01*
X1876348Y2270150D01*
X1872742Y2284933D01*
X1871878Y2287117D01*
X1832203Y2247493D01*
G37*
G36*
X1752549Y2327148D02*
G01*
X1792173Y2366822D01*
X1789988Y2367686D01*
X1775206Y2371293D01*
X1760118Y2373122D01*
X1744929Y2373122D01*
X1729841Y2371293D01*
X1715058Y2367686D01*
X1712874Y2366822D01*
G37*
G36*
X999388Y2897987D02*
G01*
X1013002Y2899359D01*
X1026261Y2902508D01*
X1038961Y2907385D01*
X1050950Y2913938D01*
X1061923Y2922016D01*
X1071727Y2931515D01*
X1080160Y2942234D01*
X1087120Y2953969D01*
X1092454Y2966516D01*
X1096060Y2979674D01*
X1097838Y2993186D01*
X1097838Y3006801D01*
X1096060Y3020314D01*
X1092454Y3033471D01*
X1087120Y3046018D01*
X1080160Y3057753D01*
X1071727Y3068472D01*
X1061923Y3077972D01*
X1050950Y3086049D01*
X1038961Y3092602D01*
X1026261Y3097479D01*
X1013002Y3100679D01*
X999388Y3102051D01*
X985774Y3101594D01*
X972312Y3099308D01*
X959307Y3095244D01*
X946962Y3089503D01*
X935431Y3082188D01*
X925017Y3073400D01*
X915873Y3063290D01*
X908151Y3052013D01*
X902004Y3039872D01*
X897534Y3026968D01*
X894842Y3013608D01*
X893927Y2999994D01*
X894842Y2986379D01*
X897534Y2973019D01*
X902004Y2960166D01*
X908151Y2947974D01*
X915873Y2936748D01*
X925017Y2926638D01*
X935431Y2917799D01*
X946962Y2910484D01*
X959307Y2904744D01*
X972312Y2900680D01*
X985774Y2898444D01*
G37*
G36*
X7749997Y223367D02*
G01*
X7781747Y224332D01*
X7813395Y227228D01*
X7844840Y232003D01*
X7875879Y238709D01*
X7906512Y247243D01*
X7936534Y257606D01*
X7965846Y269798D01*
X7994446Y283718D01*
X8022081Y299364D01*
X8048752Y316687D01*
X8074304Y335534D01*
X8098688Y355904D01*
X8121802Y377698D01*
X8143544Y400913D01*
X8163864Y425348D01*
X8182609Y450951D01*
X8199831Y477672D01*
X8215375Y505409D01*
X8229244Y534009D01*
X8241334Y563372D01*
X8251596Y593445D01*
X8260080Y624078D01*
X8266633Y655167D01*
X8271357Y686562D01*
X8274151Y718261D01*
X8275015Y749960D01*
X8274151Y781761D01*
X8271357Y813409D01*
X8266633Y844854D01*
X8260080Y875944D01*
X8251596Y906576D01*
X8241334Y936599D01*
X8229244Y966012D01*
X8215375Y994613D01*
X8199831Y1022299D01*
X8182609Y1049020D01*
X8163864Y1074674D01*
X8143544Y1099108D01*
X8121802Y1122273D01*
X8098688Y1144117D01*
X8074304Y1164488D01*
X8048752Y1183335D01*
X8022081Y1200607D01*
X7994446Y1216253D01*
X7965846Y1230172D01*
X7936534Y1242364D01*
X7906512Y1252778D01*
X7875879Y1261313D01*
X7844840Y1268018D01*
X7813395Y1272794D01*
X7781747Y1275689D01*
X7749997Y1276654D01*
X7718247Y1275689D01*
X7686598Y1272794D01*
X7655204Y1268018D01*
X7624114Y1261313D01*
X7593533Y1252778D01*
X7563459Y1242364D01*
X7534148Y1230172D01*
X7505598Y1216253D01*
X7477912Y1200607D01*
X7451242Y1183335D01*
X7425690Y1164488D01*
X7401306Y1144117D01*
X7378192Y1122273D01*
X7356449Y1099108D01*
X7336129Y1074674D01*
X7317384Y1049020D01*
X7300163Y1022299D01*
X7284618Y994613D01*
X7270750Y966012D01*
X7258659Y936599D01*
X7248398Y906576D01*
X7239914Y875944D01*
X7233361Y844854D01*
X7228636Y813409D01*
X7225893Y781761D01*
X7225030Y750062D01*
X7225893Y718261D01*
X7228636Y686562D01*
X7233361Y655167D01*
X7239914Y624078D01*
X7248398Y593445D01*
X7258659Y563372D01*
X7270750Y534009D01*
X7284618Y505409D01*
X7300163Y477672D01*
X7317384Y450951D01*
X7336129Y425348D01*
X7356449Y400913D01*
X7378192Y377698D01*
X7401306Y355904D01*
X7425690Y335534D01*
X7451242Y316687D01*
X7477912Y299364D01*
X7505598Y283718D01*
X7534148Y269798D01*
X7563459Y257606D01*
X7593533Y247243D01*
X7624114Y238709D01*
X7655204Y232003D01*
X7686598Y227228D01*
X7718247Y224332D01*
G37*
G36*
X1407668Y2966516D02*
G01*
X1441145Y2999994D01*
X1407668Y3033471D01*
X1404315Y3021990D01*
X1402283Y3008528D01*
X1402029Y2994863D01*
X1403654Y2981350D01*
X1407007Y2968142D01*
G37*
G36*
X1600250Y2966618D02*
G01*
X1601978Y2971393D01*
X1604924Y2984703D01*
X1606092Y2998317D01*
X1605381Y3011932D01*
X1602892Y3025343D01*
X1600250Y3033369D01*
X1566875Y2999994D01*
G37*
G36*
X1503984Y3062884D02*
G01*
X1537360Y3096260D01*
X1529334Y3098901D01*
X1515922Y3101390D01*
X1502308Y3102051D01*
X1488694Y3100933D01*
X1475384Y3097987D01*
X1470609Y3096260D01*
G37*
G36*
X6739991Y6126988D02*
G01*
X6755180Y6126988D01*
X6770319Y6128816D01*
X6785051Y6132423D01*
X6787286Y6133287D01*
X6747611Y6172962D01*
X6707936Y6133287D01*
X6710172Y6132423D01*
X6724903Y6128816D01*
G37*
G36*
X6628231Y6212992D02*
G01*
X6667906Y6252616D01*
X6628231Y6292291D01*
X6627418Y6290106D01*
X6623761Y6275324D01*
X6621932Y6260236D01*
X6621932Y6245047D01*
X6623761Y6229959D01*
X6627418Y6215176D01*
G37*
G36*
X6866940Y6212992D02*
G01*
X6867804Y6215176D01*
X6871411Y6229959D01*
X6873240Y6245047D01*
X6873240Y6260236D01*
X6871411Y6275324D01*
X6867804Y6290106D01*
X6866940Y6292291D01*
X6827316Y6252616D01*
G37*
G36*
X6747611Y6332321D02*
G01*
X6787286Y6371996D01*
X6785051Y6372809D01*
X6770319Y6376466D01*
X6755180Y6378295D01*
X6739991Y6378295D01*
X6724903Y6376466D01*
X6710172Y6372809D01*
X6707936Y6371996D01*
G37*
G36*
X6492494Y6374485D02*
G01*
X6507734Y6374485D01*
X6522821Y6376314D01*
X6537553Y6379921D01*
X6551777Y6385306D01*
X6565239Y6392367D01*
X6577736Y6401003D01*
X6589115Y6411112D01*
X6599224Y6422491D01*
X6607860Y6434988D01*
X6614922Y6448450D01*
X6620306Y6462674D01*
X6623964Y6477457D01*
X6625793Y6492544D01*
X6625793Y6507734D01*
X6623964Y6522821D01*
X6620306Y6537553D01*
X6614922Y6551777D01*
X6607860Y6565239D01*
X6599224Y6577787D01*
X6589115Y6589166D01*
X6577736Y6599224D01*
X6565239Y6607860D01*
X6551777Y6614922D01*
X6537553Y6620306D01*
X6522821Y6623964D01*
X6507734Y6625793D01*
X6492494Y6625793D01*
X6477406Y6623964D01*
X6462674Y6620306D01*
X6448450Y6614922D01*
X6434988Y6607860D01*
X6422491Y6599224D01*
X6411112Y6589166D01*
X6401003Y6577787D01*
X6392367Y6565239D01*
X6385306Y6551777D01*
X6379921Y6537553D01*
X6376314Y6522821D01*
X6374434Y6507734D01*
X6374434Y6492544D01*
X6376314Y6477457D01*
X6379921Y6462674D01*
X6385306Y6448450D01*
X6392367Y6434988D01*
X6401003Y6422491D01*
X6411112Y6411112D01*
X6422491Y6401003D01*
X6434988Y6392367D01*
X6448450Y6385306D01*
X6462674Y6379921D01*
X6477406Y6376314D01*
G37*
G36*
X6245047Y6621932D02*
G01*
X6260236Y6621932D01*
X6275324Y6623761D01*
X6290106Y6627418D01*
X6304280Y6632803D01*
X6317742Y6639864D01*
X6330289Y6648500D01*
X6341668Y6658609D01*
X6351727Y6669989D01*
X6360363Y6682486D01*
X6367424Y6695948D01*
X6372809Y6710172D01*
X6376466Y6724903D01*
X6378295Y6739991D01*
X6378295Y6755231D01*
X6376466Y6770319D01*
X6372809Y6785051D01*
X6367424Y6799275D01*
X6360363Y6812737D01*
X6351727Y6825234D01*
X6341668Y6836613D01*
X6330289Y6846722D01*
X6317742Y6855358D01*
X6304280Y6862419D01*
X6290106Y6867804D01*
X6275324Y6871411D01*
X6260236Y6873290D01*
X6245047Y6873290D01*
X6229959Y6871411D01*
X6215176Y6867804D01*
X6200952Y6862419D01*
X6187490Y6855358D01*
X6174994Y6846722D01*
X6163614Y6836613D01*
X6153556Y6825234D01*
X6144920Y6812737D01*
X6137808Y6799275D01*
X6132423Y6785051D01*
X6128816Y6770319D01*
X6126988Y6755231D01*
X6126988Y6739991D01*
X6128816Y6724903D01*
X6132423Y6710172D01*
X6137808Y6695948D01*
X6144920Y6682486D01*
X6153556Y6669989D01*
X6163614Y6658609D01*
X6174994Y6648500D01*
X6187490Y6639864D01*
X6200952Y6632803D01*
X6215176Y6627418D01*
X6229959Y6623761D01*
G37*
G36*
X5404510Y6874154D02*
G01*
X5422595Y6875576D01*
X5440375Y6878828D01*
X5457799Y6883857D01*
X5474563Y6890715D01*
X5490514Y6899198D01*
X5505551Y6909308D01*
X5519470Y6920890D01*
X5532120Y6933895D01*
X5543346Y6948068D01*
X5553049Y6963359D01*
X5561177Y6979564D01*
X5567527Y6996531D01*
X5572150Y7014006D01*
X5574944Y7031888D01*
X5575858Y7049973D01*
X5574944Y7068108D01*
X5572150Y7085990D01*
X5567527Y7103465D01*
X5561177Y7120432D01*
X5553049Y7136638D01*
X5543346Y7151928D01*
X5532120Y7166102D01*
X5519470Y7179106D01*
X5505551Y7190689D01*
X5490514Y7200798D01*
X5474563Y7209281D01*
X5457799Y7216140D01*
X5440375Y7221169D01*
X5422595Y7224420D01*
X5404510Y7225842D01*
X5386425Y7225385D01*
X5368442Y7223048D01*
X5350814Y7218883D01*
X5333746Y7212939D01*
X5317337Y7205268D01*
X5301792Y7195921D01*
X5287314Y7185050D01*
X5274005Y7172756D01*
X5262067Y7159142D01*
X5251551Y7144410D01*
X5242661Y7128662D01*
X5235397Y7112050D01*
X5229910Y7094778D01*
X5226202Y7077049D01*
X5224322Y7059066D01*
X5224322Y7040930D01*
X5226202Y7022947D01*
X5229910Y7005218D01*
X5235397Y6987946D01*
X5242661Y6971334D01*
X5251551Y6955586D01*
X5262067Y6940854D01*
X5274005Y6927240D01*
X5287314Y6914946D01*
X5301792Y6904075D01*
X5317337Y6894728D01*
X5333746Y6887057D01*
X5350814Y6881114D01*
X5368442Y6876948D01*
X5386425Y6874611D01*
G37*
G36*
X7749997Y7223353D02*
G01*
X7781747Y7224318D01*
X7813395Y7227214D01*
X7844840Y7231989D01*
X7875879Y7238695D01*
X7906512Y7247229D01*
X7936534Y7257643D01*
X7965846Y7269784D01*
X7994446Y7283754D01*
X8022081Y7299401D01*
X8048752Y7316673D01*
X8074304Y7335520D01*
X8098688Y7355890D01*
X8121802Y7377734D01*
X8143544Y7400899D01*
X8163864Y7425334D01*
X8182609Y7450937D01*
X8199831Y7477658D01*
X8215375Y7505395D01*
X8229244Y7533995D01*
X8241334Y7563358D01*
X8251596Y7593431D01*
X8260080Y7624064D01*
X8266633Y7655153D01*
X8271357Y7686598D01*
X8274151Y7718247D01*
X8275015Y7749946D01*
X8274151Y7781747D01*
X8271357Y7813395D01*
X8266633Y7844840D01*
X8260080Y7875930D01*
X8251596Y7906562D01*
X8241334Y7936636D01*
X8229244Y7965998D01*
X8215375Y7994599D01*
X8199831Y8022336D01*
X8182609Y8049056D01*
X8163864Y8074659D01*
X8143544Y8099094D01*
X8121802Y8122259D01*
X8098688Y8144103D01*
X8074304Y8164474D01*
X8048752Y8183321D01*
X8022081Y8200644D01*
X7994446Y8216239D01*
X7965846Y8230209D01*
X7936534Y8242401D01*
X7906512Y8252764D01*
X7875879Y8261299D01*
X7844840Y8268004D01*
X7813395Y8272780D01*
X7781747Y8275675D01*
X7749997Y8276640D01*
X7718247Y8275675D01*
X7686598Y8272780D01*
X7655204Y8268004D01*
X7624114Y8261299D01*
X7593533Y8252764D01*
X7563459Y8242401D01*
X7534148Y8230209D01*
X7505598Y8216239D01*
X7477912Y8200644D01*
X7451242Y8183321D01*
X7425690Y8164474D01*
X7401306Y8144103D01*
X7378192Y8122259D01*
X7356449Y8099094D01*
X7336129Y8074659D01*
X7317384Y8049056D01*
X7300163Y8022336D01*
X7284618Y7994599D01*
X7270750Y7965998D01*
X7258659Y7936636D01*
X7248398Y7906562D01*
X7239914Y7875930D01*
X7233361Y7844840D01*
X7228636Y7813395D01*
X7225893Y7781747D01*
X7225030Y7750048D01*
X7225893Y7718247D01*
X7228636Y7686598D01*
X7233361Y7655153D01*
X7239914Y7624064D01*
X7248398Y7593431D01*
X7258659Y7563358D01*
X7270750Y7533995D01*
X7284618Y7505395D01*
X7300163Y7477658D01*
X7317384Y7450937D01*
X7336129Y7425334D01*
X7356449Y7400899D01*
X7378192Y7377734D01*
X7401306Y7355890D01*
X7425690Y7335520D01*
X7451242Y7316673D01*
X7477912Y7299401D01*
X7505598Y7283754D01*
X7534148Y7269784D01*
X7563459Y7257643D01*
X7593533Y7247229D01*
X7624114Y7238695D01*
X7655204Y7231989D01*
X7686598Y7227214D01*
X7718247Y7224318D01*
G37*
G36*
X750011Y7223861D02*
G01*
X781761Y7224826D01*
X813358Y7227671D01*
X844753Y7232497D01*
X875792Y7239152D01*
X906424Y7247686D01*
X936396Y7258050D01*
X965758Y7270242D01*
X994308Y7284161D01*
X1021943Y7299756D01*
X1048613Y7317028D01*
X1074166Y7335875D01*
X1098550Y7356246D01*
X1121613Y7378039D01*
X1143355Y7401153D01*
X1163675Y7425588D01*
X1182471Y7451191D01*
X1199692Y7477912D01*
X1215237Y7505598D01*
X1229106Y7534148D01*
X1241196Y7563510D01*
X1251508Y7593533D01*
X1259992Y7624165D01*
X1266596Y7655204D01*
X1271320Y7686598D01*
X1274114Y7718247D01*
X1274978Y7749946D01*
X1274114Y7781747D01*
X1271320Y7813395D01*
X1266596Y7844790D01*
X1259992Y7875828D01*
X1251508Y7906461D01*
X1241196Y7936484D01*
X1229106Y7965846D01*
X1215237Y7994446D01*
X1199692Y8022132D01*
X1182471Y8048802D01*
X1163675Y8074406D01*
X1143355Y8098840D01*
X1121613Y8121954D01*
X1098550Y8143748D01*
X1074166Y8164118D01*
X1048613Y8182965D01*
X1021943Y8200237D01*
X994308Y8215833D01*
X965758Y8229752D01*
X936396Y8241944D01*
X906424Y8252307D01*
X875792Y8260842D01*
X844753Y8267547D01*
X813358Y8272322D01*
X781761Y8275167D01*
X750011Y8276132D01*
X718261Y8275167D01*
X686612Y8272322D01*
X655218Y8267547D01*
X624179Y8260842D01*
X593598Y8252307D01*
X563575Y8241944D01*
X534263Y8229752D01*
X505714Y8215833D01*
X478078Y8200237D01*
X451408Y8182965D01*
X425856Y8164118D01*
X401472Y8143748D01*
X378358Y8121954D01*
X356616Y8098840D01*
X336346Y8074406D01*
X317550Y8048802D01*
X300329Y8022132D01*
X284784Y7994446D01*
X270916Y7965846D01*
X258825Y7936484D01*
X248513Y7906461D01*
X240029Y7875828D01*
X233425Y7844790D01*
X228701Y7813395D01*
X225907Y7781747D01*
X224993Y7750048D01*
X225907Y7718247D01*
X228701Y7686598D01*
X233425Y7655204D01*
X240029Y7624165D01*
X248513Y7593533D01*
X258825Y7563510D01*
X270916Y7534148D01*
X284784Y7505598D01*
X300329Y7477912D01*
X317550Y7451191D01*
X336346Y7425588D01*
X356616Y7401153D01*
X378358Y7378039D01*
X401472Y7356246D01*
X425856Y7335875D01*
X451408Y7317028D01*
X478078Y7299756D01*
X505714Y7284161D01*
X534263Y7270242D01*
X563575Y7258050D01*
X593598Y7247686D01*
X624179Y7239152D01*
X655218Y7232497D01*
X686612Y7227671D01*
X718261Y7224826D01*
G37*
G36*
X1498904Y2898038D02*
G01*
X1512519Y2898292D01*
X1525981Y2900324D01*
X1537462Y2903677D01*
X1503984Y2937154D01*
X1470507Y2903677D01*
X1472133Y2903016D01*
X1485341Y2899613D01*
G37*

%LPD*%
D17*
G01*
X996010Y2999994D03*
G01*
X1504010Y2999994D03*
D18*
G01*
X2247493Y1752498D03*
G01*
X2000021Y1999995D03*
G01*
X1752523Y2247493D03*
G01*
X6252641Y6747611D03*
G01*
X6500113Y6500113D03*
G01*
X6747611Y6252616D03*
D12*
G01*
X7812506Y4262501D03*
G01*
X6900011Y4499990D03*
G01*
X4750003Y1312494D03*
G01*
X3987495Y937488D03*
G01*
X5800013Y2262504D03*
G01*
X4925009Y2512491D03*
G01*
X3812489Y2362504D03*
G01*
X3874998Y2312492D03*
G01*
X4512513Y2562504D03*
G01*
X3087497Y1875002D03*
G01*
X3999991Y2924987D03*
G01*
X4987493Y2924987D03*
G01*
X4750003Y3312490D03*
G01*
X3750005Y3312490D03*
G01*
X2999993Y2924987D03*
G01*
X5750001Y3312490D03*
G01*
X6000013Y2912490D03*
G01*
X6749999Y3299993D03*
G01*
X5750001Y4162501D03*
G01*
X5512511Y4550003D03*
G01*
X4750003Y4162501D03*
G01*
X6500012Y4550003D03*
G01*
X4499990Y4550003D03*
G01*
X3750005Y4174997D03*
G01*
X3512489Y4550003D03*
G01*
X2750007Y4162501D03*
G01*
X2512491Y4562500D03*
G01*
X1812493Y4374997D03*
G01*
X1924989Y4312488D03*
G01*
X999997Y3912488D03*
G01*
X2750007Y3312490D03*
G01*
X1999995Y2924987D03*
G01*
X1999995Y4912487D03*
G01*
X2750007Y5312486D03*
G01*
X2999993Y4899990D03*
G01*
X3750005Y5312486D03*
G01*
X3999991Y4912487D03*
G01*
X4750003Y5312486D03*
G01*
X4999990Y4899990D03*
G01*
X5762497Y5312486D03*
G01*
X6000013Y4912487D03*
G01*
X6749999Y5312486D03*
G01*
X4987493Y5937504D03*
G01*
X5750001Y6312509D03*
G01*
X4512513Y6549999D03*
G01*
X3999991Y6925005D03*
G01*
X3737508Y6174994D03*
G01*
X2899994Y6499987D03*
G01*
X3199993Y5774994D03*
G01*
X4085005Y7005015D03*
G01*
X4750003Y7312507D03*
M02*
