G04 Layer: BottomSilkLayer*
G04 EasyEDA v6.4.25, 2022-01-30T22:18:30+11:00*
G04 a67cddfb3fce44daa9051d46cbbcc19f,10*
G04 Gerber Generator version 0.2*
G04 Scale: 100 percent, Rotated: No, Reflected: No *
G04 Dimensions in millimeters *
G04 leading zeros omitted , absolute positions ,4 integer and 5 decimal *
%FSLAX45Y45*%
%MOMM*%

%ADD10C,0.2540*%
%ADD19C,0.1524*%
%ADD20C,0.2032*%

%LPD*%
D20*
X1211455Y2033864D02*
G01*
X1220690Y2052337D01*
X1239164Y2070811D01*
X1257635Y2080046D01*
X1294582Y2080046D01*
X1313055Y2070811D01*
X1331526Y2052337D01*
X1340764Y2033864D01*
X1349999Y2006155D01*
X1349999Y1959975D01*
X1340764Y1932264D01*
X1331526Y1913793D01*
X1313055Y1895320D01*
X1294582Y1886084D01*
X1257635Y1886084D01*
X1239164Y1895320D01*
X1220690Y1913793D01*
X1211455Y1932264D01*
X1211455Y1959975D01*
X1257635Y1959975D02*
G01*
X1211455Y1959975D01*
X1150495Y2080046D02*
G01*
X1150495Y1886084D01*
X1150495Y2080046D02*
G01*
X1021184Y1886084D01*
X1021184Y2080046D02*
G01*
X1021184Y1886084D01*
X960224Y2080046D02*
G01*
X960224Y1886084D01*
X960224Y2080046D02*
G01*
X895570Y2080046D01*
X867862Y2070811D01*
X849388Y2052337D01*
X840153Y2033864D01*
X830915Y2006155D01*
X830915Y1959975D01*
X840153Y1932264D01*
X849388Y1913793D01*
X867862Y1895320D01*
X895570Y1886084D01*
X960224Y1886084D01*
X1599999Y1780047D02*
G01*
X1599999Y1586085D01*
X1599999Y1780047D02*
G01*
X1535343Y1780047D01*
X1507634Y1770811D01*
X1489163Y1752338D01*
X1479925Y1733864D01*
X1470690Y1706156D01*
X1470690Y1659976D01*
X1479925Y1632264D01*
X1489163Y1613794D01*
X1507634Y1595320D01*
X1535343Y1586085D01*
X1599999Y1586085D01*
X1335839Y1780047D02*
G01*
X1409730Y1586085D01*
X1335839Y1780047D02*
G01*
X1261948Y1586085D01*
X1382021Y1650738D02*
G01*
X1289657Y1650738D01*
X1136335Y1780047D02*
G01*
X1136335Y1586085D01*
X1200988Y1780047D02*
G01*
X1071679Y1780047D01*
X936828Y1780047D02*
G01*
X1010719Y1586085D01*
X936828Y1780047D02*
G01*
X862937Y1586085D01*
X983010Y1650738D02*
G01*
X890645Y1650738D01*
X659737Y1780047D02*
G01*
X659737Y1586085D01*
X598777Y1780047D02*
G01*
X598777Y1586085D01*
X598777Y1780047D02*
G01*
X469468Y1586085D01*
X469468Y1780047D02*
G01*
X469468Y1586085D01*
X1816874Y1452338D02*
G01*
X1816874Y1286085D01*
X1900001Y1369212D02*
G01*
X1733745Y1369212D01*
X1561950Y1480047D02*
G01*
X1654314Y1480047D01*
X1663550Y1396921D01*
X1654314Y1406156D01*
X1626605Y1415394D01*
X1598896Y1415394D01*
X1571185Y1406156D01*
X1552714Y1387685D01*
X1543476Y1359976D01*
X1543476Y1341503D01*
X1552714Y1313794D01*
X1571185Y1295321D01*
X1598896Y1286085D01*
X1626605Y1286085D01*
X1654314Y1295321D01*
X1663550Y1304556D01*
X1672785Y1323030D01*
X1482516Y1480047D02*
G01*
X1408625Y1286085D01*
X1334736Y1480047D02*
G01*
X1408625Y1286085D01*
X2600012Y903648D02*
G01*
X2600012Y521830D01*
X2480012Y776376D02*
G01*
X2480012Y521830D01*
X2480012Y703648D02*
G01*
X2425466Y758192D01*
X2389103Y776376D01*
X2334557Y776376D01*
X2298194Y758192D01*
X2280013Y703648D01*
X2280013Y521830D01*
X2160013Y776376D02*
G01*
X2160013Y394555D01*
X2160013Y721829D02*
G01*
X2123648Y758192D01*
X2087285Y776376D01*
X2032739Y776376D01*
X1996376Y758192D01*
X1960011Y721829D01*
X1941829Y667283D01*
X1941829Y630920D01*
X1960011Y576374D01*
X1996376Y540011D01*
X2032739Y521830D01*
X2087285Y521830D01*
X2123648Y540011D01*
X2160013Y576374D01*
X1821830Y776376D02*
G01*
X1821830Y594558D01*
X1803648Y540011D01*
X1767286Y521830D01*
X1712739Y521830D01*
X1676377Y540011D01*
X1621830Y594558D01*
X1621830Y776376D02*
G01*
X1621830Y521830D01*
X1447284Y903648D02*
G01*
X1447284Y594558D01*
X1429103Y540011D01*
X1392740Y521830D01*
X1356375Y521830D01*
X1501830Y776376D02*
G01*
X1374559Y776376D01*
X6990920Y8303638D02*
G01*
X7027283Y8285457D01*
X7063648Y8249091D01*
X7081829Y8212729D01*
X7100011Y8158182D01*
X7100011Y8067273D01*
X7081829Y8012729D01*
X7063648Y7976364D01*
X7027283Y7940001D01*
X6990920Y7921820D01*
X6918192Y7921820D01*
X6881830Y7940001D01*
X6845465Y7976364D01*
X6827283Y8012729D01*
X6809102Y8067273D01*
X6809102Y8158182D01*
X6827283Y8212729D01*
X6845465Y8249091D01*
X6881830Y8285457D01*
X6918192Y8303638D01*
X6990920Y8303638D01*
X6689102Y8176366D02*
G01*
X6689102Y7994548D01*
X6670921Y7940001D01*
X6634556Y7921820D01*
X6580012Y7921820D01*
X6543647Y7940001D01*
X6489103Y7994548D01*
X6489103Y8176366D02*
G01*
X6489103Y7921820D01*
X6314556Y8303638D02*
G01*
X6314556Y7994548D01*
X6296375Y7940001D01*
X6260010Y7921820D01*
X6223647Y7921820D01*
X6369103Y8176366D02*
G01*
X6241829Y8176366D01*
X6103647Y8176366D02*
G01*
X6103647Y7794546D01*
X6103647Y8121820D02*
G01*
X6067282Y8158182D01*
X6030920Y8176366D01*
X5976373Y8176366D01*
X5940010Y8158182D01*
X5903648Y8121820D01*
X5885464Y8067273D01*
X5885464Y8030911D01*
X5903648Y7976364D01*
X5940010Y7940001D01*
X5976373Y7921820D01*
X6030920Y7921820D01*
X6067282Y7940001D01*
X6103647Y7976364D01*
X5765464Y8176366D02*
G01*
X5765464Y7994548D01*
X5747283Y7940001D01*
X5710920Y7921820D01*
X5656374Y7921820D01*
X5620011Y7940001D01*
X5565465Y7994548D01*
X5565465Y8176366D02*
G01*
X5565465Y7921820D01*
X5390921Y8303638D02*
G01*
X5390921Y7994548D01*
X5372737Y7940001D01*
X5336374Y7921820D01*
X5300012Y7921820D01*
X5445465Y8176366D02*
G01*
X5318193Y8176366D01*
X7486456Y6608864D02*
G01*
X7495692Y6627337D01*
X7514165Y6645810D01*
X7532636Y6655046D01*
X7569583Y6655046D01*
X7588056Y6645810D01*
X7606527Y6627337D01*
X7615765Y6608864D01*
X7625001Y6581155D01*
X7625001Y6534975D01*
X7615765Y6507264D01*
X7606527Y6488793D01*
X7588056Y6470319D01*
X7569583Y6461084D01*
X7532636Y6461084D01*
X7514165Y6470319D01*
X7495692Y6488793D01*
X7486456Y6507264D01*
X7486456Y6534975D01*
X7532636Y6534975D02*
G01*
X7486456Y6534975D01*
X7425496Y6655046D02*
G01*
X7425496Y6461084D01*
X7425496Y6655046D02*
G01*
X7296185Y6461084D01*
X7296185Y6655046D02*
G01*
X7296185Y6461084D01*
X7235225Y6655046D02*
G01*
X7235225Y6461084D01*
X7235225Y6655046D02*
G01*
X7170572Y6655046D01*
X7142863Y6645810D01*
X7124390Y6627337D01*
X7115154Y6608864D01*
X7105916Y6581155D01*
X7105916Y6534975D01*
X7115154Y6507264D01*
X7124390Y6488793D01*
X7142863Y6470319D01*
X7170572Y6461084D01*
X7235225Y6461084D01*
X8274999Y6930047D02*
G01*
X8274999Y6736085D01*
X8274999Y6930047D02*
G01*
X8210344Y6930047D01*
X8182635Y6920811D01*
X8164164Y6902338D01*
X8154926Y6883864D01*
X8145691Y6856155D01*
X8145691Y6809976D01*
X8154926Y6782264D01*
X8164164Y6763793D01*
X8182635Y6745320D01*
X8210344Y6736085D01*
X8274999Y6736085D01*
X8010839Y6930047D02*
G01*
X8084731Y6736085D01*
X8010839Y6930047D02*
G01*
X7936948Y6736085D01*
X8057022Y6800738D02*
G01*
X7964657Y6800738D01*
X7811335Y6930047D02*
G01*
X7811335Y6736085D01*
X7875988Y6930047D02*
G01*
X7746679Y6930047D01*
X7611828Y6930047D02*
G01*
X7685719Y6736085D01*
X7611828Y6930047D02*
G01*
X7537937Y6736085D01*
X7658011Y6800738D02*
G01*
X7565646Y6800738D01*
X7279319Y6930047D02*
G01*
X7297793Y6920811D01*
X7316264Y6902338D01*
X7325502Y6883864D01*
X7334737Y6856155D01*
X7334737Y6809976D01*
X7325502Y6782264D01*
X7316264Y6763793D01*
X7297793Y6745320D01*
X7279319Y6736085D01*
X7242375Y6736085D01*
X7223902Y6745320D01*
X7205428Y6763793D01*
X7196193Y6782264D01*
X7186955Y6809976D01*
X7186955Y6856155D01*
X7196193Y6883864D01*
X7205428Y6902338D01*
X7223902Y6920811D01*
X7242375Y6930047D01*
X7279319Y6930047D01*
X7125995Y6930047D02*
G01*
X7125995Y6791502D01*
X7116759Y6763793D01*
X7098286Y6745320D01*
X7070577Y6736085D01*
X7052104Y6736085D01*
X7024395Y6745320D01*
X7005924Y6763793D01*
X6996686Y6791502D01*
X6996686Y6930047D01*
X6871073Y6930047D02*
G01*
X6871073Y6736085D01*
X6935726Y6930047D02*
G01*
X6806417Y6930047D01*
X7016874Y7202337D02*
G01*
X7016874Y7036084D01*
X7100001Y7119211D02*
G01*
X6933745Y7119211D01*
X6761949Y7230046D02*
G01*
X6854314Y7230046D01*
X6863549Y7146919D01*
X6854314Y7156155D01*
X6826605Y7165393D01*
X6798896Y7165393D01*
X6771185Y7156155D01*
X6752714Y7137684D01*
X6743476Y7109975D01*
X6743476Y7091502D01*
X6752714Y7063793D01*
X6771185Y7045319D01*
X6798896Y7036084D01*
X6826605Y7036084D01*
X6854314Y7045319D01*
X6863549Y7054555D01*
X6872785Y7073028D01*
X6682516Y7230046D02*
G01*
X6608625Y7036084D01*
X6534736Y7230046D02*
G01*
X6608625Y7036084D01*
X7935343Y2805046D02*
G01*
X7935343Y2611084D01*
X7999999Y2805046D02*
G01*
X7870690Y2805046D01*
X7809730Y2740393D02*
G01*
X7809730Y2611084D01*
X7809730Y2684975D02*
G01*
X7800494Y2712684D01*
X7782021Y2731155D01*
X7763548Y2740393D01*
X7735839Y2740393D01*
X7564043Y2740393D02*
G01*
X7564043Y2611084D01*
X7564043Y2712684D02*
G01*
X7582514Y2731155D01*
X7600988Y2740393D01*
X7628696Y2740393D01*
X7647170Y2731155D01*
X7665643Y2712684D01*
X7674879Y2684975D01*
X7674879Y2666502D01*
X7665643Y2638793D01*
X7647170Y2620319D01*
X7628696Y2611084D01*
X7600988Y2611084D01*
X7582514Y2620319D01*
X7564043Y2638793D01*
X7429192Y2805046D02*
G01*
X7447663Y2805046D01*
X7466136Y2795811D01*
X7475374Y2768102D01*
X7475374Y2611084D01*
X7503083Y2740393D02*
G01*
X7438428Y2740393D01*
X7294341Y2805046D02*
G01*
X7312814Y2805046D01*
X7331285Y2795811D01*
X7340523Y2768102D01*
X7340523Y2611084D01*
X7368232Y2740393D02*
G01*
X7303576Y2740393D01*
X7233381Y2805046D02*
G01*
X7224143Y2795811D01*
X7214908Y2805046D01*
X7224143Y2814284D01*
X7233381Y2805046D01*
X7224143Y2740393D02*
G01*
X7224143Y2611084D01*
X7043112Y2712684D02*
G01*
X7061583Y2731155D01*
X7080056Y2740393D01*
X7107765Y2740393D01*
X7126239Y2731155D01*
X7144712Y2712684D01*
X7153948Y2684975D01*
X7153948Y2666502D01*
X7144712Y2638793D01*
X7126239Y2620319D01*
X7107765Y2611084D01*
X7080056Y2611084D01*
X7061583Y2620319D01*
X7043112Y2638793D01*
X6839912Y2805046D02*
G01*
X6839912Y2611084D01*
X6839912Y2611084D02*
G01*
X6729074Y2611084D01*
X6668114Y2805046D02*
G01*
X6658879Y2795811D01*
X6649643Y2805046D01*
X6658879Y2814284D01*
X6668114Y2805046D01*
X6658879Y2740393D02*
G01*
X6658879Y2611084D01*
X6477845Y2740393D02*
G01*
X6477845Y2592611D01*
X6487083Y2564902D01*
X6496319Y2555664D01*
X6514792Y2546428D01*
X6542501Y2546428D01*
X6560974Y2555664D01*
X6477845Y2712684D02*
G01*
X6496319Y2731155D01*
X6514792Y2740393D01*
X6542501Y2740393D01*
X6560974Y2731155D01*
X6579445Y2712684D01*
X6588683Y2684975D01*
X6588683Y2666502D01*
X6579445Y2638793D01*
X6560974Y2620319D01*
X6542501Y2611084D01*
X6514792Y2611084D01*
X6496319Y2620319D01*
X6477845Y2638793D01*
X6416885Y2805046D02*
G01*
X6416885Y2611084D01*
X6416885Y2703446D02*
G01*
X6389176Y2731155D01*
X6370703Y2740393D01*
X6342994Y2740393D01*
X6324523Y2731155D01*
X6315285Y2703446D01*
X6315285Y2611084D01*
X6226616Y2805046D02*
G01*
X6226616Y2648028D01*
X6217381Y2620319D01*
X6198908Y2611084D01*
X6180434Y2611084D01*
X6254325Y2740393D02*
G01*
X6189672Y2740393D01*
X5977234Y2805046D02*
G01*
X5977234Y2611084D01*
X5977234Y2611084D02*
G01*
X5866399Y2611084D01*
X5805439Y2805046D02*
G01*
X5805439Y2611084D01*
X5805439Y2805046D02*
G01*
X5685365Y2805046D01*
X5805439Y2712684D02*
G01*
X5731548Y2712684D01*
X5805439Y2611084D02*
G01*
X5685365Y2611084D01*
X5624405Y2805046D02*
G01*
X5624405Y2611084D01*
X5624405Y2805046D02*
G01*
X5559752Y2805046D01*
X5532043Y2795811D01*
X5513570Y2777337D01*
X5504334Y2758864D01*
X5495096Y2731155D01*
X5495096Y2684975D01*
X5504334Y2657264D01*
X5513570Y2638793D01*
X5532043Y2620319D01*
X5559752Y2611084D01*
X5624405Y2611084D01*
X5291896Y2805046D02*
G01*
X5291896Y2611084D01*
X5291896Y2805046D02*
G01*
X5208770Y2805046D01*
X5181061Y2795811D01*
X5171823Y2786575D01*
X5162588Y2768102D01*
X5162588Y2749628D01*
X5171823Y2731155D01*
X5181061Y2721919D01*
X5208770Y2712684D01*
X5291896Y2712684D02*
G01*
X5208770Y2712684D01*
X5181061Y2703446D01*
X5171823Y2694211D01*
X5162588Y2675737D01*
X5162588Y2648028D01*
X5171823Y2629555D01*
X5181061Y2620319D01*
X5208770Y2611084D01*
X5291896Y2611084D01*
X5055445Y2740393D02*
G01*
X5073919Y2731155D01*
X5092392Y2712684D01*
X5101628Y2684975D01*
X5101628Y2666502D01*
X5092392Y2638793D01*
X5073919Y2620319D01*
X5055445Y2611084D01*
X5027736Y2611084D01*
X5009263Y2620319D01*
X4990792Y2638793D01*
X4981554Y2666502D01*
X4981554Y2684975D01*
X4990792Y2712684D01*
X5009263Y2731155D01*
X5027736Y2740393D01*
X5055445Y2740393D01*
X4809759Y2740393D02*
G01*
X4809759Y2611084D01*
X4809759Y2712684D02*
G01*
X4828232Y2731155D01*
X4846703Y2740393D01*
X4874414Y2740393D01*
X4892885Y2731155D01*
X4911359Y2712684D01*
X4920594Y2684975D01*
X4920594Y2666502D01*
X4911359Y2638793D01*
X4892885Y2620319D01*
X4874414Y2611084D01*
X4846703Y2611084D01*
X4828232Y2620319D01*
X4809759Y2638793D01*
X4748799Y2740393D02*
G01*
X4748799Y2611084D01*
X4748799Y2684975D02*
G01*
X4739563Y2712684D01*
X4721090Y2731155D01*
X4702616Y2740393D01*
X4674908Y2740393D01*
X4503112Y2805046D02*
G01*
X4503112Y2611084D01*
X4503112Y2712684D02*
G01*
X4521583Y2731155D01*
X4540056Y2740393D01*
X4567765Y2740393D01*
X4586239Y2731155D01*
X4604712Y2712684D01*
X4613948Y2684975D01*
X4613948Y2666502D01*
X4604712Y2638793D01*
X4586239Y2620319D01*
X4567765Y2611084D01*
X4540056Y2611084D01*
X4521583Y2620319D01*
X4503112Y2638793D01*
X8000009Y2305042D02*
G01*
X7926118Y2111080D01*
X7852227Y2305042D02*
G01*
X7926118Y2111080D01*
X7791267Y2184971D02*
G01*
X7680431Y2184971D01*
X7680431Y2203442D01*
X7689667Y2221915D01*
X7698905Y2231151D01*
X7717375Y2240389D01*
X7745084Y2240389D01*
X7763558Y2231151D01*
X7782031Y2212680D01*
X7791267Y2184971D01*
X7791267Y2166498D01*
X7782031Y2138789D01*
X7763558Y2120315D01*
X7745084Y2111080D01*
X7717375Y2111080D01*
X7698905Y2120315D01*
X7680431Y2138789D01*
X7619471Y2240389D02*
G01*
X7619471Y2111080D01*
X7619471Y2184971D02*
G01*
X7610233Y2212680D01*
X7591762Y2231151D01*
X7573289Y2240389D01*
X7545580Y2240389D01*
X7383020Y2212680D02*
G01*
X7392255Y2231151D01*
X7419964Y2240389D01*
X7447673Y2240389D01*
X7475385Y2231151D01*
X7484620Y2212680D01*
X7475385Y2194206D01*
X7456911Y2184971D01*
X7410729Y2175733D01*
X7392255Y2166498D01*
X7383020Y2148024D01*
X7383020Y2138789D01*
X7392255Y2120315D01*
X7419964Y2111080D01*
X7447673Y2111080D01*
X7475385Y2120315D01*
X7484620Y2138789D01*
X7322060Y2305042D02*
G01*
X7312825Y2295806D01*
X7303587Y2305042D01*
X7312825Y2314280D01*
X7322060Y2305042D01*
X7312825Y2240389D02*
G01*
X7312825Y2111080D01*
X7196444Y2240389D02*
G01*
X7214918Y2231151D01*
X7233391Y2212680D01*
X7242627Y2184971D01*
X7242627Y2166498D01*
X7233391Y2138789D01*
X7214918Y2120315D01*
X7196444Y2111080D01*
X7168735Y2111080D01*
X7150265Y2120315D01*
X7131791Y2138789D01*
X7122553Y2166498D01*
X7122553Y2184971D01*
X7131791Y2212680D01*
X7150265Y2231151D01*
X7168735Y2240389D01*
X7196444Y2240389D01*
X7061593Y2240389D02*
G01*
X7061593Y2111080D01*
X7061593Y2203442D02*
G01*
X7033884Y2231151D01*
X7015413Y2240389D01*
X6987705Y2240389D01*
X6969231Y2231151D01*
X6959993Y2203442D01*
X6959993Y2111080D01*
X6756793Y2268098D02*
G01*
X6738322Y2277333D01*
X6710613Y2305042D01*
X6710613Y2111080D01*
X6640415Y2157260D02*
G01*
X6649653Y2148024D01*
X6640415Y2138789D01*
X6631180Y2148024D01*
X6640415Y2157260D01*
X6570220Y2268098D02*
G01*
X6551747Y2277333D01*
X6524038Y2305042D01*
X6524038Y2111080D01*
X7999999Y1805045D02*
G01*
X7999999Y1611083D01*
X7999999Y1805045D02*
G01*
X7935343Y1805045D01*
X7907634Y1795810D01*
X7889163Y1777337D01*
X7879925Y1758863D01*
X7870690Y1731154D01*
X7870690Y1684975D01*
X7879925Y1657263D01*
X7889163Y1638792D01*
X7907634Y1620319D01*
X7935343Y1611083D01*
X7999999Y1611083D01*
X7698894Y1740392D02*
G01*
X7698894Y1611083D01*
X7698894Y1712683D02*
G01*
X7717365Y1731154D01*
X7735839Y1740392D01*
X7763548Y1740392D01*
X7782021Y1731154D01*
X7800494Y1712683D01*
X7809730Y1684975D01*
X7809730Y1666501D01*
X7800494Y1638792D01*
X7782021Y1620319D01*
X7763548Y1611083D01*
X7735839Y1611083D01*
X7717365Y1620319D01*
X7698894Y1638792D01*
X7610223Y1805045D02*
G01*
X7610223Y1648028D01*
X7600988Y1620319D01*
X7582514Y1611083D01*
X7564043Y1611083D01*
X7637934Y1740392D02*
G01*
X7573279Y1740392D01*
X7503083Y1684975D02*
G01*
X7392245Y1684975D01*
X7392245Y1703445D01*
X7401483Y1721919D01*
X7410719Y1731154D01*
X7429192Y1740392D01*
X7456901Y1740392D01*
X7475374Y1731154D01*
X7493845Y1712683D01*
X7503083Y1684975D01*
X7503083Y1666501D01*
X7493845Y1638792D01*
X7475374Y1620319D01*
X7456901Y1611083D01*
X7429192Y1611083D01*
X7410719Y1620319D01*
X7392245Y1638792D01*
X7322050Y1721919D02*
G01*
X7331285Y1712683D01*
X7322050Y1703445D01*
X7312814Y1712683D01*
X7322050Y1721919D01*
X7322050Y1657263D02*
G01*
X7331285Y1648028D01*
X7322050Y1638792D01*
X7312814Y1648028D01*
X7322050Y1657263D01*
X7870690Y1277338D02*
G01*
X7889163Y1295811D01*
X7916872Y1305046D01*
X7953816Y1305046D01*
X7981525Y1295811D01*
X7999999Y1277338D01*
X7999999Y1258864D01*
X7990763Y1240393D01*
X7981525Y1231155D01*
X7963054Y1221920D01*
X7907634Y1203446D01*
X7889163Y1194211D01*
X7879925Y1184976D01*
X7870690Y1166502D01*
X7870690Y1138793D01*
X7889163Y1120320D01*
X7916872Y1111084D01*
X7953816Y1111084D01*
X7981525Y1120320D01*
X7999999Y1138793D01*
X7809730Y1305046D02*
G01*
X7809730Y1111084D01*
X7809730Y1305046D02*
G01*
X7680421Y1111084D01*
X7680421Y1305046D02*
G01*
X7680421Y1111084D01*
X7610223Y1221920D02*
G01*
X7619461Y1212684D01*
X7610223Y1203446D01*
X7600988Y1212684D01*
X7610223Y1221920D01*
X7610223Y1157264D02*
G01*
X7619461Y1148029D01*
X7610223Y1138793D01*
X7600988Y1148029D01*
X7610223Y1157264D01*
D19*
X577989Y3410572D02*
G01*
X572655Y3400158D01*
X562241Y3389744D01*
X552081Y3384664D01*
X531253Y3384664D01*
X520839Y3389744D01*
X510425Y3400158D01*
X505091Y3410572D01*
X500011Y3426320D01*
X500011Y3452228D01*
X505091Y3467722D01*
X510425Y3478136D01*
X520839Y3488550D01*
X531253Y3493632D01*
X552081Y3493630D01*
X562241Y3488550D01*
X572655Y3478136D01*
X577989Y3467722D01*
X617359Y3410572D02*
G01*
X617359Y3405492D01*
X622693Y3395078D01*
X627773Y3389744D01*
X638187Y3384664D01*
X659015Y3384664D01*
X669429Y3389741D01*
X674509Y3395078D01*
X679843Y3405492D01*
X679843Y3415906D01*
X674509Y3426320D01*
X664095Y3441814D01*
X612279Y3493630D01*
X684921Y3493630D01*
X781697Y3400158D02*
G01*
X776363Y3389744D01*
X760869Y3384664D01*
X750455Y3384664D01*
X734961Y3389744D01*
X724547Y3405492D01*
X719213Y3431400D01*
X719213Y3457308D01*
X724547Y3478136D01*
X734959Y3488550D01*
X750455Y3493630D01*
X755535Y3493630D01*
X771283Y3488550D01*
X781697Y3478136D01*
X786777Y3462642D01*
X786777Y3457308D01*
X781697Y3441814D01*
X771283Y3431400D01*
X755535Y3426320D01*
X750455Y3426320D01*
X734959Y3431400D01*
X724547Y3441814D01*
X719213Y3457308D01*
X2332281Y2405745D02*
G01*
X2273371Y2346835D01*
X2266185Y2332108D01*
X2266005Y2324745D01*
X2269777Y2313787D01*
X2277143Y2306424D01*
X2288098Y2302652D01*
X2295461Y2302832D01*
X2310188Y2310015D01*
X2317551Y2317381D01*
X2293307Y2415265D02*
G01*
X2289535Y2426220D01*
X2289713Y2448313D01*
X2212484Y2371082D01*
X6167899Y6094328D02*
G01*
X6226629Y6153061D01*
X6233815Y6167788D01*
X6233995Y6175151D01*
X6230223Y6186109D01*
X6222860Y6193472D01*
X6211902Y6197244D01*
X6204539Y6197064D01*
X6189812Y6189878D01*
X6182448Y6182514D01*
X6214059Y6084811D02*
G01*
X6210467Y6081219D01*
X6206873Y6070081D01*
X6206695Y6062718D01*
X6210467Y6051763D01*
X6225194Y6037036D01*
X6236149Y6033264D01*
X6243513Y6033442D01*
X6254648Y6037036D01*
X6261834Y6044219D01*
X6265425Y6055354D01*
X6269197Y6073853D01*
X6269197Y6147132D01*
X6320563Y6095766D01*
G36*
X4999990Y1950008D02*
G01*
X4999990Y1550009D01*
X7199985Y1550009D01*
X7199985Y1950008D01*
G37*
G36*
X4999990Y1449984D02*
G01*
X4999990Y1049985D01*
X7199985Y1049985D01*
X7199985Y1449984D01*
G37*
G36*
X1605584Y3355594D02*
G01*
X1605584Y2644394D01*
X1732584Y2847594D01*
X1757984Y2949194D01*
X1732584Y3101594D01*
X1681784Y3253994D01*
G37*
D10*
X970600Y2771399D02*
G01*
X1072200Y2771399D01*
X1021400Y2720599D02*
G01*
X1021400Y2822199D01*
X2618734Y1876242D02*
G01*
X1876272Y2618704D01*
X2618734Y1876244D02*
G01*
X2130828Y1388341D01*
X1876275Y2618704D02*
G01*
X1388371Y2130798D01*
X2130828Y1388341D02*
G01*
X1388371Y2130798D01*
X2477678Y1735190D02*
G01*
X1735221Y2477648D01*
X2251509Y1509019D02*
G01*
X1509052Y2251478D01*
X2130828Y1388341D02*
G01*
X2162652Y1356517D01*
X2219223Y1413088D01*
X2187399Y1444909D01*
X1872739Y2622240D02*
G01*
X1840915Y2654061D01*
X1784344Y2597492D01*
X1816168Y2565669D01*
X5881400Y6623867D02*
G01*
X6623862Y5881405D01*
X5881400Y6623865D02*
G01*
X6369306Y7111768D01*
X6623860Y5881405D02*
G01*
X7111763Y6369311D01*
X6369306Y7111768D02*
G01*
X7111763Y6369311D01*
X6022456Y6764919D02*
G01*
X6764914Y6022461D01*
X6248626Y6991090D02*
G01*
X6991083Y6248631D01*
X6369306Y7111768D02*
G01*
X6337482Y7143592D01*
X6280911Y7087021D01*
X6312735Y7055200D01*
X6627395Y5877869D02*
G01*
X6659219Y5846048D01*
X6715790Y5902617D01*
X6683966Y5934440D01*
G75*
G01
X1749882Y2999994D02*
G03X1749882Y2999994I-499872J0D01*
M02*
