G04 Layer: TopSilkLayer*
G04 EasyEDA v6.4.25, 2022-01-30T22:18:30+11:00*
G04 a67cddfb3fce44daa9051d46cbbcc19f,10*
G04 Gerber Generator version 0.2*
G04 Scale: 100 percent, Rotated: No, Reflected: No *
G04 Dimensions in millimeters *
G04 leading zeros omitted , absolute positions ,4 integer and 5 decimal *
%FSLAX45Y45*%
%MOMM*%

%ADD10C,0.2540*%
%ADD19C,0.1524*%

%LPD*%
D19*
X4050029Y1715262D02*
G01*
X4050029Y1606295D01*
X4050029Y1606295D02*
G01*
X4112259Y1606295D01*
X4146550Y1715262D02*
G01*
X4146550Y1606295D01*
X4146550Y1715262D02*
G01*
X4214113Y1715262D01*
X4146550Y1663445D02*
G01*
X4188206Y1663445D01*
X4146550Y1606295D02*
G01*
X4214113Y1606295D01*
X4248404Y1715262D02*
G01*
X4248404Y1606295D01*
X4248404Y1715262D02*
G01*
X4284725Y1715262D01*
X4300474Y1710181D01*
X4310888Y1699768D01*
X4315968Y1689354D01*
X4321302Y1673860D01*
X4321302Y1647697D01*
X4315968Y1632204D01*
X4310888Y1621789D01*
X4300474Y1611376D01*
X4284725Y1606295D01*
X4248404Y1606295D01*
X4355591Y1694434D02*
G01*
X4366006Y1699768D01*
X4381500Y1715262D01*
X4381500Y1606295D01*
X3050031Y2715260D02*
G01*
X3050031Y2606294D01*
X3050031Y2606294D02*
G01*
X3112261Y2606294D01*
X3146552Y2715260D02*
G01*
X3146552Y2606294D01*
X3146552Y2715260D02*
G01*
X3214115Y2715260D01*
X3146552Y2663444D02*
G01*
X3188208Y2663444D01*
X3146552Y2606294D02*
G01*
X3214115Y2606294D01*
X3248406Y2715260D02*
G01*
X3248406Y2606294D01*
X3248406Y2715260D02*
G01*
X3284727Y2715260D01*
X3300475Y2710179D01*
X3310890Y2699765D01*
X3315970Y2689352D01*
X3321304Y2673857D01*
X3321304Y2647695D01*
X3315970Y2632202D01*
X3310890Y2621787D01*
X3300475Y2611373D01*
X3284727Y2606294D01*
X3248406Y2606294D01*
X3360674Y2689352D02*
G01*
X3360674Y2694431D01*
X3366008Y2704845D01*
X3371088Y2710179D01*
X3381502Y2715260D01*
X3402329Y2715260D01*
X3412743Y2710179D01*
X3417824Y2704845D01*
X3423158Y2694431D01*
X3423158Y2684271D01*
X3417824Y2673857D01*
X3407409Y2658110D01*
X3355593Y2606294D01*
X3428238Y2606294D01*
X4050029Y2715260D02*
G01*
X4050029Y2606294D01*
X4050029Y2606294D02*
G01*
X4112259Y2606294D01*
X4146550Y2715260D02*
G01*
X4146550Y2606294D01*
X4146550Y2715260D02*
G01*
X4214113Y2715260D01*
X4146550Y2663444D02*
G01*
X4188206Y2663444D01*
X4146550Y2606294D02*
G01*
X4214113Y2606294D01*
X4248404Y2715260D02*
G01*
X4248404Y2606294D01*
X4248404Y2715260D02*
G01*
X4284725Y2715260D01*
X4300474Y2710179D01*
X4310888Y2699765D01*
X4315968Y2689352D01*
X4321302Y2673857D01*
X4321302Y2647695D01*
X4315968Y2632202D01*
X4310888Y2621787D01*
X4300474Y2611373D01*
X4284725Y2606294D01*
X4248404Y2606294D01*
X4366006Y2715260D02*
G01*
X4423156Y2715260D01*
X4391913Y2673857D01*
X4407408Y2673857D01*
X4417822Y2668523D01*
X4423156Y2663444D01*
X4428236Y2647695D01*
X4428236Y2637281D01*
X4423156Y2621787D01*
X4412741Y2611373D01*
X4396993Y2606294D01*
X4381500Y2606294D01*
X4366006Y2611373D01*
X4360672Y2616707D01*
X4355591Y2627121D01*
X4999990Y2665221D02*
G01*
X4999990Y2556255D01*
X4999990Y2556255D02*
G01*
X5062220Y2556255D01*
X5096509Y2665221D02*
G01*
X5096509Y2556255D01*
X5096509Y2665221D02*
G01*
X5164074Y2665221D01*
X5096509Y2613405D02*
G01*
X5138165Y2613405D01*
X5096509Y2556255D02*
G01*
X5164074Y2556255D01*
X5198363Y2665221D02*
G01*
X5198363Y2556255D01*
X5198363Y2665221D02*
G01*
X5234940Y2665221D01*
X5250434Y2660142D01*
X5260847Y2649728D01*
X5265927Y2639313D01*
X5271261Y2623820D01*
X5271261Y2597912D01*
X5265927Y2582163D01*
X5260847Y2571750D01*
X5250434Y2561336D01*
X5234940Y2556255D01*
X5198363Y2556255D01*
X5357368Y2665221D02*
G01*
X5305552Y2592578D01*
X5383529Y2592578D01*
X5357368Y2665221D02*
G01*
X5357368Y2556255D01*
X6050025Y3715257D02*
G01*
X6050025Y3606292D01*
X6050025Y3606292D02*
G01*
X6112256Y3606292D01*
X6146545Y3715257D02*
G01*
X6146545Y3606292D01*
X6146545Y3715257D02*
G01*
X6214109Y3715257D01*
X6146545Y3663442D02*
G01*
X6188202Y3663442D01*
X6146545Y3606292D02*
G01*
X6214109Y3606292D01*
X6248400Y3715257D02*
G01*
X6248400Y3606292D01*
X6248400Y3715257D02*
G01*
X6284722Y3715257D01*
X6300470Y3710178D01*
X6310884Y3699763D01*
X6315963Y3689350D01*
X6321297Y3673855D01*
X6321297Y3647694D01*
X6315963Y3632200D01*
X6310884Y3621786D01*
X6300470Y3611371D01*
X6284722Y3606292D01*
X6248400Y3606292D01*
X6417818Y3715257D02*
G01*
X6366002Y3715257D01*
X6360668Y3668521D01*
X6366002Y3673855D01*
X6381495Y3678936D01*
X6396990Y3678936D01*
X6412738Y3673855D01*
X6423152Y3663442D01*
X6428231Y3647694D01*
X6428231Y3637279D01*
X6423152Y3621786D01*
X6412738Y3611371D01*
X6396990Y3606292D01*
X6381495Y3606292D01*
X6366002Y3611371D01*
X6360668Y3616705D01*
X6355588Y3627120D01*
X5050027Y3715257D02*
G01*
X5050027Y3606292D01*
X5050027Y3606292D02*
G01*
X5112258Y3606292D01*
X5146547Y3715257D02*
G01*
X5146547Y3606292D01*
X5146547Y3715257D02*
G01*
X5214111Y3715257D01*
X5146547Y3663442D02*
G01*
X5188204Y3663442D01*
X5146547Y3606292D02*
G01*
X5214111Y3606292D01*
X5248402Y3715257D02*
G01*
X5248402Y3606292D01*
X5248402Y3715257D02*
G01*
X5284724Y3715257D01*
X5300472Y3710178D01*
X5310886Y3699763D01*
X5315965Y3689350D01*
X5321300Y3673855D01*
X5321300Y3647694D01*
X5315965Y3632200D01*
X5310886Y3621786D01*
X5300472Y3611371D01*
X5284724Y3606292D01*
X5248402Y3606292D01*
X5417820Y3699763D02*
G01*
X5412740Y3710178D01*
X5396991Y3715257D01*
X5386577Y3715257D01*
X5371084Y3710178D01*
X5360670Y3694429D01*
X5355590Y3668521D01*
X5355590Y3642613D01*
X5360670Y3621786D01*
X5371084Y3611371D01*
X5386577Y3606292D01*
X5391911Y3606292D01*
X5407406Y3611371D01*
X5417820Y3621786D01*
X5423154Y3637279D01*
X5423154Y3642613D01*
X5417820Y3658107D01*
X5407406Y3668521D01*
X5391911Y3673855D01*
X5386577Y3673855D01*
X5371084Y3668521D01*
X5360670Y3658107D01*
X5355590Y3642613D01*
X4050029Y3715257D02*
G01*
X4050029Y3606292D01*
X4050029Y3606292D02*
G01*
X4112259Y3606292D01*
X4146550Y3715257D02*
G01*
X4146550Y3606292D01*
X4146550Y3715257D02*
G01*
X4214113Y3715257D01*
X4146550Y3663442D02*
G01*
X4188206Y3663442D01*
X4146550Y3606292D02*
G01*
X4214113Y3606292D01*
X4248404Y3715257D02*
G01*
X4248404Y3606292D01*
X4248404Y3715257D02*
G01*
X4284725Y3715257D01*
X4300474Y3710178D01*
X4310888Y3699763D01*
X4315968Y3689350D01*
X4321302Y3673855D01*
X4321302Y3647694D01*
X4315968Y3632200D01*
X4310888Y3621786D01*
X4300474Y3611371D01*
X4284725Y3606292D01*
X4248404Y3606292D01*
X4428236Y3715257D02*
G01*
X4376165Y3606292D01*
X4355591Y3715257D02*
G01*
X4428236Y3715257D01*
X3050031Y3715257D02*
G01*
X3050031Y3606292D01*
X3050031Y3606292D02*
G01*
X3112261Y3606292D01*
X3146552Y3715257D02*
G01*
X3146552Y3606292D01*
X3146552Y3715257D02*
G01*
X3214115Y3715257D01*
X3146552Y3663442D02*
G01*
X3188208Y3663442D01*
X3146552Y3606292D02*
G01*
X3214115Y3606292D01*
X3248406Y3715257D02*
G01*
X3248406Y3606292D01*
X3248406Y3715257D02*
G01*
X3284727Y3715257D01*
X3300475Y3710178D01*
X3310890Y3699763D01*
X3315970Y3689350D01*
X3321304Y3673855D01*
X3321304Y3647694D01*
X3315970Y3632200D01*
X3310890Y3621786D01*
X3300475Y3611371D01*
X3284727Y3606292D01*
X3248406Y3606292D01*
X3381502Y3715257D02*
G01*
X3366008Y3710178D01*
X3360674Y3699763D01*
X3360674Y3689350D01*
X3366008Y3678936D01*
X3376168Y3673855D01*
X3396995Y3668521D01*
X3412743Y3663442D01*
X3423158Y3653028D01*
X3428238Y3642613D01*
X3428238Y3627120D01*
X3423158Y3616705D01*
X3417824Y3611371D01*
X3402329Y3606292D01*
X3381502Y3606292D01*
X3366008Y3611371D01*
X3360674Y3616705D01*
X3355593Y3627120D01*
X3355593Y3642613D01*
X3360674Y3653028D01*
X3371088Y3663442D01*
X3386581Y3668521D01*
X3407409Y3673855D01*
X3417824Y3678936D01*
X3423158Y3689350D01*
X3423158Y3699763D01*
X3417824Y3710178D01*
X3402329Y3715257D01*
X3381502Y3715257D01*
X2050034Y3715257D02*
G01*
X2050034Y3606292D01*
X2050034Y3606292D02*
G01*
X2112263Y3606292D01*
X2146554Y3715257D02*
G01*
X2146554Y3606292D01*
X2146554Y3715257D02*
G01*
X2214118Y3715257D01*
X2146554Y3663442D02*
G01*
X2188209Y3663442D01*
X2146554Y3606292D02*
G01*
X2214118Y3606292D01*
X2248408Y3715257D02*
G01*
X2248408Y3606292D01*
X2248408Y3715257D02*
G01*
X2284729Y3715257D01*
X2300477Y3710178D01*
X2310891Y3699763D01*
X2315972Y3689350D01*
X2321306Y3673855D01*
X2321306Y3647694D01*
X2315972Y3632200D01*
X2310891Y3621786D01*
X2300477Y3611371D01*
X2284729Y3606292D01*
X2248408Y3606292D01*
X2423159Y3678936D02*
G01*
X2417825Y3663442D01*
X2407411Y3653028D01*
X2391918Y3647694D01*
X2386584Y3647694D01*
X2371090Y3653028D01*
X2360675Y3663442D01*
X2355595Y3678936D01*
X2355595Y3684270D01*
X2360675Y3699763D01*
X2371090Y3710178D01*
X2386584Y3715257D01*
X2391918Y3715257D01*
X2407411Y3710178D01*
X2417825Y3699763D01*
X2423159Y3678936D01*
X2423159Y3653028D01*
X2417825Y3627120D01*
X2407411Y3611371D01*
X2391918Y3606292D01*
X2381504Y3606292D01*
X2366009Y3611371D01*
X2360675Y3621786D01*
X1050036Y4715255D02*
G01*
X1050036Y4606289D01*
X1050036Y4606289D02*
G01*
X1112265Y4606289D01*
X1146555Y4715255D02*
G01*
X1146555Y4606289D01*
X1146555Y4715255D02*
G01*
X1214120Y4715255D01*
X1146555Y4663439D02*
G01*
X1188212Y4663439D01*
X1146555Y4606289D02*
G01*
X1214120Y4606289D01*
X1248410Y4715255D02*
G01*
X1248410Y4606289D01*
X1248410Y4715255D02*
G01*
X1284731Y4715255D01*
X1300479Y4710176D01*
X1310894Y4699762D01*
X1315973Y4689347D01*
X1321307Y4673854D01*
X1321307Y4647692D01*
X1315973Y4632197D01*
X1310894Y4621784D01*
X1300479Y4611370D01*
X1284731Y4606289D01*
X1248410Y4606289D01*
X1355597Y4694428D02*
G01*
X1366012Y4699762D01*
X1381505Y4715255D01*
X1381505Y4606289D01*
X1447037Y4715255D02*
G01*
X1431289Y4710176D01*
X1420876Y4694428D01*
X1415795Y4668520D01*
X1415795Y4653026D01*
X1420876Y4627118D01*
X1431289Y4611370D01*
X1447037Y4606289D01*
X1457452Y4606289D01*
X1472945Y4611370D01*
X1483360Y4627118D01*
X1488439Y4653026D01*
X1488439Y4668520D01*
X1483360Y4694428D01*
X1472945Y4710176D01*
X1457452Y4715255D01*
X1447037Y4715255D01*
X2050034Y4715255D02*
G01*
X2050034Y4606289D01*
X2050034Y4606289D02*
G01*
X2112263Y4606289D01*
X2146554Y4715255D02*
G01*
X2146554Y4606289D01*
X2146554Y4715255D02*
G01*
X2214118Y4715255D01*
X2146554Y4663439D02*
G01*
X2188209Y4663439D01*
X2146554Y4606289D02*
G01*
X2214118Y4606289D01*
X2248408Y4715255D02*
G01*
X2248408Y4606289D01*
X2248408Y4715255D02*
G01*
X2284729Y4715255D01*
X2300477Y4710176D01*
X2310891Y4699762D01*
X2315972Y4689347D01*
X2321306Y4673854D01*
X2321306Y4647692D01*
X2315972Y4632197D01*
X2310891Y4621784D01*
X2300477Y4611370D01*
X2284729Y4606289D01*
X2248408Y4606289D01*
X2355595Y4694428D02*
G01*
X2366009Y4699762D01*
X2381504Y4715255D01*
X2381504Y4606289D01*
X2415793Y4694428D02*
G01*
X2426208Y4699762D01*
X2441702Y4715255D01*
X2441702Y4606289D01*
X3050031Y4715255D02*
G01*
X3050031Y4606289D01*
X3050031Y4606289D02*
G01*
X3112261Y4606289D01*
X3146552Y4715255D02*
G01*
X3146552Y4606289D01*
X3146552Y4715255D02*
G01*
X3214115Y4715255D01*
X3146552Y4663439D02*
G01*
X3188208Y4663439D01*
X3146552Y4606289D02*
G01*
X3214115Y4606289D01*
X3248406Y4715255D02*
G01*
X3248406Y4606289D01*
X3248406Y4715255D02*
G01*
X3284727Y4715255D01*
X3300475Y4710176D01*
X3310890Y4699762D01*
X3315970Y4689347D01*
X3321304Y4673854D01*
X3321304Y4647692D01*
X3315970Y4632197D01*
X3310890Y4621784D01*
X3300475Y4611370D01*
X3284727Y4606289D01*
X3248406Y4606289D01*
X3355593Y4694428D02*
G01*
X3366008Y4699762D01*
X3381502Y4715255D01*
X3381502Y4606289D01*
X3420872Y4689347D02*
G01*
X3420872Y4694428D01*
X3426206Y4704842D01*
X3431286Y4710176D01*
X3441700Y4715255D01*
X3462527Y4715255D01*
X3472941Y4710176D01*
X3478022Y4704842D01*
X3483356Y4694428D01*
X3483356Y4684268D01*
X3478022Y4673854D01*
X3467608Y4658105D01*
X3415791Y4606289D01*
X3488436Y4606289D01*
X4050029Y4715255D02*
G01*
X4050029Y4606289D01*
X4050029Y4606289D02*
G01*
X4112259Y4606289D01*
X4146550Y4715255D02*
G01*
X4146550Y4606289D01*
X4146550Y4715255D02*
G01*
X4214113Y4715255D01*
X4146550Y4663439D02*
G01*
X4188206Y4663439D01*
X4146550Y4606289D02*
G01*
X4214113Y4606289D01*
X4248404Y4715255D02*
G01*
X4248404Y4606289D01*
X4248404Y4715255D02*
G01*
X4284725Y4715255D01*
X4300474Y4710176D01*
X4310888Y4699762D01*
X4315968Y4689347D01*
X4321302Y4673854D01*
X4321302Y4647692D01*
X4315968Y4632197D01*
X4310888Y4621784D01*
X4300474Y4611370D01*
X4284725Y4606289D01*
X4248404Y4606289D01*
X4355591Y4694428D02*
G01*
X4366006Y4699762D01*
X4381500Y4715255D01*
X4381500Y4606289D01*
X4426204Y4715255D02*
G01*
X4483354Y4715255D01*
X4452111Y4673854D01*
X4467606Y4673854D01*
X4478020Y4668520D01*
X4483354Y4663439D01*
X4488434Y4647692D01*
X4488434Y4637278D01*
X4483354Y4621784D01*
X4472940Y4611370D01*
X4457445Y4606289D01*
X4441697Y4606289D01*
X4426204Y4611370D01*
X4420870Y4616704D01*
X4415790Y4627118D01*
X5050027Y4715255D02*
G01*
X5050027Y4606289D01*
X5050027Y4606289D02*
G01*
X5112258Y4606289D01*
X5146547Y4715255D02*
G01*
X5146547Y4606289D01*
X5146547Y4715255D02*
G01*
X5214111Y4715255D01*
X5146547Y4663439D02*
G01*
X5188204Y4663439D01*
X5146547Y4606289D02*
G01*
X5214111Y4606289D01*
X5248402Y4715255D02*
G01*
X5248402Y4606289D01*
X5248402Y4715255D02*
G01*
X5284724Y4715255D01*
X5300472Y4710176D01*
X5310886Y4699762D01*
X5315965Y4689347D01*
X5321300Y4673854D01*
X5321300Y4647692D01*
X5315965Y4632197D01*
X5310886Y4621784D01*
X5300472Y4611370D01*
X5284724Y4606289D01*
X5248402Y4606289D01*
X5355590Y4694428D02*
G01*
X5366004Y4699762D01*
X5381497Y4715255D01*
X5381497Y4606289D01*
X5467604Y4715255D02*
G01*
X5415788Y4642612D01*
X5493765Y4642612D01*
X5467604Y4715255D02*
G01*
X5467604Y4606289D01*
X6050025Y4715255D02*
G01*
X6050025Y4606289D01*
X6050025Y4606289D02*
G01*
X6112256Y4606289D01*
X6146545Y4715255D02*
G01*
X6146545Y4606289D01*
X6146545Y4715255D02*
G01*
X6214109Y4715255D01*
X6146545Y4663439D02*
G01*
X6188202Y4663439D01*
X6146545Y4606289D02*
G01*
X6214109Y4606289D01*
X6248400Y4715255D02*
G01*
X6248400Y4606289D01*
X6248400Y4715255D02*
G01*
X6284722Y4715255D01*
X6300470Y4710176D01*
X6310884Y4699762D01*
X6315963Y4689347D01*
X6321297Y4673854D01*
X6321297Y4647692D01*
X6315963Y4632197D01*
X6310884Y4621784D01*
X6300470Y4611370D01*
X6284722Y4606289D01*
X6248400Y4606289D01*
X6355588Y4694428D02*
G01*
X6366002Y4699762D01*
X6381495Y4715255D01*
X6381495Y4606289D01*
X6478015Y4715255D02*
G01*
X6426200Y4715255D01*
X6420865Y4668520D01*
X6426200Y4673854D01*
X6441693Y4678934D01*
X6457441Y4678934D01*
X6472936Y4673854D01*
X6483350Y4663439D01*
X6488429Y4647692D01*
X6488429Y4637278D01*
X6483350Y4621784D01*
X6472936Y4611370D01*
X6457441Y4606289D01*
X6441693Y4606289D01*
X6426200Y4611370D01*
X6420865Y4616704D01*
X6415786Y4627118D01*
X6999986Y4665218D02*
G01*
X6999986Y4556252D01*
X6999986Y4556252D02*
G01*
X7062470Y4556252D01*
X7096759Y4665218D02*
G01*
X7096759Y4556252D01*
X7096759Y4665218D02*
G01*
X7164070Y4665218D01*
X7096759Y4613402D02*
G01*
X7138161Y4613402D01*
X7096759Y4556252D02*
G01*
X7164070Y4556252D01*
X7198359Y4665218D02*
G01*
X7198359Y4556252D01*
X7198359Y4665218D02*
G01*
X7234936Y4665218D01*
X7250429Y4660137D01*
X7260843Y4649723D01*
X7265924Y4639310D01*
X7271258Y4623815D01*
X7271258Y4597907D01*
X7265924Y4582160D01*
X7260843Y4571745D01*
X7250429Y4561331D01*
X7234936Y4556252D01*
X7198359Y4556252D01*
X7305547Y4644644D02*
G01*
X7315961Y4649723D01*
X7331456Y4665218D01*
X7331456Y4556252D01*
X7428229Y4649723D02*
G01*
X7422895Y4660137D01*
X7407402Y4665218D01*
X7396988Y4665218D01*
X7381240Y4660137D01*
X7371079Y4644644D01*
X7365745Y4618481D01*
X7365745Y4592573D01*
X7371079Y4571745D01*
X7381240Y4561331D01*
X7396988Y4556252D01*
X7402068Y4556252D01*
X7417815Y4561331D01*
X7428229Y4571745D01*
X7433309Y4587494D01*
X7433309Y4592573D01*
X7428229Y4608068D01*
X7417815Y4618481D01*
X7402068Y4623815D01*
X7396988Y4623815D01*
X7381240Y4618481D01*
X7371079Y4608068D01*
X7365745Y4592573D01*
X6050025Y5740400D02*
G01*
X6050025Y5631179D01*
X6050025Y5631179D02*
G01*
X6112256Y5631179D01*
X6146545Y5740400D02*
G01*
X6146545Y5631179D01*
X6146545Y5740400D02*
G01*
X6214109Y5740400D01*
X6146545Y5688329D02*
G01*
X6188202Y5688329D01*
X6146545Y5631179D02*
G01*
X6214109Y5631179D01*
X6248400Y5740400D02*
G01*
X6248400Y5631179D01*
X6248400Y5740400D02*
G01*
X6284722Y5740400D01*
X6300470Y5735065D01*
X6310884Y5724652D01*
X6315963Y5714492D01*
X6321297Y5698744D01*
X6321297Y5672836D01*
X6315963Y5657342D01*
X6310884Y5646928D01*
X6300470Y5636513D01*
X6284722Y5631179D01*
X6248400Y5631179D01*
X6355588Y5719571D02*
G01*
X6366002Y5724652D01*
X6381495Y5740400D01*
X6381495Y5631179D01*
X6488429Y5740400D02*
G01*
X6436613Y5631179D01*
X6415786Y5740400D02*
G01*
X6488429Y5740400D01*
X5050027Y5715254D02*
G01*
X5050027Y5606287D01*
X5050027Y5606287D02*
G01*
X5112258Y5606287D01*
X5146547Y5715254D02*
G01*
X5146547Y5606287D01*
X5146547Y5715254D02*
G01*
X5214111Y5715254D01*
X5146547Y5663437D02*
G01*
X5188204Y5663437D01*
X5146547Y5606287D02*
G01*
X5214111Y5606287D01*
X5248402Y5715254D02*
G01*
X5248402Y5606287D01*
X5248402Y5715254D02*
G01*
X5284724Y5715254D01*
X5300472Y5710173D01*
X5310886Y5699760D01*
X5315965Y5689345D01*
X5321300Y5673852D01*
X5321300Y5647689D01*
X5315965Y5632195D01*
X5310886Y5621781D01*
X5300472Y5611368D01*
X5284724Y5606287D01*
X5248402Y5606287D01*
X5355590Y5694426D02*
G01*
X5366004Y5699760D01*
X5381497Y5715254D01*
X5381497Y5606287D01*
X5441695Y5715254D02*
G01*
X5426202Y5710173D01*
X5420868Y5699760D01*
X5420868Y5689345D01*
X5426202Y5678931D01*
X5436615Y5673852D01*
X5457443Y5668518D01*
X5472938Y5663437D01*
X5483352Y5653023D01*
X5488431Y5642610D01*
X5488431Y5627115D01*
X5483352Y5616702D01*
X5478018Y5611368D01*
X5462524Y5606287D01*
X5441695Y5606287D01*
X5426202Y5611368D01*
X5420868Y5616702D01*
X5415788Y5627115D01*
X5415788Y5642610D01*
X5420868Y5653023D01*
X5431281Y5663437D01*
X5447029Y5668518D01*
X5467604Y5673852D01*
X5478018Y5678931D01*
X5483352Y5689345D01*
X5483352Y5699760D01*
X5478018Y5710173D01*
X5462524Y5715254D01*
X5441695Y5715254D01*
X4050029Y5715254D02*
G01*
X4050029Y5606287D01*
X4050029Y5606287D02*
G01*
X4112259Y5606287D01*
X4146550Y5715254D02*
G01*
X4146550Y5606287D01*
X4146550Y5715254D02*
G01*
X4214113Y5715254D01*
X4146550Y5663437D02*
G01*
X4188206Y5663437D01*
X4146550Y5606287D02*
G01*
X4214113Y5606287D01*
X4248404Y5715254D02*
G01*
X4248404Y5606287D01*
X4248404Y5715254D02*
G01*
X4284725Y5715254D01*
X4300474Y5710173D01*
X4310888Y5699760D01*
X4315968Y5689345D01*
X4321302Y5673852D01*
X4321302Y5647689D01*
X4315968Y5632195D01*
X4310888Y5621781D01*
X4300474Y5611368D01*
X4284725Y5606287D01*
X4248404Y5606287D01*
X4355591Y5694426D02*
G01*
X4366006Y5699760D01*
X4381500Y5715254D01*
X4381500Y5606287D01*
X4483354Y5678931D02*
G01*
X4478020Y5663437D01*
X4467606Y5653023D01*
X4452111Y5647689D01*
X4447031Y5647689D01*
X4431284Y5653023D01*
X4420870Y5663437D01*
X4415790Y5678931D01*
X4415790Y5684265D01*
X4420870Y5699760D01*
X4431284Y5710173D01*
X4447031Y5715254D01*
X4452111Y5715254D01*
X4467606Y5710173D01*
X4478020Y5699760D01*
X4483354Y5678931D01*
X4483354Y5653023D01*
X4478020Y5627115D01*
X4467606Y5611368D01*
X4452111Y5606287D01*
X4441697Y5606287D01*
X4426204Y5611368D01*
X4420870Y5621781D01*
X3050031Y5715254D02*
G01*
X3050031Y5606287D01*
X3050031Y5606287D02*
G01*
X3112261Y5606287D01*
X3146552Y5715254D02*
G01*
X3146552Y5606287D01*
X3146552Y5715254D02*
G01*
X3214115Y5715254D01*
X3146552Y5663437D02*
G01*
X3188208Y5663437D01*
X3146552Y5606287D02*
G01*
X3214115Y5606287D01*
X3248406Y5715254D02*
G01*
X3248406Y5606287D01*
X3248406Y5715254D02*
G01*
X3284727Y5715254D01*
X3300475Y5710173D01*
X3310890Y5699760D01*
X3315970Y5689345D01*
X3321304Y5673852D01*
X3321304Y5647689D01*
X3315970Y5632195D01*
X3310890Y5621781D01*
X3300475Y5611368D01*
X3284727Y5606287D01*
X3248406Y5606287D01*
X3360674Y5689345D02*
G01*
X3360674Y5694426D01*
X3366008Y5704839D01*
X3371088Y5710173D01*
X3381502Y5715254D01*
X3402329Y5715254D01*
X3412743Y5710173D01*
X3417824Y5704839D01*
X3423158Y5694426D01*
X3423158Y5684265D01*
X3417824Y5673852D01*
X3407409Y5658104D01*
X3355593Y5606287D01*
X3428238Y5606287D01*
X3493770Y5715254D02*
G01*
X3478022Y5710173D01*
X3467608Y5694426D01*
X3462527Y5668518D01*
X3462527Y5653023D01*
X3467608Y5627115D01*
X3478022Y5611368D01*
X3493770Y5606287D01*
X3504184Y5606287D01*
X3519677Y5611368D01*
X3530091Y5627115D01*
X3535172Y5653023D01*
X3535172Y5668518D01*
X3530091Y5694426D01*
X3519677Y5710173D01*
X3504184Y5715254D01*
X3493770Y5715254D01*
X2050034Y5715254D02*
G01*
X2050034Y5606287D01*
X2050034Y5606287D02*
G01*
X2112263Y5606287D01*
X2146554Y5715254D02*
G01*
X2146554Y5606287D01*
X2146554Y5715254D02*
G01*
X2214118Y5715254D01*
X2146554Y5663437D02*
G01*
X2188209Y5663437D01*
X2146554Y5606287D02*
G01*
X2214118Y5606287D01*
X2248408Y5715254D02*
G01*
X2248408Y5606287D01*
X2248408Y5715254D02*
G01*
X2284729Y5715254D01*
X2300477Y5710173D01*
X2310891Y5699760D01*
X2315972Y5689345D01*
X2321306Y5673852D01*
X2321306Y5647689D01*
X2315972Y5632195D01*
X2310891Y5621781D01*
X2300477Y5611368D01*
X2284729Y5606287D01*
X2248408Y5606287D01*
X2360675Y5689345D02*
G01*
X2360675Y5694426D01*
X2366009Y5704839D01*
X2371090Y5710173D01*
X2381504Y5715254D01*
X2402331Y5715254D01*
X2412745Y5710173D01*
X2417825Y5704839D01*
X2423159Y5694426D01*
X2423159Y5684265D01*
X2417825Y5673852D01*
X2407411Y5658104D01*
X2355595Y5606287D01*
X2428240Y5606287D01*
X2462529Y5694426D02*
G01*
X2472943Y5699760D01*
X2488438Y5715254D01*
X2488438Y5606287D01*
X2999993Y6665213D02*
G01*
X2999993Y6556247D01*
X2999993Y6556247D02*
G01*
X3062224Y6556247D01*
X3096513Y6665213D02*
G01*
X3096513Y6556247D01*
X3096513Y6665213D02*
G01*
X3164077Y6665213D01*
X3096513Y6613397D02*
G01*
X3138170Y6613397D01*
X3096513Y6556247D02*
G01*
X3164077Y6556247D01*
X3198368Y6665213D02*
G01*
X3198368Y6556247D01*
X3198368Y6665213D02*
G01*
X3234943Y6665213D01*
X3250438Y6660134D01*
X3260852Y6649720D01*
X3265931Y6639305D01*
X3271265Y6623812D01*
X3271265Y6597904D01*
X3265931Y6582155D01*
X3260852Y6571742D01*
X3250438Y6561328D01*
X3234943Y6556247D01*
X3198368Y6556247D01*
X3310636Y6639305D02*
G01*
X3310636Y6644639D01*
X3315970Y6655054D01*
X3321050Y6660134D01*
X3331463Y6665213D01*
X3352291Y6665213D01*
X3362706Y6660134D01*
X3367786Y6655054D01*
X3373120Y6644639D01*
X3373120Y6634226D01*
X3367786Y6623812D01*
X3357372Y6608063D01*
X3305556Y6556247D01*
X3378200Y6556247D01*
X3417824Y6639305D02*
G01*
X3417824Y6644639D01*
X3422904Y6655054D01*
X3427984Y6660134D01*
X3438397Y6665213D01*
X3459225Y6665213D01*
X3469640Y6660134D01*
X3474974Y6655054D01*
X3480054Y6644639D01*
X3480054Y6634226D01*
X3474974Y6623812D01*
X3464559Y6608063D01*
X3412490Y6556247D01*
X3485134Y6556247D01*
X4050029Y6715252D02*
G01*
X4050029Y6606286D01*
X4050029Y6606286D02*
G01*
X4112259Y6606286D01*
X4146550Y6715252D02*
G01*
X4146550Y6606286D01*
X4146550Y6715252D02*
G01*
X4214113Y6715252D01*
X4146550Y6663436D02*
G01*
X4188206Y6663436D01*
X4146550Y6606286D02*
G01*
X4214113Y6606286D01*
X4248404Y6715252D02*
G01*
X4248404Y6606286D01*
X4248404Y6715252D02*
G01*
X4284725Y6715252D01*
X4300474Y6710171D01*
X4310888Y6699758D01*
X4315968Y6689344D01*
X4321302Y6673850D01*
X4321302Y6647687D01*
X4315968Y6632194D01*
X4310888Y6621779D01*
X4300474Y6611365D01*
X4284725Y6606286D01*
X4248404Y6606286D01*
X4360672Y6689344D02*
G01*
X4360672Y6694423D01*
X4366006Y6704837D01*
X4371086Y6710171D01*
X4381500Y6715252D01*
X4402327Y6715252D01*
X4412741Y6710171D01*
X4417822Y6704837D01*
X4423156Y6694423D01*
X4423156Y6684263D01*
X4417822Y6673850D01*
X4407408Y6658102D01*
X4355591Y6606286D01*
X4428236Y6606286D01*
X4472940Y6715252D02*
G01*
X4530090Y6715252D01*
X4498847Y6673850D01*
X4514595Y6673850D01*
X4524756Y6668515D01*
X4530090Y6663436D01*
X4535170Y6647687D01*
X4535170Y6637273D01*
X4530090Y6621779D01*
X4519675Y6611365D01*
X4504181Y6606286D01*
X4488434Y6606286D01*
X4472940Y6611365D01*
X4467606Y6616700D01*
X4462525Y6627113D01*
X5050027Y6715252D02*
G01*
X5050027Y6606286D01*
X5050027Y6606286D02*
G01*
X5112258Y6606286D01*
X5146547Y6715252D02*
G01*
X5146547Y6606286D01*
X5146547Y6715252D02*
G01*
X5214111Y6715252D01*
X5146547Y6663436D02*
G01*
X5188204Y6663436D01*
X5146547Y6606286D02*
G01*
X5214111Y6606286D01*
X5248402Y6715252D02*
G01*
X5248402Y6606286D01*
X5248402Y6715252D02*
G01*
X5284724Y6715252D01*
X5300472Y6710171D01*
X5310886Y6699758D01*
X5315965Y6689344D01*
X5321300Y6673850D01*
X5321300Y6647687D01*
X5315965Y6632194D01*
X5310886Y6621779D01*
X5300472Y6611365D01*
X5284724Y6606286D01*
X5248402Y6606286D01*
X5360670Y6689344D02*
G01*
X5360670Y6694423D01*
X5366004Y6704837D01*
X5371084Y6710171D01*
X5381497Y6715252D01*
X5402325Y6715252D01*
X5412740Y6710171D01*
X5417820Y6704837D01*
X5423154Y6694423D01*
X5423154Y6684263D01*
X5417820Y6673850D01*
X5407406Y6658102D01*
X5355590Y6606286D01*
X5428234Y6606286D01*
X5514593Y6715252D02*
G01*
X5462524Y6642608D01*
X5540502Y6642608D01*
X5514593Y6715252D02*
G01*
X5514593Y6606286D01*
X4050029Y7715250D02*
G01*
X4050029Y7606284D01*
X4050029Y7606284D02*
G01*
X4112259Y7606284D01*
X4146550Y7715250D02*
G01*
X4146550Y7606284D01*
X4146550Y7715250D02*
G01*
X4214113Y7715250D01*
X4146550Y7663434D02*
G01*
X4188206Y7663434D01*
X4146550Y7606284D02*
G01*
X4214113Y7606284D01*
X4248404Y7715250D02*
G01*
X4248404Y7606284D01*
X4248404Y7715250D02*
G01*
X4284725Y7715250D01*
X4300474Y7710170D01*
X4310888Y7699755D01*
X4315968Y7689342D01*
X4321302Y7673847D01*
X4321302Y7647686D01*
X4315968Y7632192D01*
X4310888Y7621778D01*
X4300474Y7611363D01*
X4284725Y7606284D01*
X4248404Y7606284D01*
X4360672Y7689342D02*
G01*
X4360672Y7694676D01*
X4366006Y7704836D01*
X4371086Y7710170D01*
X4381500Y7715250D01*
X4402327Y7715250D01*
X4412741Y7710170D01*
X4417822Y7704836D01*
X4423156Y7694676D01*
X4423156Y7684262D01*
X4417822Y7673847D01*
X4407408Y7658100D01*
X4355591Y7606284D01*
X4428236Y7606284D01*
X4524756Y7715250D02*
G01*
X4472940Y7715250D01*
X4467606Y7668513D01*
X4472940Y7673847D01*
X4488434Y7678928D01*
X4504181Y7678928D01*
X4519675Y7673847D01*
X4530090Y7663434D01*
X4535170Y7647686D01*
X4535170Y7637526D01*
X4530090Y7621778D01*
X4519675Y7611363D01*
X4504181Y7606284D01*
X4488434Y7606284D01*
X4472940Y7611363D01*
X4467606Y7616697D01*
X4462525Y7627112D01*
X4400001Y790315D02*
G01*
X4400001Y681349D01*
X4400001Y790315D02*
G01*
X4446737Y790315D01*
X4462231Y785235D01*
X4467565Y779901D01*
X4472645Y769487D01*
X4472645Y759073D01*
X4467565Y748659D01*
X4462231Y743579D01*
X4446737Y738499D01*
X4400001Y738499D01*
X4436323Y738499D02*
G01*
X4472645Y681349D01*
X4506935Y769487D02*
G01*
X4517349Y774821D01*
X4533097Y790315D01*
X4533097Y681349D01*
X4627979Y3164408D02*
G01*
X4622645Y3174822D01*
X4612231Y3185236D01*
X4602071Y3190316D01*
X4581243Y3190316D01*
X4570829Y3185236D01*
X4560415Y3174822D01*
X4555081Y3164408D01*
X4550001Y3148660D01*
X4550001Y3122752D01*
X4555081Y3107258D01*
X4560415Y3096844D01*
X4570829Y3086430D01*
X4581243Y3081350D01*
X4602071Y3081350D01*
X4612231Y3086430D01*
X4622645Y3096844D01*
X4627979Y3107258D01*
X4734913Y3190316D02*
G01*
X4683097Y3081350D01*
X4662269Y3190316D02*
G01*
X4734913Y3190316D01*
X1652978Y4714407D02*
G01*
X1647644Y4724821D01*
X1637230Y4735235D01*
X1627070Y4740315D01*
X1606242Y4740315D01*
X1595828Y4735235D01*
X1585414Y4724821D01*
X1580080Y4714407D01*
X1575000Y4698659D01*
X1575000Y4672751D01*
X1580080Y4657257D01*
X1585414Y4646843D01*
X1595828Y4636429D01*
X1606242Y4631349D01*
X1627070Y4631349D01*
X1637230Y4636429D01*
X1647644Y4646843D01*
X1652978Y4657257D01*
X1687268Y4719487D02*
G01*
X1697682Y4724821D01*
X1713176Y4740315D01*
X1713176Y4631349D01*
X1778708Y4740315D02*
G01*
X1762960Y4735235D01*
X1752800Y4719487D01*
X1747466Y4693579D01*
X1747466Y4678085D01*
X1752800Y4651923D01*
X1762960Y4636429D01*
X1778708Y4631349D01*
X1789122Y4631349D01*
X1804616Y4636429D01*
X1815030Y4651923D01*
X1820110Y4678085D01*
X1820110Y4693579D01*
X1815030Y4719487D01*
X1804616Y4735235D01*
X1789122Y4740315D01*
X1778708Y4740315D01*
X3627978Y3164408D02*
G01*
X3622644Y3174822D01*
X3612230Y3185236D01*
X3602070Y3190316D01*
X3581242Y3190316D01*
X3570828Y3185236D01*
X3560414Y3174822D01*
X3555080Y3164408D01*
X3550000Y3148660D01*
X3550000Y3122752D01*
X3555080Y3107258D01*
X3560414Y3096844D01*
X3570828Y3086430D01*
X3581242Y3081350D01*
X3602070Y3081350D01*
X3612230Y3086430D01*
X3622644Y3096844D01*
X3627978Y3107258D01*
X3688176Y3190316D02*
G01*
X3672682Y3185236D01*
X3667348Y3174822D01*
X3667348Y3164408D01*
X3672682Y3153994D01*
X3683096Y3148660D01*
X3703670Y3143580D01*
X3719418Y3138500D01*
X3729832Y3128086D01*
X3734912Y3117672D01*
X3734912Y3101924D01*
X3729832Y3091510D01*
X3724498Y3086430D01*
X3709004Y3081350D01*
X3688176Y3081350D01*
X3672682Y3086430D01*
X3667348Y3091510D01*
X3662268Y3101924D01*
X3662268Y3117672D01*
X3667348Y3128086D01*
X3677762Y3138500D01*
X3693510Y3143580D01*
X3714084Y3148660D01*
X3724498Y3153994D01*
X3729832Y3164408D01*
X3729832Y3174822D01*
X3724498Y3185236D01*
X3709004Y3190316D01*
X3688176Y3190316D01*
X1877976Y3864409D02*
G01*
X1872642Y3874823D01*
X1862228Y3885237D01*
X1852068Y3890317D01*
X1831240Y3890317D01*
X1820826Y3885237D01*
X1810412Y3874823D01*
X1805078Y3864409D01*
X1799998Y3848661D01*
X1799998Y3822753D01*
X1805078Y3807259D01*
X1810412Y3796845D01*
X1820826Y3786431D01*
X1831240Y3781351D01*
X1852068Y3781351D01*
X1862228Y3786431D01*
X1872642Y3796845D01*
X1877976Y3807259D01*
X1912266Y3869489D02*
G01*
X1922680Y3874823D01*
X1938174Y3890317D01*
X1938174Y3781351D01*
X1972464Y3869489D02*
G01*
X1982878Y3874823D01*
X1998372Y3890317D01*
X1998372Y3781351D01*
X2777977Y4389407D02*
G01*
X2772643Y4399821D01*
X2762229Y4410235D01*
X2752069Y4415315D01*
X2731241Y4415315D01*
X2720827Y4410235D01*
X2710413Y4399821D01*
X2705079Y4389407D01*
X2699999Y4373659D01*
X2699999Y4347751D01*
X2705079Y4332257D01*
X2710413Y4321843D01*
X2720827Y4311429D01*
X2731241Y4306349D01*
X2752069Y4306349D01*
X2762229Y4311429D01*
X2772643Y4321843D01*
X2777977Y4332257D01*
X2812267Y4394487D02*
G01*
X2822681Y4399821D01*
X2838175Y4415315D01*
X2838175Y4306349D01*
X2877799Y4389407D02*
G01*
X2877799Y4394487D01*
X2882879Y4404901D01*
X2887959Y4410235D01*
X2898373Y4415315D01*
X2919201Y4415315D01*
X2929615Y4410235D01*
X2934949Y4404901D01*
X2940029Y4394487D01*
X2940029Y4384073D01*
X2934949Y4373659D01*
X2924535Y4358165D01*
X2872465Y4306349D01*
X2945109Y4306349D01*
X2627977Y5139408D02*
G01*
X2622643Y5149822D01*
X2612229Y5160236D01*
X2602069Y5165316D01*
X2581241Y5165316D01*
X2570827Y5160236D01*
X2560413Y5149822D01*
X2555079Y5139408D01*
X2549999Y5123660D01*
X2549999Y5097752D01*
X2555079Y5082258D01*
X2560413Y5071844D01*
X2570827Y5061430D01*
X2581241Y5056350D01*
X2602069Y5056350D01*
X2612229Y5061430D01*
X2622643Y5071844D01*
X2627977Y5082258D01*
X2667347Y5139408D02*
G01*
X2667347Y5144488D01*
X2672681Y5154902D01*
X2677761Y5160236D01*
X2688175Y5165316D01*
X2709003Y5165316D01*
X2719417Y5160236D01*
X2724497Y5154902D01*
X2729831Y5144488D01*
X2729831Y5134074D01*
X2724497Y5123660D01*
X2714083Y5108166D01*
X2662267Y5056350D01*
X2734911Y5056350D01*
X2769201Y5144488D02*
G01*
X2779615Y5149822D01*
X2795109Y5165316D01*
X2795109Y5056350D01*
X3627978Y5139408D02*
G01*
X3622644Y5149822D01*
X3612230Y5160236D01*
X3602070Y5165316D01*
X3581242Y5165316D01*
X3570828Y5160236D01*
X3560414Y5149822D01*
X3555080Y5139408D01*
X3550000Y5123660D01*
X3550000Y5097752D01*
X3555080Y5082258D01*
X3560414Y5071844D01*
X3570828Y5061430D01*
X3581242Y5056350D01*
X3602070Y5056350D01*
X3612230Y5061430D01*
X3622644Y5071844D01*
X3627978Y5082258D01*
X3667348Y5139408D02*
G01*
X3667348Y5144488D01*
X3672682Y5154902D01*
X3677762Y5160236D01*
X3688176Y5165316D01*
X3709004Y5165316D01*
X3719418Y5160236D01*
X3724498Y5154902D01*
X3729832Y5144488D01*
X3729832Y5134074D01*
X3724498Y5123660D01*
X3714084Y5108166D01*
X3662268Y5056350D01*
X3734912Y5056350D01*
X3800444Y5165316D02*
G01*
X3784950Y5160236D01*
X3774536Y5144488D01*
X3769202Y5118580D01*
X3769202Y5103086D01*
X3774536Y5076924D01*
X3784950Y5061430D01*
X3800444Y5056350D01*
X3810858Y5056350D01*
X3826352Y5061430D01*
X3836766Y5076924D01*
X3842100Y5103086D01*
X3842100Y5118580D01*
X3836766Y5144488D01*
X3826352Y5160236D01*
X3810858Y5165316D01*
X3800444Y5165316D01*
X4627979Y5139408D02*
G01*
X4622645Y5149822D01*
X4612231Y5160236D01*
X4602071Y5165316D01*
X4581243Y5165316D01*
X4570829Y5160236D01*
X4560415Y5149822D01*
X4555081Y5139408D01*
X4550001Y5123660D01*
X4550001Y5097752D01*
X4555081Y5082258D01*
X4560415Y5071844D01*
X4570829Y5061430D01*
X4581243Y5056350D01*
X4602071Y5056350D01*
X4612231Y5061430D01*
X4622645Y5071844D01*
X4627979Y5082258D01*
X4662269Y5144488D02*
G01*
X4672683Y5149822D01*
X4688177Y5165316D01*
X4688177Y5056350D01*
X4790031Y5128994D02*
G01*
X4784951Y5113500D01*
X4774537Y5103086D01*
X4758789Y5097752D01*
X4753709Y5097752D01*
X4737961Y5103086D01*
X4727801Y5113500D01*
X4722467Y5128994D01*
X4722467Y5134074D01*
X4727801Y5149822D01*
X4737961Y5160236D01*
X4753709Y5165316D01*
X4758789Y5165316D01*
X4774537Y5160236D01*
X4784951Y5149822D01*
X4790031Y5128994D01*
X4790031Y5103086D01*
X4784951Y5076924D01*
X4774537Y5061430D01*
X4758789Y5056350D01*
X4748375Y5056350D01*
X4732881Y5061430D01*
X4727801Y5071844D01*
X5627977Y5139408D02*
G01*
X5622643Y5149822D01*
X5612229Y5160236D01*
X5602069Y5165316D01*
X5581241Y5165316D01*
X5570827Y5160236D01*
X5560413Y5149822D01*
X5555079Y5139408D01*
X5549999Y5123660D01*
X5549999Y5097752D01*
X5555079Y5082258D01*
X5560413Y5071844D01*
X5570827Y5061430D01*
X5581241Y5056350D01*
X5602069Y5056350D01*
X5612229Y5061430D01*
X5622643Y5071844D01*
X5627977Y5082258D01*
X5662267Y5144488D02*
G01*
X5672681Y5149822D01*
X5688175Y5165316D01*
X5688175Y5056350D01*
X5748373Y5165316D02*
G01*
X5732879Y5160236D01*
X5727799Y5149822D01*
X5727799Y5139408D01*
X5732879Y5128994D01*
X5743293Y5123660D01*
X5764121Y5118580D01*
X5779615Y5113500D01*
X5790029Y5103086D01*
X5795109Y5092672D01*
X5795109Y5076924D01*
X5790029Y5066510D01*
X5784949Y5061430D01*
X5769201Y5056350D01*
X5748373Y5056350D01*
X5732879Y5061430D01*
X5727799Y5066510D01*
X5722465Y5076924D01*
X5722465Y5092672D01*
X5727799Y5103086D01*
X5737959Y5113500D01*
X5753707Y5118580D01*
X5774535Y5123660D01*
X5784949Y5128994D01*
X5790029Y5139408D01*
X5790029Y5149822D01*
X5784949Y5160236D01*
X5769201Y5165316D01*
X5748373Y5165316D01*
X5802977Y4389407D02*
G01*
X5797643Y4399821D01*
X5787229Y4410235D01*
X5777069Y4415315D01*
X5756241Y4415315D01*
X5745827Y4410235D01*
X5735413Y4399821D01*
X5730079Y4389407D01*
X5724999Y4373659D01*
X5724999Y4347751D01*
X5730079Y4332257D01*
X5735413Y4321843D01*
X5745827Y4311429D01*
X5756241Y4306349D01*
X5777069Y4306349D01*
X5787229Y4311429D01*
X5797643Y4321843D01*
X5802977Y4332257D01*
X5837267Y4394487D02*
G01*
X5847681Y4399821D01*
X5863175Y4415315D01*
X5863175Y4306349D01*
X5959949Y4415315D02*
G01*
X5907879Y4415315D01*
X5902799Y4368579D01*
X5907879Y4373659D01*
X5923373Y4378993D01*
X5939121Y4378993D01*
X5954615Y4373659D01*
X5965029Y4363499D01*
X5970109Y4347751D01*
X5970109Y4337337D01*
X5965029Y4321843D01*
X5954615Y4311429D01*
X5939121Y4306349D01*
X5923373Y4306349D01*
X5907879Y4311429D01*
X5902799Y4316509D01*
X5897465Y4326923D01*
X2627977Y3164408D02*
G01*
X2622643Y3174822D01*
X2612229Y3185236D01*
X2602069Y3190316D01*
X2581241Y3190316D01*
X2570827Y3185236D01*
X2560413Y3174822D01*
X2555079Y3164408D01*
X2549999Y3148660D01*
X2549999Y3122752D01*
X2555079Y3107258D01*
X2560413Y3096844D01*
X2570827Y3086430D01*
X2581241Y3081350D01*
X2602069Y3081350D01*
X2612229Y3086430D01*
X2622643Y3096844D01*
X2627977Y3107258D01*
X2729831Y3153994D02*
G01*
X2724497Y3138500D01*
X2714083Y3128086D01*
X2698589Y3122752D01*
X2693509Y3122752D01*
X2677761Y3128086D01*
X2667347Y3138500D01*
X2662267Y3153994D01*
X2662267Y3159074D01*
X2667347Y3174822D01*
X2677761Y3185236D01*
X2693509Y3190316D01*
X2698589Y3190316D01*
X2714083Y3185236D01*
X2724497Y3174822D01*
X2729831Y3153994D01*
X2729831Y3128086D01*
X2724497Y3101924D01*
X2714083Y3086430D01*
X2698589Y3081350D01*
X2688175Y3081350D01*
X2672681Y3086430D01*
X2667347Y3096844D01*
X7677978Y4464408D02*
G01*
X7672644Y4474822D01*
X7662230Y4485236D01*
X7652070Y4490316D01*
X7631242Y4490316D01*
X7620828Y4485236D01*
X7610414Y4474822D01*
X7605080Y4464408D01*
X7600000Y4448660D01*
X7600000Y4422752D01*
X7605080Y4407258D01*
X7610414Y4396844D01*
X7620828Y4386430D01*
X7631242Y4381350D01*
X7652070Y4381350D01*
X7662230Y4386430D01*
X7672644Y4396844D01*
X7677978Y4407258D01*
X7712268Y4469488D02*
G01*
X7722682Y4474822D01*
X7738176Y4490316D01*
X7738176Y4381350D01*
X7834950Y4474822D02*
G01*
X7829616Y4485236D01*
X7814122Y4490316D01*
X7803708Y4490316D01*
X7787960Y4485236D01*
X7777800Y4469488D01*
X7772466Y4443580D01*
X7772466Y4417672D01*
X7777800Y4396844D01*
X7787960Y4386430D01*
X7803708Y4381350D01*
X7808788Y4381350D01*
X7824536Y4386430D01*
X7834950Y4396844D01*
X7840030Y4412338D01*
X7840030Y4417672D01*
X7834950Y4433166D01*
X7824536Y4443580D01*
X7808788Y4448660D01*
X7803708Y4448660D01*
X7787960Y4443580D01*
X7777800Y4433166D01*
X7772466Y4417672D01*
X3777978Y4389407D02*
G01*
X3772644Y4399821D01*
X3762230Y4410235D01*
X3752070Y4415315D01*
X3731242Y4415315D01*
X3720828Y4410235D01*
X3710414Y4399821D01*
X3705080Y4389407D01*
X3700000Y4373659D01*
X3700000Y4347751D01*
X3705080Y4332257D01*
X3710414Y4321843D01*
X3720828Y4311429D01*
X3731242Y4306349D01*
X3752070Y4306349D01*
X3762230Y4311429D01*
X3772644Y4321843D01*
X3777978Y4332257D01*
X3812268Y4394487D02*
G01*
X3822682Y4399821D01*
X3838176Y4415315D01*
X3838176Y4306349D01*
X3882880Y4415315D02*
G01*
X3940030Y4415315D01*
X3908788Y4373659D01*
X3924536Y4373659D01*
X3934950Y4368579D01*
X3940030Y4363499D01*
X3945110Y4347751D01*
X3945110Y4337337D01*
X3940030Y4321843D01*
X3929616Y4311429D01*
X3914122Y4306349D01*
X3898374Y4306349D01*
X3882880Y4311429D01*
X3877800Y4316509D01*
X3872466Y4326923D01*
X4777978Y4389407D02*
G01*
X4772644Y4399821D01*
X4762230Y4410235D01*
X4752070Y4415315D01*
X4731242Y4415315D01*
X4720828Y4410235D01*
X4710414Y4399821D01*
X4705080Y4389407D01*
X4700000Y4373659D01*
X4700000Y4347751D01*
X4705080Y4332257D01*
X4710414Y4321843D01*
X4720828Y4311429D01*
X4731242Y4306349D01*
X4752070Y4306349D01*
X4762230Y4311429D01*
X4772644Y4321843D01*
X4777978Y4332257D01*
X4812268Y4394487D02*
G01*
X4822682Y4399821D01*
X4838176Y4415315D01*
X4838176Y4306349D01*
X4924536Y4415315D02*
G01*
X4872466Y4342671D01*
X4950444Y4342671D01*
X4924536Y4415315D02*
G01*
X4924536Y4306349D01*
X3627978Y2714409D02*
G01*
X3622644Y2724823D01*
X3612230Y2735237D01*
X3602070Y2740317D01*
X3581242Y2740317D01*
X3570828Y2735237D01*
X3560414Y2724823D01*
X3555080Y2714409D01*
X3550000Y2698661D01*
X3550000Y2672753D01*
X3555080Y2657259D01*
X3560414Y2646845D01*
X3570828Y2636431D01*
X3581242Y2631351D01*
X3602070Y2631351D01*
X3612230Y2636431D01*
X3622644Y2646845D01*
X3627978Y2657259D01*
X3667348Y2714409D02*
G01*
X3667348Y2719489D01*
X3672682Y2729903D01*
X3677762Y2735237D01*
X3688176Y2740317D01*
X3709004Y2740317D01*
X3719418Y2735237D01*
X3724498Y2729903D01*
X3729832Y2719489D01*
X3729832Y2709075D01*
X3724498Y2698661D01*
X3714084Y2683167D01*
X3662268Y2631351D01*
X3734912Y2631351D01*
X3852979Y1864408D02*
G01*
X3847645Y1874822D01*
X3837231Y1885236D01*
X3827071Y1890316D01*
X3806243Y1890316D01*
X3795829Y1885236D01*
X3785415Y1874822D01*
X3780081Y1864408D01*
X3775001Y1848660D01*
X3775001Y1822752D01*
X3780081Y1807258D01*
X3785415Y1796844D01*
X3795829Y1786430D01*
X3806243Y1781350D01*
X3827071Y1781350D01*
X3837231Y1786430D01*
X3847645Y1796844D01*
X3852979Y1807258D01*
X3897683Y1890316D02*
G01*
X3954833Y1890316D01*
X3923591Y1848660D01*
X3939085Y1848660D01*
X3949499Y1843580D01*
X3954833Y1838500D01*
X3959913Y1822752D01*
X3959913Y1812338D01*
X3954833Y1796844D01*
X3944419Y1786430D01*
X3928671Y1781350D01*
X3913177Y1781350D01*
X3897683Y1786430D01*
X3892349Y1791510D01*
X3887269Y1801924D01*
X4627979Y1164407D02*
G01*
X4622645Y1174821D01*
X4612231Y1185235D01*
X4602071Y1190315D01*
X4581243Y1190315D01*
X4570829Y1185235D01*
X4560415Y1174821D01*
X4555081Y1164407D01*
X4550001Y1148659D01*
X4550001Y1122751D01*
X4555081Y1107257D01*
X4560415Y1096843D01*
X4570829Y1086429D01*
X4581243Y1081349D01*
X4602071Y1081349D01*
X4612231Y1086429D01*
X4622645Y1096843D01*
X4627979Y1107257D01*
X4662269Y1169487D02*
G01*
X4672683Y1174821D01*
X4688177Y1190315D01*
X4688177Y1081349D01*
X5677976Y2464407D02*
G01*
X5672642Y2474821D01*
X5662228Y2485235D01*
X5652068Y2490315D01*
X5631240Y2490315D01*
X5620826Y2485235D01*
X5610412Y2474821D01*
X5605078Y2464407D01*
X5599998Y2448659D01*
X5599998Y2422751D01*
X5605078Y2407257D01*
X5610412Y2396843D01*
X5620826Y2386429D01*
X5631240Y2381349D01*
X5652068Y2381349D01*
X5662228Y2386429D01*
X5672642Y2396843D01*
X5677976Y2407257D01*
X5764082Y2490315D02*
G01*
X5712266Y2417671D01*
X5790244Y2417671D01*
X5764082Y2490315D02*
G01*
X5764082Y2381349D01*
X6627977Y3164408D02*
G01*
X6622643Y3174822D01*
X6612229Y3185236D01*
X6602069Y3190316D01*
X6581241Y3190316D01*
X6570827Y3185236D01*
X6560413Y3174822D01*
X6555079Y3164408D01*
X6549999Y3148660D01*
X6549999Y3122752D01*
X6555079Y3107258D01*
X6560413Y3096844D01*
X6570827Y3086430D01*
X6581241Y3081350D01*
X6602069Y3081350D01*
X6612229Y3086430D01*
X6622643Y3096844D01*
X6627977Y3107258D01*
X6724497Y3190316D02*
G01*
X6672681Y3190316D01*
X6667347Y3143580D01*
X6672681Y3148660D01*
X6688175Y3153994D01*
X6703669Y3153994D01*
X6719417Y3148660D01*
X6729831Y3138500D01*
X6734911Y3122752D01*
X6734911Y3112338D01*
X6729831Y3096844D01*
X6719417Y3086430D01*
X6703669Y3081350D01*
X6688175Y3081350D01*
X6672681Y3086430D01*
X6667347Y3091510D01*
X6662267Y3101924D01*
X5627977Y3164408D02*
G01*
X5622643Y3174822D01*
X5612229Y3185236D01*
X5602069Y3190316D01*
X5581241Y3190316D01*
X5570827Y3185236D01*
X5560413Y3174822D01*
X5555079Y3164408D01*
X5549999Y3148660D01*
X5549999Y3122752D01*
X5555079Y3107258D01*
X5560413Y3096844D01*
X5570827Y3086430D01*
X5581241Y3081350D01*
X5602069Y3081350D01*
X5612229Y3086430D01*
X5622643Y3096844D01*
X5627977Y3107258D01*
X5724497Y3174822D02*
G01*
X5719417Y3185236D01*
X5703669Y3190316D01*
X5693509Y3190316D01*
X5677761Y3185236D01*
X5667347Y3169488D01*
X5662267Y3143580D01*
X5662267Y3117672D01*
X5667347Y3096844D01*
X5677761Y3086430D01*
X5693509Y3081350D01*
X5698589Y3081350D01*
X5714083Y3086430D01*
X5724497Y3096844D01*
X5729831Y3112338D01*
X5729831Y3117672D01*
X5724497Y3133166D01*
X5714083Y3143580D01*
X5698589Y3148660D01*
X5693509Y3148660D01*
X5677761Y3143580D01*
X5667347Y3133166D01*
X5662267Y3117672D01*
X6627977Y5139408D02*
G01*
X6622643Y5149822D01*
X6612229Y5160236D01*
X6602069Y5165316D01*
X6581241Y5165316D01*
X6570827Y5160236D01*
X6560413Y5149822D01*
X6555079Y5139408D01*
X6549999Y5123660D01*
X6549999Y5097752D01*
X6555079Y5082258D01*
X6560413Y5071844D01*
X6570827Y5061430D01*
X6581241Y5056350D01*
X6602069Y5056350D01*
X6612229Y5061430D01*
X6622643Y5071844D01*
X6627977Y5082258D01*
X6662267Y5144488D02*
G01*
X6672681Y5149822D01*
X6688175Y5165316D01*
X6688175Y5056350D01*
X6795109Y5165316D02*
G01*
X6743293Y5056350D01*
X6722465Y5165316D02*
G01*
X6795109Y5165316D01*
X2977977Y5914407D02*
G01*
X2972643Y5924821D01*
X2962229Y5935235D01*
X2952069Y5940315D01*
X2931241Y5940315D01*
X2920827Y5935235D01*
X2910413Y5924821D01*
X2905079Y5914407D01*
X2899999Y5898659D01*
X2899999Y5872751D01*
X2905079Y5857257D01*
X2910413Y5846843D01*
X2920827Y5836429D01*
X2931241Y5831349D01*
X2952069Y5831349D01*
X2962229Y5836429D01*
X2972643Y5846843D01*
X2977977Y5857257D01*
X3017347Y5914407D02*
G01*
X3017347Y5919487D01*
X3022681Y5929901D01*
X3027761Y5935235D01*
X3038175Y5940315D01*
X3059003Y5940315D01*
X3069417Y5935235D01*
X3074497Y5929901D01*
X3079831Y5919487D01*
X3079831Y5909073D01*
X3074497Y5898659D01*
X3064083Y5883165D01*
X3012267Y5831349D01*
X3084911Y5831349D01*
X3124535Y5914407D02*
G01*
X3124535Y5919487D01*
X3129615Y5929901D01*
X3134949Y5935235D01*
X3145109Y5940315D01*
X3165937Y5940315D01*
X3176351Y5935235D01*
X3181685Y5929901D01*
X3186765Y5919487D01*
X3186765Y5909073D01*
X3181685Y5898659D01*
X3171271Y5883165D01*
X3119201Y5831349D01*
X3192099Y5831349D01*
X3752977Y6414409D02*
G01*
X3747643Y6424823D01*
X3737229Y6435237D01*
X3727068Y6440317D01*
X3706240Y6440317D01*
X3695827Y6435237D01*
X3685413Y6424823D01*
X3680079Y6414409D01*
X3674999Y6398661D01*
X3674999Y6372753D01*
X3680079Y6357259D01*
X3685413Y6346845D01*
X3695827Y6336431D01*
X3706240Y6331351D01*
X3727068Y6331351D01*
X3737229Y6336431D01*
X3747643Y6346845D01*
X3752977Y6357259D01*
X3792347Y6414409D02*
G01*
X3792347Y6419489D01*
X3797681Y6429903D01*
X3802761Y6435237D01*
X3813175Y6440317D01*
X3834002Y6440317D01*
X3844416Y6435237D01*
X3849497Y6429903D01*
X3854831Y6419489D01*
X3854831Y6409075D01*
X3849497Y6398661D01*
X3839083Y6383167D01*
X3787266Y6331351D01*
X3859911Y6331351D01*
X3904615Y6440317D02*
G01*
X3961765Y6440317D01*
X3930522Y6398661D01*
X3946270Y6398661D01*
X3956684Y6393581D01*
X3961765Y6388501D01*
X3967099Y6372753D01*
X3967099Y6362339D01*
X3961765Y6346845D01*
X3951350Y6336431D01*
X3935856Y6331351D01*
X3920109Y6331351D01*
X3904615Y6336431D01*
X3899534Y6341511D01*
X3894200Y6351925D01*
X5627977Y6139408D02*
G01*
X5622643Y6149822D01*
X5612229Y6160236D01*
X5602069Y6165316D01*
X5581241Y6165316D01*
X5570827Y6160236D01*
X5560413Y6149822D01*
X5555079Y6139408D01*
X5549999Y6123660D01*
X5549999Y6097752D01*
X5555079Y6082258D01*
X5560413Y6071844D01*
X5570827Y6061430D01*
X5581241Y6056350D01*
X5602069Y6056350D01*
X5612229Y6061430D01*
X5622643Y6071844D01*
X5627977Y6082258D01*
X5667347Y6139408D02*
G01*
X5667347Y6144488D01*
X5672681Y6154902D01*
X5677761Y6160236D01*
X5688175Y6165316D01*
X5709003Y6165316D01*
X5719417Y6160236D01*
X5724497Y6154902D01*
X5729831Y6144488D01*
X5729831Y6134074D01*
X5724497Y6123660D01*
X5714083Y6108166D01*
X5662267Y6056350D01*
X5734911Y6056350D01*
X5821271Y6165316D02*
G01*
X5769201Y6092672D01*
X5847179Y6092672D01*
X5821271Y6165316D02*
G01*
X5821271Y6056350D01*
X4627979Y7139409D02*
G01*
X4622645Y7149823D01*
X4612231Y7160237D01*
X4602071Y7165317D01*
X4581243Y7165317D01*
X4570829Y7160237D01*
X4560415Y7149823D01*
X4555081Y7139409D01*
X4550001Y7123661D01*
X4550001Y7097753D01*
X4555081Y7082259D01*
X4560415Y7071845D01*
X4570829Y7061431D01*
X4581243Y7056351D01*
X4602071Y7056351D01*
X4612231Y7061431D01*
X4622645Y7071845D01*
X4627979Y7082259D01*
X4667349Y7139409D02*
G01*
X4667349Y7144489D01*
X4672683Y7154903D01*
X4677763Y7160237D01*
X4688177Y7165317D01*
X4709005Y7165317D01*
X4719419Y7160237D01*
X4724499Y7154903D01*
X4729833Y7144489D01*
X4729833Y7134075D01*
X4724499Y7123661D01*
X4714085Y7108167D01*
X4662269Y7056351D01*
X4734913Y7056351D01*
X4831687Y7165317D02*
G01*
X4779617Y7165317D01*
X4774537Y7118581D01*
X4779617Y7123661D01*
X4795111Y7128995D01*
X4810859Y7128995D01*
X4826353Y7123661D01*
X4836767Y7113501D01*
X4842101Y7097753D01*
X4842101Y7087339D01*
X4836767Y7071845D01*
X4826353Y7061431D01*
X4810859Y7056351D01*
X4795111Y7056351D01*
X4779617Y7061431D01*
X4774537Y7066511D01*
X4769203Y7076925D01*
G36*
X3999890Y1179931D02*
G01*
X3999890Y1119886D01*
X4009898Y1109929D01*
X4069892Y1109929D01*
G37*
G36*
X2999892Y2179929D02*
G01*
X2999892Y2119884D01*
X3009900Y2109927D01*
X3069894Y2109927D01*
G37*
G36*
X4429912Y2389886D02*
G01*
X4499914Y2319883D01*
X4499914Y2379929D01*
X4489907Y2389886D01*
G37*
G36*
X5119878Y2499918D02*
G01*
X5109870Y2489911D01*
X5109870Y2429916D01*
X5179872Y2499918D01*
G37*
G36*
X5999886Y3179927D02*
G01*
X5999886Y3119882D01*
X6009894Y3109925D01*
X6069888Y3109925D01*
G37*
G36*
X4999888Y3179927D02*
G01*
X4999888Y3119882D01*
X5009896Y3109925D01*
X5069890Y3109925D01*
G37*
G36*
X3999890Y3179927D02*
G01*
X3999890Y3119882D01*
X4009898Y3109925D01*
X4069892Y3109925D01*
G37*
G36*
X2999892Y3179927D02*
G01*
X2999892Y3119882D01*
X3009900Y3109925D01*
X3069894Y3109925D01*
G37*
G36*
X1999894Y3179927D02*
G01*
X1999894Y3119882D01*
X2009902Y3109925D01*
X2069896Y3109925D01*
G37*
G36*
X999896Y4179925D02*
G01*
X999896Y4119879D01*
X1009903Y4109923D01*
X1069898Y4109923D01*
G37*
G36*
X2429916Y4389882D02*
G01*
X2499918Y4319879D01*
X2499918Y4379925D01*
X2489911Y4389882D01*
G37*
G36*
X3429914Y4389882D02*
G01*
X3499916Y4319879D01*
X3499916Y4379925D01*
X3489909Y4389882D01*
G37*
G36*
X4429912Y4389882D02*
G01*
X4499914Y4319879D01*
X4499914Y4379925D01*
X4489907Y4389882D01*
G37*
G36*
X5429910Y4389882D02*
G01*
X5499912Y4319879D01*
X5499912Y4379925D01*
X5489905Y4389882D01*
G37*
G36*
X6429908Y4389882D02*
G01*
X6499910Y4319879D01*
X6499910Y4379925D01*
X6489903Y4389882D01*
G37*
G36*
X7119874Y4499914D02*
G01*
X7109866Y4489907D01*
X7109866Y4429912D01*
X7179868Y4499914D01*
G37*
G36*
X5999886Y5179923D02*
G01*
X5999886Y5119878D01*
X6009894Y5109921D01*
X6069888Y5109921D01*
G37*
G36*
X4999888Y5179923D02*
G01*
X4999888Y5119878D01*
X5009896Y5109921D01*
X5069890Y5109921D01*
G37*
G36*
X3999890Y5179923D02*
G01*
X3999890Y5119878D01*
X4009898Y5109921D01*
X4069892Y5109921D01*
G37*
G36*
X2999892Y5179923D02*
G01*
X2999892Y5119878D01*
X3009900Y5109921D01*
X3069894Y5109921D01*
G37*
G36*
X1999894Y5179923D02*
G01*
X1999894Y5119878D01*
X2009902Y5109921D01*
X2069896Y5109921D01*
G37*
G36*
X3119882Y6499910D02*
G01*
X3109874Y6489903D01*
X3109874Y6429908D01*
X3179876Y6499910D01*
G37*
G36*
X4429912Y6389878D02*
G01*
X4499914Y6319875D01*
X4499914Y6379921D01*
X4489907Y6389878D01*
G37*
G36*
X4999888Y6179921D02*
G01*
X4999888Y6119876D01*
X5009896Y6109919D01*
X5069890Y6109919D01*
G37*
G36*
X3999890Y7179919D02*
G01*
X3999890Y7119874D01*
X4009898Y7109917D01*
X4069892Y7109917D01*
G37*
D10*
X4069890Y1109908D02*
G01*
X3999887Y1109908D01*
X3999887Y1109908D01*
X3999887Y1179911D01*
X4069915Y1109908D01*
X4499894Y1499913D02*
G01*
X4499894Y999914D01*
X4172932Y1499913D02*
G01*
X4326856Y1499913D01*
X4487920Y1499913D02*
G01*
X4499894Y1499913D01*
X3999895Y1499913D02*
G01*
X4011869Y1499913D01*
X3999895Y999914D02*
G01*
X3999895Y1499913D01*
X4011869Y999914D02*
G01*
X3999895Y999914D01*
X4499894Y999914D02*
G01*
X4487920Y999914D01*
X4326856Y999914D02*
G01*
X4172932Y999914D01*
X3069892Y2109906D02*
G01*
X2999889Y2109906D01*
X2999889Y2109906D01*
X2999889Y2179909D01*
X3069917Y2109906D01*
X3499896Y2499911D02*
G01*
X3499896Y1999912D01*
X3172934Y2499911D02*
G01*
X3326858Y2499911D01*
X3487922Y2499911D02*
G01*
X3499896Y2499911D01*
X2999897Y2499911D02*
G01*
X3011871Y2499911D01*
X2999897Y1999912D02*
G01*
X2999897Y2499911D01*
X3011871Y1999912D02*
G01*
X2999897Y1999912D01*
X3499896Y1999912D02*
G01*
X3487922Y1999912D01*
X3326858Y1999912D02*
G01*
X3172934Y1999912D01*
X4429889Y2389906D02*
G01*
X4499891Y2389906D01*
X4499891Y2389906D01*
X4499891Y2319903D01*
X4429864Y2389906D01*
X3999885Y1999902D02*
G01*
X3999885Y2499901D01*
X4326846Y1999902D02*
G01*
X4172922Y1999902D01*
X4011858Y1999902D02*
G01*
X3999885Y1999902D01*
X4499884Y1999902D02*
G01*
X4487910Y1999902D01*
X4499884Y2499901D02*
G01*
X4499884Y1999902D01*
X4487910Y2499901D02*
G01*
X4499884Y2499901D01*
X3999885Y2499901D02*
G01*
X4011858Y2499901D01*
X4172922Y2499901D02*
G01*
X4326846Y2499901D01*
X5109888Y2429906D02*
G01*
X5109888Y2499908D01*
X5109888Y2499908D01*
X5179890Y2499908D01*
X5109888Y2429880D01*
X5499892Y1999902D02*
G01*
X4999893Y1999902D01*
X5499892Y2326863D02*
G01*
X5499892Y2172939D01*
X5499892Y2011875D02*
G01*
X5499892Y1999902D01*
X5499892Y2499901D02*
G01*
X5499892Y2487927D01*
X4999893Y2499901D02*
G01*
X5499892Y2499901D01*
X4999893Y2487927D02*
G01*
X4999893Y2499901D01*
X4999893Y1999902D02*
G01*
X4999893Y2011875D01*
X4999893Y2172939D02*
G01*
X4999893Y2326863D01*
X6069886Y3109904D02*
G01*
X5999883Y3109904D01*
X5999883Y3109904D01*
X5999883Y3179907D01*
X6069911Y3109904D01*
X6499890Y3499909D02*
G01*
X6499890Y2999910D01*
X6172928Y3499909D02*
G01*
X6326852Y3499909D01*
X6487916Y3499909D02*
G01*
X6499890Y3499909D01*
X5999891Y3499909D02*
G01*
X6011865Y3499909D01*
X5999891Y2999910D02*
G01*
X5999891Y3499909D01*
X6011865Y2999910D02*
G01*
X5999891Y2999910D01*
X6499890Y2999910D02*
G01*
X6487916Y2999910D01*
X6326852Y2999910D02*
G01*
X6172928Y2999910D01*
X5069888Y3109904D02*
G01*
X4999885Y3109904D01*
X4999885Y3109904D01*
X4999885Y3179907D01*
X5069913Y3109904D01*
X5499892Y3499909D02*
G01*
X5499892Y2999910D01*
X5172930Y3499909D02*
G01*
X5326854Y3499909D01*
X5487918Y3499909D02*
G01*
X5499892Y3499909D01*
X4999893Y3499909D02*
G01*
X5011867Y3499909D01*
X4999893Y2999910D02*
G01*
X4999893Y3499909D01*
X5011867Y2999910D02*
G01*
X4999893Y2999910D01*
X5499892Y2999910D02*
G01*
X5487918Y2999910D01*
X5326854Y2999910D02*
G01*
X5172930Y2999910D01*
X4069890Y3109904D02*
G01*
X3999887Y3109904D01*
X3999887Y3109904D01*
X3999887Y3179907D01*
X4069915Y3109904D01*
X4499894Y3499909D02*
G01*
X4499894Y2999910D01*
X4172932Y3499909D02*
G01*
X4326856Y3499909D01*
X4487920Y3499909D02*
G01*
X4499894Y3499909D01*
X3999895Y3499909D02*
G01*
X4011869Y3499909D01*
X3999895Y2999910D02*
G01*
X3999895Y3499909D01*
X4011869Y2999910D02*
G01*
X3999895Y2999910D01*
X4499894Y2999910D02*
G01*
X4487920Y2999910D01*
X4326856Y2999910D02*
G01*
X4172932Y2999910D01*
X3069892Y3109904D02*
G01*
X2999889Y3109904D01*
X2999889Y3109904D01*
X2999889Y3179907D01*
X3069917Y3109904D01*
X3499896Y3499909D02*
G01*
X3499896Y2999910D01*
X3172934Y3499909D02*
G01*
X3326858Y3499909D01*
X3487922Y3499909D02*
G01*
X3499896Y3499909D01*
X2999897Y3499909D02*
G01*
X3011871Y3499909D01*
X2999897Y2999910D02*
G01*
X2999897Y3499909D01*
X3011871Y2999910D02*
G01*
X2999897Y2999910D01*
X3499896Y2999910D02*
G01*
X3487922Y2999910D01*
X3326858Y2999910D02*
G01*
X3172934Y2999910D01*
X2069894Y3109904D02*
G01*
X1999891Y3109904D01*
X1999891Y3109904D01*
X1999891Y3179907D01*
X2069919Y3109904D01*
X2499898Y3499909D02*
G01*
X2499898Y2999910D01*
X2172936Y3499909D02*
G01*
X2326860Y3499909D01*
X2487924Y3499909D02*
G01*
X2499898Y3499909D01*
X1999899Y3499909D02*
G01*
X2011873Y3499909D01*
X1999899Y2999910D02*
G01*
X1999899Y3499909D01*
X2011873Y2999910D02*
G01*
X1999899Y2999910D01*
X2499898Y2999910D02*
G01*
X2487924Y2999910D01*
X2326860Y2999910D02*
G01*
X2172936Y2999910D01*
X1069896Y4109902D02*
G01*
X999893Y4109902D01*
X999893Y4109902D01*
X999893Y4179905D01*
X1069921Y4109902D01*
X1499900Y4499907D02*
G01*
X1499900Y3999908D01*
X1172938Y4499907D02*
G01*
X1326862Y4499907D01*
X1487926Y4499907D02*
G01*
X1499900Y4499907D01*
X999901Y4499907D02*
G01*
X1011875Y4499907D01*
X999901Y3999908D02*
G01*
X999901Y4499907D01*
X1011875Y3999908D02*
G01*
X999901Y3999908D01*
X1499900Y3999908D02*
G01*
X1487926Y3999908D01*
X1326862Y3999908D02*
G01*
X1172938Y3999908D01*
X2429893Y4389902D02*
G01*
X2499895Y4389902D01*
X2499895Y4389902D01*
X2499895Y4319899D01*
X2429868Y4389902D01*
X1999889Y3999898D02*
G01*
X1999889Y4499897D01*
X2326850Y3999898D02*
G01*
X2172926Y3999898D01*
X2011862Y3999898D02*
G01*
X1999889Y3999898D01*
X2499888Y3999898D02*
G01*
X2487914Y3999898D01*
X2499888Y4499897D02*
G01*
X2499888Y3999898D01*
X2487914Y4499897D02*
G01*
X2499888Y4499897D01*
X1999889Y4499897D02*
G01*
X2011862Y4499897D01*
X2172926Y4499897D02*
G01*
X2326850Y4499897D01*
X3429891Y4389902D02*
G01*
X3499893Y4389902D01*
X3499893Y4389902D01*
X3499893Y4319899D01*
X3429866Y4389902D01*
X2999887Y3999898D02*
G01*
X2999887Y4499897D01*
X3326848Y3999898D02*
G01*
X3172924Y3999898D01*
X3011860Y3999898D02*
G01*
X2999887Y3999898D01*
X3499886Y3999898D02*
G01*
X3487912Y3999898D01*
X3499886Y4499897D02*
G01*
X3499886Y3999898D01*
X3487912Y4499897D02*
G01*
X3499886Y4499897D01*
X2999887Y4499897D02*
G01*
X3011860Y4499897D01*
X3172924Y4499897D02*
G01*
X3326848Y4499897D01*
X4429889Y4389902D02*
G01*
X4499891Y4389902D01*
X4499891Y4389902D01*
X4499891Y4319899D01*
X4429864Y4389902D01*
X3999885Y3999898D02*
G01*
X3999885Y4499897D01*
X4326846Y3999898D02*
G01*
X4172922Y3999898D01*
X4011858Y3999898D02*
G01*
X3999885Y3999898D01*
X4499884Y3999898D02*
G01*
X4487910Y3999898D01*
X4499884Y4499897D02*
G01*
X4499884Y3999898D01*
X4487910Y4499897D02*
G01*
X4499884Y4499897D01*
X3999885Y4499897D02*
G01*
X4011858Y4499897D01*
X4172922Y4499897D02*
G01*
X4326846Y4499897D01*
X5429887Y4389902D02*
G01*
X5499889Y4389902D01*
X5499889Y4389902D01*
X5499889Y4319899D01*
X5429862Y4389902D01*
X4999883Y3999898D02*
G01*
X4999883Y4499897D01*
X5326844Y3999898D02*
G01*
X5172920Y3999898D01*
X5011856Y3999898D02*
G01*
X4999883Y3999898D01*
X5499882Y3999898D02*
G01*
X5487908Y3999898D01*
X5499882Y4499897D02*
G01*
X5499882Y3999898D01*
X5487908Y4499897D02*
G01*
X5499882Y4499897D01*
X4999883Y4499897D02*
G01*
X5011856Y4499897D01*
X5172920Y4499897D02*
G01*
X5326844Y4499897D01*
X6429885Y4389902D02*
G01*
X6499887Y4389902D01*
X6499887Y4389902D01*
X6499887Y4319899D01*
X6429860Y4389902D01*
X5999881Y3999898D02*
G01*
X5999881Y4499897D01*
X6326842Y3999898D02*
G01*
X6172918Y3999898D01*
X6011854Y3999898D02*
G01*
X5999881Y3999898D01*
X6499880Y3999898D02*
G01*
X6487906Y3999898D01*
X6499880Y4499897D02*
G01*
X6499880Y3999898D01*
X6487906Y4499897D02*
G01*
X6499880Y4499897D01*
X5999881Y4499897D02*
G01*
X6011854Y4499897D01*
X6172918Y4499897D02*
G01*
X6326842Y4499897D01*
X7109884Y4429902D02*
G01*
X7109884Y4499904D01*
X7109884Y4499904D01*
X7179886Y4499904D01*
X7109884Y4429876D01*
X7499888Y3999898D02*
G01*
X6999889Y3999898D01*
X7499888Y4326859D02*
G01*
X7499888Y4172935D01*
X7499888Y4011871D02*
G01*
X7499888Y3999898D01*
X7499888Y4499897D02*
G01*
X7499888Y4487923D01*
X6999889Y4499897D02*
G01*
X7499888Y4499897D01*
X6999889Y4487923D02*
G01*
X6999889Y4499897D01*
X6999889Y3999898D02*
G01*
X6999889Y4011871D01*
X6999889Y4172935D02*
G01*
X6999889Y4326859D01*
X6069886Y5109900D02*
G01*
X5999883Y5109900D01*
X5999883Y5109900D01*
X5999883Y5179903D01*
X6069911Y5109900D01*
X6499890Y5499905D02*
G01*
X6499890Y4999906D01*
X6172928Y5499905D02*
G01*
X6326852Y5499905D01*
X6487916Y5499905D02*
G01*
X6499890Y5499905D01*
X5999891Y5499905D02*
G01*
X6011865Y5499905D01*
X5999891Y4999906D02*
G01*
X5999891Y5499905D01*
X6011865Y4999906D02*
G01*
X5999891Y4999906D01*
X6499890Y4999906D02*
G01*
X6487916Y4999906D01*
X6326852Y4999906D02*
G01*
X6172928Y4999906D01*
X5069888Y5109900D02*
G01*
X4999885Y5109900D01*
X4999885Y5109900D01*
X4999885Y5179903D01*
X5069913Y5109900D01*
X5499892Y5499905D02*
G01*
X5499892Y4999906D01*
X5172930Y5499905D02*
G01*
X5326854Y5499905D01*
X5487918Y5499905D02*
G01*
X5499892Y5499905D01*
X4999893Y5499905D02*
G01*
X5011867Y5499905D01*
X4999893Y4999906D02*
G01*
X4999893Y5499905D01*
X5011867Y4999906D02*
G01*
X4999893Y4999906D01*
X5499892Y4999906D02*
G01*
X5487918Y4999906D01*
X5326854Y4999906D02*
G01*
X5172930Y4999906D01*
X4069890Y5109900D02*
G01*
X3999887Y5109900D01*
X3999887Y5109900D01*
X3999887Y5179903D01*
X4069915Y5109900D01*
X4499894Y5499905D02*
G01*
X4499894Y4999906D01*
X4172932Y5499905D02*
G01*
X4326856Y5499905D01*
X4487920Y5499905D02*
G01*
X4499894Y5499905D01*
X3999895Y5499905D02*
G01*
X4011869Y5499905D01*
X3999895Y4999906D02*
G01*
X3999895Y5499905D01*
X4011869Y4999906D02*
G01*
X3999895Y4999906D01*
X4499894Y4999906D02*
G01*
X4487920Y4999906D01*
X4326856Y4999906D02*
G01*
X4172932Y4999906D01*
X3069892Y5109900D02*
G01*
X2999889Y5109900D01*
X2999889Y5109900D01*
X2999889Y5179903D01*
X3069917Y5109900D01*
X3499896Y5499905D02*
G01*
X3499896Y4999906D01*
X3172934Y5499905D02*
G01*
X3326858Y5499905D01*
X3487922Y5499905D02*
G01*
X3499896Y5499905D01*
X2999897Y5499905D02*
G01*
X3011871Y5499905D01*
X2999897Y4999906D02*
G01*
X2999897Y5499905D01*
X3011871Y4999906D02*
G01*
X2999897Y4999906D01*
X3499896Y4999906D02*
G01*
X3487922Y4999906D01*
X3326858Y4999906D02*
G01*
X3172934Y4999906D01*
X2069894Y5109900D02*
G01*
X1999891Y5109900D01*
X1999891Y5109900D01*
X1999891Y5179903D01*
X2069919Y5109900D01*
X2499898Y5499905D02*
G01*
X2499898Y4999906D01*
X2172936Y5499905D02*
G01*
X2326860Y5499905D01*
X2487924Y5499905D02*
G01*
X2499898Y5499905D01*
X1999899Y5499905D02*
G01*
X2011873Y5499905D01*
X1999899Y4999906D02*
G01*
X1999899Y5499905D01*
X2011873Y4999906D02*
G01*
X1999899Y4999906D01*
X2499898Y4999906D02*
G01*
X2487924Y4999906D01*
X2326860Y4999906D02*
G01*
X2172936Y4999906D01*
X3109892Y6429898D02*
G01*
X3109892Y6499900D01*
X3109892Y6499900D01*
X3179894Y6499900D01*
X3109892Y6429872D01*
X3499896Y5999894D02*
G01*
X2999897Y5999894D01*
X3499896Y6326855D02*
G01*
X3499896Y6172931D01*
X3499896Y6011867D02*
G01*
X3499896Y5999894D01*
X3499896Y6499893D02*
G01*
X3499896Y6487919D01*
X2999897Y6499893D02*
G01*
X3499896Y6499893D01*
X2999897Y6487919D02*
G01*
X2999897Y6499893D01*
X2999897Y5999894D02*
G01*
X2999897Y6011867D01*
X2999897Y6172931D02*
G01*
X2999897Y6326855D01*
X4429889Y6389898D02*
G01*
X4499891Y6389898D01*
X4499891Y6389898D01*
X4499891Y6319895D01*
X4429864Y6389898D01*
X3999885Y5999894D02*
G01*
X3999885Y6499893D01*
X4326846Y5999894D02*
G01*
X4172922Y5999894D01*
X4011858Y5999894D02*
G01*
X3999885Y5999894D01*
X4499884Y5999894D02*
G01*
X4487910Y5999894D01*
X4499884Y6499893D02*
G01*
X4499884Y5999894D01*
X4487910Y6499893D02*
G01*
X4499884Y6499893D01*
X3999885Y6499893D02*
G01*
X4011858Y6499893D01*
X4172922Y6499893D02*
G01*
X4326846Y6499893D01*
X5069888Y6109898D02*
G01*
X4999885Y6109898D01*
X4999885Y6109898D01*
X4999885Y6179901D01*
X5069913Y6109898D01*
X5499892Y6499903D02*
G01*
X5499892Y5999904D01*
X5172930Y6499903D02*
G01*
X5326854Y6499903D01*
X5487918Y6499903D02*
G01*
X5499892Y6499903D01*
X4999893Y6499903D02*
G01*
X5011867Y6499903D01*
X4999893Y5999904D02*
G01*
X4999893Y6499903D01*
X5011867Y5999904D02*
G01*
X4999893Y5999904D01*
X5499892Y5999904D02*
G01*
X5487918Y5999904D01*
X5326854Y5999904D02*
G01*
X5172930Y5999904D01*
X4069890Y7109896D02*
G01*
X3999887Y7109896D01*
X3999887Y7109896D01*
X3999887Y7179899D01*
X4069915Y7109896D01*
X4499894Y7499901D02*
G01*
X4499894Y6999902D01*
X4172932Y7499901D02*
G01*
X4326856Y7499901D01*
X4487920Y7499901D02*
G01*
X4499894Y7499901D01*
X3999895Y7499901D02*
G01*
X4011869Y7499901D01*
X3999895Y6999902D02*
G01*
X3999895Y7499901D01*
X4011869Y6999902D02*
G01*
X3999895Y6999902D01*
X4499894Y6999902D02*
G01*
X4487920Y6999902D01*
X4326856Y6999902D02*
G01*
X4172932Y6999902D01*
X4045003Y830003D02*
G01*
X4045003Y669998D01*
X4230065Y670509D02*
G01*
X4355061Y670509D01*
X4230065Y830513D02*
G01*
X4355061Y830513D01*
X4170006Y669998D02*
G01*
X4045003Y669998D01*
X4170006Y830003D02*
G01*
X4045003Y830003D01*
X4355061Y830513D02*
G01*
X4355061Y670509D01*
X4685002Y3234999D02*
G01*
X4564999Y3234999D01*
X4705002Y3439998D02*
G01*
X4705002Y3540000D01*
X4544997Y3439998D02*
G01*
X4544997Y3540000D01*
X4705002Y3359990D02*
G01*
X4705002Y3260001D01*
X4544997Y3359990D02*
G01*
X4544997Y3260001D01*
X4685002Y3565001D02*
G01*
X4564999Y3565001D01*
X4705002Y3545001D02*
G01*
X4705002Y3540000D01*
X4544997Y3544999D02*
G01*
X4544997Y3540000D01*
X4705002Y3254999D02*
G01*
X4705002Y3260001D01*
X4544997Y3255002D02*
G01*
X4544997Y3260001D01*
X1559999Y4439998D02*
G01*
X1559999Y4560001D01*
X1764997Y4419998D02*
G01*
X1865000Y4419998D01*
X1764997Y4580003D02*
G01*
X1865000Y4580003D01*
X1684990Y4419998D02*
G01*
X1585000Y4419998D01*
X1684990Y4580003D02*
G01*
X1585000Y4580003D01*
X1890001Y4439998D02*
G01*
X1890001Y4560001D01*
X1870001Y4419998D02*
G01*
X1865000Y4419998D01*
X1869998Y4580003D02*
G01*
X1865000Y4580003D01*
X1579999Y4419998D02*
G01*
X1585000Y4419998D01*
X1580001Y4580003D02*
G01*
X1585000Y4580003D01*
X3564996Y3565001D02*
G01*
X3684998Y3565001D01*
X3544996Y3360003D02*
G01*
X3544996Y3260001D01*
X3705001Y3360003D02*
G01*
X3705001Y3260001D01*
X3544996Y3440010D02*
G01*
X3544996Y3540000D01*
X3705001Y3440010D02*
G01*
X3705001Y3540000D01*
X3564996Y3234999D02*
G01*
X3684998Y3234999D01*
X3544996Y3254999D02*
G01*
X3544996Y3260001D01*
X3705001Y3255002D02*
G01*
X3705001Y3260001D01*
X3544996Y3545001D02*
G01*
X3544996Y3540000D01*
X3705001Y3544999D02*
G01*
X3705001Y3540000D01*
X1935002Y3934998D02*
G01*
X1815000Y3934998D01*
X1955002Y4139996D02*
G01*
X1955002Y4239999D01*
X1794997Y4139996D02*
G01*
X1794997Y4239999D01*
X1955002Y4059989D02*
G01*
X1955002Y3959999D01*
X1794997Y4059989D02*
G01*
X1794997Y3959999D01*
X1935002Y4265000D02*
G01*
X1815000Y4265000D01*
X1955002Y4245000D02*
G01*
X1955002Y4239999D01*
X1794997Y4244997D02*
G01*
X1794997Y4239999D01*
X1955002Y3954998D02*
G01*
X1955002Y3959999D01*
X1794997Y3955000D02*
G01*
X1794997Y3959999D01*
X2814998Y4265000D02*
G01*
X2935000Y4265000D01*
X2794998Y4060002D02*
G01*
X2794998Y3959999D01*
X2955002Y4060002D02*
G01*
X2955002Y3959999D01*
X2794998Y4140009D02*
G01*
X2794998Y4239999D01*
X2955002Y4140009D02*
G01*
X2955002Y4239999D01*
X2814998Y3934998D02*
G01*
X2935000Y3934998D01*
X2794998Y3954998D02*
G01*
X2794998Y3959999D01*
X2955002Y3955000D02*
G01*
X2955002Y3959999D01*
X2794998Y4245000D02*
G01*
X2794998Y4239999D01*
X2955002Y4244997D02*
G01*
X2955002Y4239999D01*
X2685003Y5234998D02*
G01*
X2565001Y5234998D01*
X2705003Y5439996D02*
G01*
X2705003Y5539999D01*
X2544998Y5439996D02*
G01*
X2544998Y5539999D01*
X2705003Y5359989D02*
G01*
X2705003Y5259999D01*
X2544998Y5359989D02*
G01*
X2544998Y5259999D01*
X2685003Y5565000D02*
G01*
X2565001Y5565000D01*
X2705003Y5545000D02*
G01*
X2705003Y5539999D01*
X2544998Y5544997D02*
G01*
X2544998Y5539999D01*
X2705003Y5254998D02*
G01*
X2705003Y5259999D01*
X2544998Y5255000D02*
G01*
X2544998Y5259999D01*
X3685001Y5234998D02*
G01*
X3564999Y5234998D01*
X3705001Y5439996D02*
G01*
X3705001Y5539999D01*
X3544996Y5439996D02*
G01*
X3544996Y5539999D01*
X3705001Y5359989D02*
G01*
X3705001Y5259999D01*
X3544996Y5359989D02*
G01*
X3544996Y5259999D01*
X3685001Y5565000D02*
G01*
X3564999Y5565000D01*
X3705001Y5545000D02*
G01*
X3705001Y5539999D01*
X3544996Y5544997D02*
G01*
X3544996Y5539999D01*
X3705001Y5254998D02*
G01*
X3705001Y5259999D01*
X3544996Y5255000D02*
G01*
X3544996Y5259999D01*
X4685002Y5234998D02*
G01*
X4564999Y5234998D01*
X4705002Y5439996D02*
G01*
X4705002Y5539999D01*
X4544997Y5439996D02*
G01*
X4544997Y5539999D01*
X4705002Y5359989D02*
G01*
X4705002Y5259999D01*
X4544997Y5359989D02*
G01*
X4544997Y5259999D01*
X4685002Y5565000D02*
G01*
X4564999Y5565000D01*
X4705002Y5545000D02*
G01*
X4705002Y5539999D01*
X4544997Y5544997D02*
G01*
X4544997Y5539999D01*
X4705002Y5254998D02*
G01*
X4705002Y5259999D01*
X4544997Y5255000D02*
G01*
X4544997Y5259999D01*
X5564997Y5565000D02*
G01*
X5685000Y5565000D01*
X5544997Y5360001D02*
G01*
X5544997Y5259999D01*
X5705002Y5360001D02*
G01*
X5705002Y5259999D01*
X5544997Y5440009D02*
G01*
X5544997Y5539999D01*
X5705002Y5440009D02*
G01*
X5705002Y5539999D01*
X5564997Y5234998D02*
G01*
X5685000Y5234998D01*
X5544997Y5254998D02*
G01*
X5544997Y5259999D01*
X5705002Y5255000D02*
G01*
X5705002Y5259999D01*
X5544997Y5545000D02*
G01*
X5544997Y5539999D01*
X5705002Y5544997D02*
G01*
X5705002Y5539999D01*
X5935002Y3934998D02*
G01*
X5814999Y3934998D01*
X5955002Y4139996D02*
G01*
X5955002Y4239999D01*
X5794997Y4139996D02*
G01*
X5794997Y4239999D01*
X5955002Y4059989D02*
G01*
X5955002Y3959999D01*
X5794997Y4059989D02*
G01*
X5794997Y3959999D01*
X5935002Y4265000D02*
G01*
X5814999Y4265000D01*
X5955002Y4245000D02*
G01*
X5955002Y4239999D01*
X5794997Y4244997D02*
G01*
X5794997Y4239999D01*
X5955002Y3954998D02*
G01*
X5955002Y3959999D01*
X5794997Y3955000D02*
G01*
X5794997Y3959999D01*
X2564998Y3565001D02*
G01*
X2685000Y3565001D01*
X2544998Y3360003D02*
G01*
X2544998Y3260001D01*
X2705003Y3360003D02*
G01*
X2705003Y3260001D01*
X2544998Y3440010D02*
G01*
X2544998Y3540000D01*
X2705003Y3440010D02*
G01*
X2705003Y3540000D01*
X2564998Y3234999D02*
G01*
X2685000Y3234999D01*
X2544998Y3254999D02*
G01*
X2544998Y3260001D01*
X2705003Y3255002D02*
G01*
X2705003Y3260001D01*
X2544998Y3545001D02*
G01*
X2544998Y3540000D01*
X2705003Y3544999D02*
G01*
X2705003Y3540000D01*
X7735003Y4009999D02*
G01*
X7615001Y4009999D01*
X7755003Y4214997D02*
G01*
X7755003Y4315000D01*
X7594998Y4214997D02*
G01*
X7594998Y4315000D01*
X7755003Y4134990D02*
G01*
X7755003Y4035000D01*
X7594998Y4134990D02*
G01*
X7594998Y4035000D01*
X7735003Y4340001D02*
G01*
X7615001Y4340001D01*
X7755003Y4320001D02*
G01*
X7755003Y4315000D01*
X7594998Y4319998D02*
G01*
X7594998Y4315000D01*
X7755003Y4029999D02*
G01*
X7755003Y4035000D01*
X7594998Y4030002D02*
G01*
X7594998Y4035000D01*
X3814998Y4265000D02*
G01*
X3935001Y4265000D01*
X3794998Y4060002D02*
G01*
X3794998Y3959999D01*
X3955003Y4060002D02*
G01*
X3955003Y3959999D01*
X3794998Y4140009D02*
G01*
X3794998Y4239999D01*
X3955003Y4140009D02*
G01*
X3955003Y4239999D01*
X3814998Y3934998D02*
G01*
X3935001Y3934998D01*
X3794998Y3954998D02*
G01*
X3794998Y3959999D01*
X3955003Y3955000D02*
G01*
X3955003Y3959999D01*
X3794998Y4245000D02*
G01*
X3794998Y4239999D01*
X3955003Y4244997D02*
G01*
X3955003Y4239999D01*
X4814996Y4265000D02*
G01*
X4934999Y4265000D01*
X4794996Y4060002D02*
G01*
X4794996Y3959999D01*
X4955001Y4060002D02*
G01*
X4955001Y3959999D01*
X4794996Y4140009D02*
G01*
X4794996Y4239999D01*
X4955001Y4140009D02*
G01*
X4955001Y4239999D01*
X4814996Y3934998D02*
G01*
X4934999Y3934998D01*
X4794996Y3954998D02*
G01*
X4794996Y3959999D01*
X4955001Y3955000D02*
G01*
X4955001Y3959999D01*
X4794996Y4245000D02*
G01*
X4794996Y4239999D01*
X4955001Y4244997D02*
G01*
X4955001Y4239999D01*
X3559997Y2439997D02*
G01*
X3559997Y2559999D01*
X3764996Y2419997D02*
G01*
X3864998Y2419997D01*
X3764996Y2580002D02*
G01*
X3864998Y2580002D01*
X3684988Y2419997D02*
G01*
X3584999Y2419997D01*
X3684988Y2580002D02*
G01*
X3584999Y2580002D01*
X3889999Y2439997D02*
G01*
X3889999Y2559999D01*
X3869999Y2419997D02*
G01*
X3864998Y2419997D01*
X3869997Y2580002D02*
G01*
X3864998Y2580002D01*
X3579997Y2419997D02*
G01*
X3584999Y2419997D01*
X3580000Y2580002D02*
G01*
X3584999Y2580002D01*
X3935003Y1934999D02*
G01*
X3815001Y1934999D01*
X3955003Y2139998D02*
G01*
X3955003Y2240000D01*
X3794998Y2139998D02*
G01*
X3794998Y2240000D01*
X3955003Y2059990D02*
G01*
X3955003Y1960001D01*
X3794998Y2059990D02*
G01*
X3794998Y1960001D01*
X3935003Y2265001D02*
G01*
X3815001Y2265001D01*
X3955003Y2245001D02*
G01*
X3955003Y2240000D01*
X3794998Y2244999D02*
G01*
X3794998Y2240000D01*
X3955003Y1954999D02*
G01*
X3955003Y1960001D01*
X3794998Y1955002D02*
G01*
X3794998Y1960001D01*
X4564997Y1565000D02*
G01*
X4684999Y1565000D01*
X4544997Y1360002D02*
G01*
X4544997Y1260000D01*
X4705002Y1360002D02*
G01*
X4705002Y1260000D01*
X4544997Y1440009D02*
G01*
X4544997Y1539999D01*
X4705002Y1440009D02*
G01*
X4705002Y1539999D01*
X4564997Y1234998D02*
G01*
X4684999Y1234998D01*
X4544997Y1254998D02*
G01*
X4544997Y1260000D01*
X4705002Y1255001D02*
G01*
X4705002Y1260000D01*
X4544997Y1545000D02*
G01*
X4544997Y1539999D01*
X4705002Y1544998D02*
G01*
X4705002Y1539999D01*
X5735002Y2009998D02*
G01*
X5615000Y2009998D01*
X5755002Y2214996D02*
G01*
X5755002Y2314999D01*
X5594997Y2214996D02*
G01*
X5594997Y2314999D01*
X5755002Y2134989D02*
G01*
X5755002Y2034999D01*
X5594997Y2134989D02*
G01*
X5594997Y2034999D01*
X5735002Y2340000D02*
G01*
X5615000Y2340000D01*
X5755002Y2320000D02*
G01*
X5755002Y2314999D01*
X5594997Y2319997D02*
G01*
X5594997Y2314999D01*
X5755002Y2029998D02*
G01*
X5755002Y2034999D01*
X5594997Y2030001D02*
G01*
X5594997Y2034999D01*
X6685003Y3234999D02*
G01*
X6565000Y3234999D01*
X6705003Y3439998D02*
G01*
X6705003Y3540000D01*
X6544998Y3439998D02*
G01*
X6544998Y3540000D01*
X6705003Y3359990D02*
G01*
X6705003Y3260001D01*
X6544998Y3359990D02*
G01*
X6544998Y3260001D01*
X6685003Y3565001D02*
G01*
X6565000Y3565001D01*
X6705003Y3545001D02*
G01*
X6705003Y3540000D01*
X6544998Y3544999D02*
G01*
X6544998Y3540000D01*
X6705003Y3254999D02*
G01*
X6705003Y3260001D01*
X6544998Y3255002D02*
G01*
X6544998Y3260001D01*
X5685002Y3234999D02*
G01*
X5565000Y3234999D01*
X5705002Y3439998D02*
G01*
X5705002Y3540000D01*
X5544997Y3439998D02*
G01*
X5544997Y3540000D01*
X5705002Y3359990D02*
G01*
X5705002Y3260001D01*
X5544997Y3359990D02*
G01*
X5544997Y3260001D01*
X5685002Y3565001D02*
G01*
X5565000Y3565001D01*
X5705002Y3545001D02*
G01*
X5705002Y3540000D01*
X5544997Y3544999D02*
G01*
X5544997Y3540000D01*
X5705002Y3254999D02*
G01*
X5705002Y3260001D01*
X5544997Y3255002D02*
G01*
X5544997Y3260001D01*
X6564998Y5565000D02*
G01*
X6685000Y5565000D01*
X6544998Y5360001D02*
G01*
X6544998Y5259999D01*
X6705003Y5360001D02*
G01*
X6705003Y5259999D01*
X6544998Y5440009D02*
G01*
X6544998Y5539999D01*
X6705003Y5440009D02*
G01*
X6705003Y5539999D01*
X6564998Y5234998D02*
G01*
X6685000Y5234998D01*
X6544998Y5254998D02*
G01*
X6544998Y5259999D01*
X6705003Y5255000D02*
G01*
X6705003Y5259999D01*
X6544998Y5545000D02*
G01*
X6544998Y5539999D01*
X6705003Y5544997D02*
G01*
X6705003Y5539999D01*
X3565001Y5935002D02*
G01*
X3565001Y5814999D01*
X3360003Y5955002D02*
G01*
X3260001Y5955002D01*
X3360003Y5794997D02*
G01*
X3260001Y5794997D01*
X3440010Y5955002D02*
G01*
X3540000Y5955002D01*
X3440010Y5794997D02*
G01*
X3540000Y5794997D01*
X3234999Y5935002D02*
G01*
X3234999Y5814999D01*
X3254999Y5955002D02*
G01*
X3260001Y5955002D01*
X3255002Y5794997D02*
G01*
X3260001Y5794997D01*
X3545001Y5955002D02*
G01*
X3540000Y5955002D01*
X3544999Y5794997D02*
G01*
X3540000Y5794997D01*
X3935003Y5934999D02*
G01*
X3815001Y5934999D01*
X3955003Y6139997D02*
G01*
X3955003Y6240000D01*
X3794998Y6139997D02*
G01*
X3794998Y6240000D01*
X3955003Y6059990D02*
G01*
X3955003Y5960000D01*
X3794998Y6059990D02*
G01*
X3794998Y5960000D01*
X3935003Y6265001D02*
G01*
X3815001Y6265001D01*
X3955003Y6245001D02*
G01*
X3955003Y6240000D01*
X3794998Y6244998D02*
G01*
X3794998Y6240000D01*
X3955003Y5954999D02*
G01*
X3955003Y5960000D01*
X3794998Y5955002D02*
G01*
X3794998Y5960000D01*
X5564997Y6565000D02*
G01*
X5685000Y6565000D01*
X5544997Y6360002D02*
G01*
X5544997Y6260000D01*
X5705002Y6360002D02*
G01*
X5705002Y6260000D01*
X5544997Y6440009D02*
G01*
X5544997Y6539999D01*
X5705002Y6440009D02*
G01*
X5705002Y6539999D01*
X5564997Y6234998D02*
G01*
X5685000Y6234998D01*
X5544997Y6254998D02*
G01*
X5544997Y6260000D01*
X5705002Y6255001D02*
G01*
X5705002Y6260000D01*
X5544997Y6545000D02*
G01*
X5544997Y6539999D01*
X5705002Y6544998D02*
G01*
X5705002Y6539999D01*
X4564997Y7565001D02*
G01*
X4684999Y7565001D01*
X4544997Y7360003D02*
G01*
X4544997Y7260000D01*
X4705002Y7360003D02*
G01*
X4705002Y7260000D01*
X4544997Y7440010D02*
G01*
X4544997Y7540000D01*
X4705002Y7440010D02*
G01*
X4705002Y7540000D01*
X4564997Y7234999D02*
G01*
X4684999Y7234999D01*
X4544997Y7254999D02*
G01*
X4544997Y7260000D01*
X4705002Y7255002D02*
G01*
X4705002Y7260000D01*
X4544997Y7545001D02*
G01*
X4544997Y7540000D01*
X4705002Y7544998D02*
G01*
X4705002Y7540000D01*
G75*
G01*
X4685002Y3565002D02*
G02*
X4705002Y3545002I0J-20000D01*
G75*
G01*
X4565000Y3565002D02*
G03*
X4544997Y3544999I0J-20003D01*
G75*
G01*
X4685002Y3235000D02*
G03*
X4705002Y3255000I0J20000D01*
G75*
G01*
X4565000Y3235000D02*
G02*
X4544997Y3255002I0J20002D01*
G75*
G01*
X1890001Y4439999D02*
G02*
X1870001Y4419999I-20000J0D01*
G75*
G01*
X1890001Y4560001D02*
G03*
X1869999Y4580004I-20002J0D01*
G75*
G01*
X1559999Y4439999D02*
G03*
X1579999Y4419999I20000J0D01*
G75*
G01*
X1559999Y4560001D02*
G02*
X1580002Y4580004I20003J0D01*
G75*
G01*
X3564997Y3235000D02*
G02*
X3544997Y3255000I0J20000D01*
G75*
G01*
X3684999Y3235000D02*
G03*
X3705001Y3255002I0J20002D01*
G75*
G01*
X3564997Y3565002D02*
G03*
X3544997Y3545002I0J-20000D01*
G75*
G01*
X3684999Y3565002D02*
G02*
X3705001Y3544999I0J-20003D01*
G75*
G01*
X1935002Y4265000D02*
G02*
X1955002Y4245000I0J-20000D01*
G75*
G01*
X1815000Y4265000D02*
G03*
X1794998Y4244998I0J-20002D01*
G75*
G01*
X1935002Y3934998D02*
G03*
X1955002Y3954998I0J20000D01*
G75*
G01*
X1815000Y3934998D02*
G02*
X1794998Y3955001I0J20003D01*
G75*
G01*
X2814998Y3934998D02*
G02*
X2794998Y3954998I0J20000D01*
G75*
G01*
X2935000Y3934998D02*
G03*
X2955003Y3955001I0J20003D01*
G75*
G01*
X2814998Y4265000D02*
G03*
X2794998Y4245000I0J-20000D01*
G75*
G01*
X2935000Y4265000D02*
G02*
X2955003Y4244998I0J-20002D01*
G75*
G01*
X2685004Y5565000D02*
G02*
X2705003Y5545000I0J-20000D01*
G75*
G01*
X2565001Y5565000D02*
G03*
X2544999Y5544998I0J-20002D01*
G75*
G01*
X2685004Y5234998D02*
G03*
X2705003Y5254998I0J20000D01*
G75*
G01*
X2565001Y5234998D02*
G02*
X2544999Y5255001I0J20003D01*
G75*
G01*
X3685002Y5565000D02*
G02*
X3705001Y5545000I0J-20000D01*
G75*
G01*
X3564999Y5565000D02*
G03*
X3544997Y5544998I0J-20002D01*
G75*
G01*
X3685002Y5234998D02*
G03*
X3705001Y5254998I0J20000D01*
G75*
G01*
X3564999Y5234998D02*
G02*
X3544997Y5255001I0J20003D01*
G75*
G01*
X4685002Y5565000D02*
G02*
X4705002Y5545000I0J-20000D01*
G75*
G01*
X4565000Y5565000D02*
G03*
X4544997Y5544998I0J-20002D01*
G75*
G01*
X4685002Y5234998D02*
G03*
X4705002Y5254998I0J20000D01*
G75*
G01*
X4565000Y5234998D02*
G02*
X4544997Y5255001I0J20003D01*
G75*
G01*
X5564998Y5234998D02*
G02*
X5544998Y5254998I0J20000D01*
G75*
G01*
X5685000Y5234998D02*
G03*
X5705003Y5255001I0J20003D01*
G75*
G01*
X5564998Y5565000D02*
G03*
X5544998Y5545000I0J-20000D01*
G75*
G01*
X5685000Y5565000D02*
G02*
X5705003Y5544998I0J-20002D01*
G75*
G01*
X5935002Y4265000D02*
G02*
X5955002Y4245000I0J-20000D01*
G75*
G01*
X5815000Y4265000D02*
G03*
X5794997Y4244998I0J-20002D01*
G75*
G01*
X5935002Y3934998D02*
G03*
X5955002Y3954998I0J20000D01*
G75*
G01*
X5815000Y3934998D02*
G02*
X5794997Y3955001I0J20003D01*
G75*
G01*
X2564999Y3235000D02*
G02*
X2544999Y3255000I0J20000D01*
G75*
G01*
X2685001Y3235000D02*
G03*
X2705003Y3255002I0J20002D01*
G75*
G01*
X2564999Y3565002D02*
G03*
X2544999Y3545002I0J-20000D01*
G75*
G01*
X2685001Y3565002D02*
G02*
X2705003Y3544999I0J-20003D01*
G75*
G01*
X7735004Y4340001D02*
G02*
X7755004Y4320002I0J-19999D01*
G75*
G01*
X7615001Y4340001D02*
G03*
X7594999Y4319999I0J-20002D01*
G75*
G01*
X7735004Y4010000D02*
G03*
X7755004Y4030000I0J20000D01*
G75*
G01*
X7615001Y4010000D02*
G02*
X7594999Y4030002I0J20002D01*
G75*
G01*
X3814999Y3934998D02*
G02*
X3794999Y3954998I0J20000D01*
G75*
G01*
X3935001Y3934998D02*
G03*
X3955004Y3955001I0J20003D01*
G75*
G01*
X3814999Y4265000D02*
G03*
X3794999Y4245000I0J-20000D01*
G75*
G01*
X3935001Y4265000D02*
G02*
X3955004Y4244998I0J-20002D01*
G75*
G01*
X4814997Y3934998D02*
G02*
X4794997Y3954998I0J20000D01*
G75*
G01*
X4934999Y3934998D02*
G03*
X4955002Y3955001I0J20003D01*
G75*
G01*
X4814997Y4265000D02*
G03*
X4794997Y4245000I0J-20000D01*
G75*
G01*
X4934999Y4265000D02*
G02*
X4955002Y4244998I0J-20002D01*
G75*
G01*
X3890000Y2439998D02*
G02*
X3870000Y2419998I-20000J0D01*
G75*
G01*
X3890000Y2560000D02*
G03*
X3869997Y2580002I-20003J0D01*
G75*
G01*
X3559998Y2439998D02*
G03*
X3579998Y2419998I20000J0D01*
G75*
G01*
X3559998Y2560000D02*
G02*
X3580000Y2580002I20002J0D01*
G75*
G01*
X3935004Y2265002D02*
G02*
X3955004Y2245002I0J-20000D01*
G75*
G01*
X3815001Y2265002D02*
G03*
X3794999Y2244999I0J-20003D01*
G75*
G01*
X3935004Y1935000D02*
G03*
X3955004Y1955000I0J20000D01*
G75*
G01*
X3815001Y1935000D02*
G02*
X3794999Y1955002I0J20002D01*
G75*
G01*
X4564997Y1234999D02*
G02*
X4544997Y1254999I0J20000D01*
G75*
G01*
X4685000Y1234999D02*
G03*
X4705002Y1255001I0J20002D01*
G75*
G01*
X4564997Y1565001D02*
G03*
X4544997Y1545001I0J-20000D01*
G75*
G01*
X4685000Y1565001D02*
G02*
X4705002Y1544998I0J-20003D01*
G75*
G01*
X5735003Y2340000D02*
G02*
X5755002Y2320000I-1J-20000D01*
G75*
G01*
X5615000Y2340000D02*
G03*
X5594998Y2319998I0J-20002D01*
G75*
G01*
X5735003Y2009999D02*
G03*
X5755002Y2029998I-1J19999D01*
G75*
G01*
X5615000Y2009999D02*
G02*
X5594998Y2030001I0J20002D01*
G75*
G01*
X6685003Y3565002D02*
G02*
X6705003Y3545002I0J-20000D01*
G75*
G01*
X6565001Y3565002D02*
G03*
X6544998Y3544999I0J-20003D01*
G75*
G01*
X6685003Y3235000D02*
G03*
X6705003Y3255000I0J20000D01*
G75*
G01*
X6565001Y3235000D02*
G02*
X6544998Y3255002I0J20002D01*
G75*
G01*
X5685003Y3565002D02*
G02*
X5705003Y3545002I0J-20000D01*
G75*
G01*
X5565000Y3565002D02*
G03*
X5544998Y3544999I0J-20003D01*
G75*
G01*
X5685003Y3235000D02*
G03*
X5705003Y3255000I0J20000D01*
G75*
G01*
X5565000Y3235000D02*
G02*
X5544998Y3255002I0J20002D01*
G75*
G01*
X6564998Y5234998D02*
G02*
X6544998Y5254998I0J20000D01*
G75*
G01*
X6685001Y5234998D02*
G03*
X6705003Y5255001I0J20003D01*
G75*
G01*
X6564998Y5565000D02*
G03*
X6544998Y5545000I0J-20000D01*
G75*
G01*
X6685001Y5565000D02*
G02*
X6705003Y5544998I0J-20002D01*
G75*
G01*
X3235000Y5935002D02*
G02*
X3255000Y5955002I20000J0D01*
G75*
G01*
X3235000Y5815000D02*
G03*
X3255002Y5794997I20002J0D01*
G75*
G01*
X3565002Y5935002D02*
G03*
X3545002Y5955002I-20000J0D01*
G75*
G01*
X3565002Y5815000D02*
G02*
X3544999Y5794997I-20003J0D01*
G75*
G01*
X3935004Y6265001D02*
G02*
X3955004Y6245001I0J-20000D01*
G75*
G01*
X3815001Y6265001D02*
G03*
X3794999Y6244999I0J-20002D01*
G75*
G01*
X3935004Y5935000D02*
G03*
X3955004Y5955000I0J20000D01*
G75*
G01*
X3815001Y5935000D02*
G02*
X3794999Y5955002I0J20002D01*
G75*
G01*
X5564998Y6234999D02*
G02*
X5544998Y6254999I0J20000D01*
G75*
G01*
X5685000Y6234999D02*
G03*
X5705003Y6255001I0J20002D01*
G75*
G01*
X5564998Y6565001D02*
G03*
X5544998Y6545001I0J-20000D01*
G75*
G01*
X5685000Y6565001D02*
G02*
X5705003Y6544998I0J-20003D01*
G75*
G01*
X4564997Y7235000D02*
G02*
X4544997Y7254999I0J19999D01*
G75*
G01*
X4685000Y7235000D02*
G03*
X4705002Y7255002I0J20002D01*
G75*
G01*
X4564997Y7565001D02*
G03*
X4544997Y7545001I0J-20000D01*
G75*
G01*
X4685000Y7565001D02*
G02*
X4705002Y7544999I0J-20002D01*
G75*
G01
X8149996Y4250004D02*
G03X8149996Y4250004I-3899992J0D01*
G75*
G01
X4399915Y1249832D02*
G03X4399915Y1249832I-150012J0D01*
G75*
G01
X4509897Y1549883D02*
G03X4509897Y1549883I-10008J0D01*
G75*
G01
X3399917Y2249830D02*
G03X3399917Y2249830I-150012J0D01*
G75*
G01
X3509899Y2549881D02*
G03X3509899Y2549881I-10008J0D01*
G75*
G01
X4399915Y2249957D02*
G03X4399915Y2249957I-150012J0D01*
G75*
G01
X4009898Y1949907D02*
G03X4009898Y1949907I-10008J0D01*
G75*
G01
X5399837Y2249907D02*
G03X5399837Y2249907I-150012J0D01*
G75*
G01
X5559882Y1999920D02*
G03X5559882Y1999920I-10008J0D01*
G75*
G01
X6399911Y3249828D02*
G03X6399911Y3249828I-150012J0D01*
G75*
G01
X6509893Y3549879D02*
G03X6509893Y3549879I-10008J0D01*
G75*
G01
X5399913Y3249828D02*
G03X5399913Y3249828I-150012J0D01*
G75*
G01
X5509895Y3549879D02*
G03X5509895Y3549879I-10008J0D01*
G75*
G01
X4399915Y3249828D02*
G03X4399915Y3249828I-150012J0D01*
G75*
G01
X4509897Y3549879D02*
G03X4509897Y3549879I-10008J0D01*
G75*
G01
X3399917Y3249828D02*
G03X3399917Y3249828I-150012J0D01*
G75*
G01
X3509899Y3549879D02*
G03X3509899Y3549879I-10008J0D01*
G75*
G01
X2399894Y3249828D02*
G03X2399894Y3249828I-150012J0D01*
G75*
G01
X2509901Y3549879D02*
G03X2509901Y3549879I-10008J0D01*
G75*
G01
X1399921Y4249826D02*
G03X1399921Y4249826I-150012J0D01*
G75*
G01
X1509903Y4549877D02*
G03X1509903Y4549877I-10008J0D01*
G75*
G01
X2399894Y4249953D02*
G03X2399894Y4249953I-150012J0D01*
G75*
G01
X2009927Y3949903D02*
G03X2009927Y3949903I-10008J0D01*
G75*
G01
X3399917Y4249953D02*
G03X3399917Y4249953I-150012J0D01*
G75*
G01
X3009925Y3949903D02*
G03X3009925Y3949903I-10008J0D01*
G75*
G01
X4399915Y4249953D02*
G03X4399915Y4249953I-150012J0D01*
G75*
G01
X4009898Y3949903D02*
G03X4009898Y3949903I-10008J0D01*
G75*
G01
X5399913Y4249953D02*
G03X5399913Y4249953I-150012J0D01*
G75*
G01
X5009921Y3949903D02*
G03X5009921Y3949903I-10008J0D01*
G75*
G01
X6399911Y4249953D02*
G03X6399911Y4249953I-150012J0D01*
G75*
G01
X6009919Y3949903D02*
G03X6009919Y3949903I-10008J0D01*
G75*
G01
X7399833Y4249903D02*
G03X7399833Y4249903I-150012J0D01*
G75*
G01
X7559878Y3999916D02*
G03X7559878Y3999916I-10008J0D01*
G75*
G01
X6399911Y5249824D02*
G03X6399911Y5249824I-150012J0D01*
G75*
G01
X6509893Y5549875D02*
G03X6509893Y5549875I-10008J0D01*
G75*
G01
X5399913Y5249824D02*
G03X5399913Y5249824I-150012J0D01*
G75*
G01
X5509895Y5549875D02*
G03X5509895Y5549875I-10008J0D01*
G75*
G01
X4399915Y5249824D02*
G03X4399915Y5249824I-150012J0D01*
G75*
G01
X4509897Y5549875D02*
G03X4509897Y5549875I-10008J0D01*
G75*
G01
X3399917Y5249824D02*
G03X3399917Y5249824I-150012J0D01*
G75*
G01
X3509899Y5549875D02*
G03X3509899Y5549875I-10008J0D01*
G75*
G01
X2399894Y5249824D02*
G03X2399894Y5249824I-150012J0D01*
G75*
G01
X2509901Y5549875D02*
G03X2509901Y5549875I-10008J0D01*
G75*
G01
X3399841Y6249899D02*
G03X3399841Y6249899I-150012J0D01*
G75*
G01
X3559886Y5999912D02*
G03X3559886Y5999912I-10008J0D01*
G75*
G01
X4399915Y6249949D02*
G03X4399915Y6249949I-150012J0D01*
G75*
G01
X4009898Y5949899D02*
G03X4009898Y5949899I-10008J0D01*
G75*
G01
X5399913Y6249822D02*
G03X5399913Y6249822I-150012J0D01*
G75*
G01
X5509895Y6549873D02*
G03X5509895Y6549873I-10008J0D01*
G75*
G01
X4399915Y7249820D02*
G03X4399915Y7249820I-150012J0D01*
G75*
G01
X4509897Y7549871D02*
G03X4509897Y7549871I-10008J0D01*
M02*
