M48
METRIC,LZ,000.000
;FILE_FORMAT=3:3
;TYPE=PLATED
;Layer: Drill PTH
;EasyEDA v6.4.25, 2022-01-30T22:18:30+11:00
;a67cddfb3fce44daa9051d46cbbcc19f,10
;Gerber Generator version 0.2
;Holesize 1 = 0.305 mm
T01C0.305
;Holesize 2 = 0.915 mm
T02C0.915
;Holesize 3 = 1.200 mm
T03C1.200
%
G05
G90
T01
X078125Y042625
X069000Y045000
X047500Y013125
X039875Y009375
X058000Y022625
X049250Y025125
X038125Y023625
X038750Y023125
X045125Y025625
X030875Y018750
X040000Y029250
X049875Y029250
X047500Y033125
X037500Y033125
X030000Y029250
X057500Y033125
X060000Y029125
X067500Y033000
X057500Y041625
X055125Y045500
X047500Y041625
X065000Y045500
X045000Y045500
X037500Y041750
X035125Y045500
X027500Y041625
X025125Y045625
X018125Y043750
X019250Y043125
X010000Y039125
X027500Y033125
X020000Y029250
X020000Y049125
X027500Y053125
X030000Y049000
X037500Y053125
X040000Y049125
X047500Y053125
X050000Y049000
X057625Y053125
X060000Y049125
X067500Y053125
X049875Y059375
X057500Y063125
X045125Y065500
X040000Y069250
X037375Y061750
X029000Y065000
X032000Y057750
X040850Y070050
X047500Y073125
T02
X009960Y030000
X015040Y030000
T03
X022475Y017525
X020000Y020000
X017525Y022475
X062526Y067476
X065001Y065001
X067476Y062526
M30
