G04 Layer: TopSolderMaskLayer*
G04 EasyEDA v6.4.25, 2022-01-30T22:18:30+11:00*
G04 a67cddfb3fce44daa9051d46cbbcc19f,10*
G04 Gerber Generator version 0.2*
G04 Scale: 100 percent, Rotated: No, Reflected: No *
G04 Dimensions in millimeters *
G04 leading zeros omitted , absolute positions ,4 integer and 5 decimal *
%FSLAX45Y45*%
%MOMM*%

%ADD21C,1.7272*%
%ADD22C,2.1016*%
%ADD26R,1.3032X1.2032*%

%LPD*%
D21*
G01*
X996010Y2999994D03*
G01*
X1504010Y2999994D03*
D22*
G01*
X2247493Y1752498D03*
G01*
X2000021Y1999995D03*
G01*
X1752523Y2247493D03*
G01*
X6252641Y6747611D03*
G01*
X6500113Y6500113D03*
G01*
X6747611Y6252616D03*
G36*
X4029963Y924813D02*
G01*
X4029963Y1084834D01*
X4139945Y1084834D01*
X4139945Y924813D01*
G37*
G36*
X4359909Y924813D02*
G01*
X4359909Y1084834D01*
X4469891Y1084834D01*
X4469891Y924813D01*
G37*
G36*
X4359909Y1414779D02*
G01*
X4359909Y1575054D01*
X4469891Y1575054D01*
X4469891Y1414779D01*
G37*
G36*
X4029963Y1414779D02*
G01*
X4029963Y1575054D01*
X4139945Y1575054D01*
X4139945Y1414779D01*
G37*
G36*
X3029965Y1924812D02*
G01*
X3029965Y2084831D01*
X3139947Y2084831D01*
X3139947Y1924812D01*
G37*
G36*
X3359911Y1924812D02*
G01*
X3359911Y2084831D01*
X3469893Y2084831D01*
X3469893Y1924812D01*
G37*
G36*
X3359911Y2414778D02*
G01*
X3359911Y2575052D01*
X3469893Y2575052D01*
X3469893Y2414778D01*
G37*
G36*
X3029965Y2414778D02*
G01*
X3029965Y2575052D01*
X3139947Y2575052D01*
X3139947Y2414778D01*
G37*
G36*
X4359909Y2414778D02*
G01*
X4359909Y2574797D01*
X4469891Y2574797D01*
X4469891Y2414778D01*
G37*
G36*
X4029963Y2414778D02*
G01*
X4029963Y2574797D01*
X4139945Y2574797D01*
X4139945Y2414778D01*
G37*
G36*
X4029963Y1924812D02*
G01*
X4029963Y2085086D01*
X4139945Y2085086D01*
X4139945Y1924812D01*
G37*
G36*
X4359909Y1924812D02*
G01*
X4359909Y2085086D01*
X4469891Y2085086D01*
X4469891Y1924812D01*
G37*
G36*
X4924806Y2359913D02*
G01*
X4924806Y2469895D01*
X5084825Y2469895D01*
X5084825Y2359913D01*
G37*
G36*
X4924806Y2029968D02*
G01*
X4924806Y2139950D01*
X5084825Y2139950D01*
X5084825Y2029968D01*
G37*
G36*
X5414772Y2029968D02*
G01*
X5414772Y2139950D01*
X5575045Y2139950D01*
X5575045Y2029968D01*
G37*
G36*
X5414772Y2359913D02*
G01*
X5414772Y2469895D01*
X5575045Y2469895D01*
X5575045Y2359913D01*
G37*
G36*
X6029959Y2924810D02*
G01*
X6029959Y3084829D01*
X6139941Y3084829D01*
X6139941Y2924810D01*
G37*
G36*
X6359906Y2924810D02*
G01*
X6359906Y3084829D01*
X6469888Y3084829D01*
X6469888Y2924810D01*
G37*
G36*
X6359906Y3414776D02*
G01*
X6359906Y3575050D01*
X6469888Y3575050D01*
X6469888Y3414776D01*
G37*
G36*
X6029959Y3414776D02*
G01*
X6029959Y3575050D01*
X6139941Y3575050D01*
X6139941Y3414776D01*
G37*
G36*
X5029961Y2924810D02*
G01*
X5029961Y3084829D01*
X5139943Y3084829D01*
X5139943Y2924810D01*
G37*
G36*
X5359908Y2924810D02*
G01*
X5359908Y3084829D01*
X5469890Y3084829D01*
X5469890Y2924810D01*
G37*
G36*
X5359908Y3414776D02*
G01*
X5359908Y3575050D01*
X5469890Y3575050D01*
X5469890Y3414776D01*
G37*
G36*
X5029961Y3414776D02*
G01*
X5029961Y3575050D01*
X5139943Y3575050D01*
X5139943Y3414776D01*
G37*
G36*
X4029963Y2924810D02*
G01*
X4029963Y3084829D01*
X4139945Y3084829D01*
X4139945Y2924810D01*
G37*
G36*
X4359909Y2924810D02*
G01*
X4359909Y3084829D01*
X4469891Y3084829D01*
X4469891Y2924810D01*
G37*
G36*
X4359909Y3414776D02*
G01*
X4359909Y3575050D01*
X4469891Y3575050D01*
X4469891Y3414776D01*
G37*
G36*
X4029963Y3414776D02*
G01*
X4029963Y3575050D01*
X4139945Y3575050D01*
X4139945Y3414776D01*
G37*
G36*
X3029965Y2924810D02*
G01*
X3029965Y3084829D01*
X3139947Y3084829D01*
X3139947Y2924810D01*
G37*
G36*
X3359911Y2924810D02*
G01*
X3359911Y3084829D01*
X3469893Y3084829D01*
X3469893Y2924810D01*
G37*
G36*
X3359911Y3414776D02*
G01*
X3359911Y3575050D01*
X3469893Y3575050D01*
X3469893Y3414776D01*
G37*
G36*
X3029965Y3414776D02*
G01*
X3029965Y3575050D01*
X3139947Y3575050D01*
X3139947Y3414776D01*
G37*
G36*
X2029968Y2924810D02*
G01*
X2029968Y3084829D01*
X2139950Y3084829D01*
X2139950Y2924810D01*
G37*
G36*
X2359913Y2924810D02*
G01*
X2359913Y3084829D01*
X2469895Y3084829D01*
X2469895Y2924810D01*
G37*
G36*
X2359913Y3414776D02*
G01*
X2359913Y3575050D01*
X2469895Y3575050D01*
X2469895Y3414776D01*
G37*
G36*
X2029968Y3414776D02*
G01*
X2029968Y3575050D01*
X2139950Y3575050D01*
X2139950Y3414776D01*
G37*
G36*
X1029970Y3924807D02*
G01*
X1029970Y4084828D01*
X1139952Y4084828D01*
X1139952Y3924807D01*
G37*
G36*
X1359915Y3924807D02*
G01*
X1359915Y4084828D01*
X1469897Y4084828D01*
X1469897Y3924807D01*
G37*
G36*
X1359915Y4414773D02*
G01*
X1359915Y4575047D01*
X1469897Y4575047D01*
X1469897Y4414773D01*
G37*
G36*
X1029970Y4414773D02*
G01*
X1029970Y4575047D01*
X1139952Y4575047D01*
X1139952Y4414773D01*
G37*
G36*
X2359913Y4414773D02*
G01*
X2359913Y4574794D01*
X2469895Y4574794D01*
X2469895Y4414773D01*
G37*
G36*
X2029968Y4414773D02*
G01*
X2029968Y4574794D01*
X2139950Y4574794D01*
X2139950Y4414773D01*
G37*
G36*
X2029968Y3924807D02*
G01*
X2029968Y4085081D01*
X2139950Y4085081D01*
X2139950Y3924807D01*
G37*
G36*
X2359913Y3924807D02*
G01*
X2359913Y4085081D01*
X2469895Y4085081D01*
X2469895Y3924807D01*
G37*
G36*
X3359911Y4414773D02*
G01*
X3359911Y4574794D01*
X3469893Y4574794D01*
X3469893Y4414773D01*
G37*
G36*
X3029965Y4414773D02*
G01*
X3029965Y4574794D01*
X3139947Y4574794D01*
X3139947Y4414773D01*
G37*
G36*
X3029965Y3924807D02*
G01*
X3029965Y4085081D01*
X3139947Y4085081D01*
X3139947Y3924807D01*
G37*
G36*
X3359911Y3924807D02*
G01*
X3359911Y4085081D01*
X3469893Y4085081D01*
X3469893Y3924807D01*
G37*
G36*
X4359909Y4414773D02*
G01*
X4359909Y4574794D01*
X4469891Y4574794D01*
X4469891Y4414773D01*
G37*
G36*
X4029963Y4414773D02*
G01*
X4029963Y4574794D01*
X4139945Y4574794D01*
X4139945Y4414773D01*
G37*
G36*
X4029963Y3924807D02*
G01*
X4029963Y4085081D01*
X4139945Y4085081D01*
X4139945Y3924807D01*
G37*
G36*
X4359909Y3924807D02*
G01*
X4359909Y4085081D01*
X4469891Y4085081D01*
X4469891Y3924807D01*
G37*
G36*
X5359908Y4414773D02*
G01*
X5359908Y4574794D01*
X5469890Y4574794D01*
X5469890Y4414773D01*
G37*
G36*
X5029961Y4414773D02*
G01*
X5029961Y4574794D01*
X5139943Y4574794D01*
X5139943Y4414773D01*
G37*
G36*
X5029961Y3924807D02*
G01*
X5029961Y4085081D01*
X5139943Y4085081D01*
X5139943Y3924807D01*
G37*
G36*
X5359908Y3924807D02*
G01*
X5359908Y4085081D01*
X5469890Y4085081D01*
X5469890Y3924807D01*
G37*
G36*
X6359906Y4414773D02*
G01*
X6359906Y4574794D01*
X6469888Y4574794D01*
X6469888Y4414773D01*
G37*
G36*
X6029959Y4414773D02*
G01*
X6029959Y4574794D01*
X6139941Y4574794D01*
X6139941Y4414773D01*
G37*
G36*
X6029959Y3924807D02*
G01*
X6029959Y4085081D01*
X6139941Y4085081D01*
X6139941Y3924807D01*
G37*
G36*
X6359906Y3924807D02*
G01*
X6359906Y4085081D01*
X6469888Y4085081D01*
X6469888Y3924807D01*
G37*
G36*
X6924802Y4359910D02*
G01*
X6924802Y4469892D01*
X7084822Y4469892D01*
X7084822Y4359910D01*
G37*
G36*
X6924802Y4029963D02*
G01*
X6924802Y4139945D01*
X7084822Y4139945D01*
X7084822Y4029963D01*
G37*
G36*
X7414768Y4029963D02*
G01*
X7414768Y4139945D01*
X7575041Y4139945D01*
X7575041Y4029963D01*
G37*
G36*
X7414768Y4359910D02*
G01*
X7414768Y4469892D01*
X7575041Y4469892D01*
X7575041Y4359910D01*
G37*
G36*
X6029959Y4924805D02*
G01*
X6029959Y5084826D01*
X6139941Y5084826D01*
X6139941Y4924805D01*
G37*
G36*
X6359906Y4924805D02*
G01*
X6359906Y5084826D01*
X6469888Y5084826D01*
X6469888Y4924805D01*
G37*
G36*
X6359906Y5414771D02*
G01*
X6359906Y5575045D01*
X6469888Y5575045D01*
X6469888Y5414771D01*
G37*
G36*
X6029959Y5414771D02*
G01*
X6029959Y5575045D01*
X6139941Y5575045D01*
X6139941Y5414771D01*
G37*
G36*
X5029961Y4924805D02*
G01*
X5029961Y5084826D01*
X5139943Y5084826D01*
X5139943Y4924805D01*
G37*
G36*
X5359908Y4924805D02*
G01*
X5359908Y5084826D01*
X5469890Y5084826D01*
X5469890Y4924805D01*
G37*
G36*
X5359908Y5414771D02*
G01*
X5359908Y5575045D01*
X5469890Y5575045D01*
X5469890Y5414771D01*
G37*
G36*
X5029961Y5414771D02*
G01*
X5029961Y5575045D01*
X5139943Y5575045D01*
X5139943Y5414771D01*
G37*
G36*
X4029963Y4924805D02*
G01*
X4029963Y5084826D01*
X4139945Y5084826D01*
X4139945Y4924805D01*
G37*
G36*
X4359909Y4924805D02*
G01*
X4359909Y5084826D01*
X4469891Y5084826D01*
X4469891Y4924805D01*
G37*
G36*
X4359909Y5414771D02*
G01*
X4359909Y5575045D01*
X4469891Y5575045D01*
X4469891Y5414771D01*
G37*
G36*
X4029963Y5414771D02*
G01*
X4029963Y5575045D01*
X4139945Y5575045D01*
X4139945Y5414771D01*
G37*
G36*
X3029965Y4924805D02*
G01*
X3029965Y5084826D01*
X3139947Y5084826D01*
X3139947Y4924805D01*
G37*
G36*
X3359911Y4924805D02*
G01*
X3359911Y5084826D01*
X3469893Y5084826D01*
X3469893Y4924805D01*
G37*
G36*
X3359911Y5414771D02*
G01*
X3359911Y5575045D01*
X3469893Y5575045D01*
X3469893Y5414771D01*
G37*
G36*
X3029965Y5414771D02*
G01*
X3029965Y5575045D01*
X3139947Y5575045D01*
X3139947Y5414771D01*
G37*
G36*
X2029968Y4924805D02*
G01*
X2029968Y5084826D01*
X2139950Y5084826D01*
X2139950Y4924805D01*
G37*
G36*
X2359913Y4924805D02*
G01*
X2359913Y5084826D01*
X2469895Y5084826D01*
X2469895Y4924805D01*
G37*
G36*
X2359913Y5414771D02*
G01*
X2359913Y5575045D01*
X2469895Y5575045D01*
X2469895Y5414771D01*
G37*
G36*
X2029968Y5414771D02*
G01*
X2029968Y5575045D01*
X2139950Y5575045D01*
X2139950Y5414771D01*
G37*
G36*
X2924809Y6359905D02*
G01*
X2924809Y6469887D01*
X3084829Y6469887D01*
X3084829Y6359905D01*
G37*
G36*
X2924809Y6029960D02*
G01*
X2924809Y6139942D01*
X3084829Y6139942D01*
X3084829Y6029960D01*
G37*
G36*
X3414775Y6029960D02*
G01*
X3414775Y6139942D01*
X3575050Y6139942D01*
X3575050Y6029960D01*
G37*
G36*
X3414775Y6359905D02*
G01*
X3414775Y6469887D01*
X3575050Y6469887D01*
X3575050Y6359905D01*
G37*
G36*
X4359909Y6414770D02*
G01*
X4359909Y6574789D01*
X4469891Y6574789D01*
X4469891Y6414770D01*
G37*
G36*
X4029963Y6414770D02*
G01*
X4029963Y6574789D01*
X4139945Y6574789D01*
X4139945Y6414770D01*
G37*
G36*
X4029963Y5924804D02*
G01*
X4029963Y6085078D01*
X4139945Y6085078D01*
X4139945Y5924804D01*
G37*
G36*
X4359909Y5924804D02*
G01*
X4359909Y6085078D01*
X4469891Y6085078D01*
X4469891Y5924804D01*
G37*
G36*
X5029961Y5924804D02*
G01*
X5029961Y6084823D01*
X5139943Y6084823D01*
X5139943Y5924804D01*
G37*
G36*
X5359908Y5924804D02*
G01*
X5359908Y6084823D01*
X5469890Y6084823D01*
X5469890Y5924804D01*
G37*
G36*
X5359908Y6414770D02*
G01*
X5359908Y6575044D01*
X5469890Y6575044D01*
X5469890Y6414770D01*
G37*
G36*
X5029961Y6414770D02*
G01*
X5029961Y6575044D01*
X5139943Y6575044D01*
X5139943Y6414770D01*
G37*
G36*
X4029963Y6924802D02*
G01*
X4029963Y7084821D01*
X4139945Y7084821D01*
X4139945Y6924802D01*
G37*
G36*
X4359909Y6924802D02*
G01*
X4359909Y7084821D01*
X4469891Y7084821D01*
X4469891Y6924802D01*
G37*
G36*
X4359909Y7414768D02*
G01*
X4359909Y7575042D01*
X4469891Y7575042D01*
X4469891Y7414768D01*
G37*
G36*
X4029963Y7414768D02*
G01*
X4029963Y7575042D01*
X4139945Y7575042D01*
X4139945Y7414768D01*
G37*
G36*
X4225036Y689863D02*
G01*
X4225036Y810005D01*
X4335018Y810005D01*
X4335018Y689863D01*
G37*
G36*
X4065015Y689863D02*
G01*
X4065015Y810005D01*
X4174997Y810005D01*
X4174997Y689863D01*
G37*
G36*
X4559808Y3429762D02*
G01*
X4559808Y3550157D01*
X4690109Y3550157D01*
X4690109Y3429762D01*
G37*
G36*
X4559808Y3249929D02*
G01*
X4559808Y3370071D01*
X4690109Y3370071D01*
X4690109Y3249929D01*
G37*
G36*
X1754886Y4434839D02*
G01*
X1754886Y4565142D01*
X1875281Y4565142D01*
X1875281Y4434839D01*
G37*
G36*
X1574800Y4434839D02*
G01*
X1574800Y4565142D01*
X1695195Y4565142D01*
X1695195Y4434839D01*
G37*
G36*
X3559809Y3249929D02*
G01*
X3559809Y3370071D01*
X3690111Y3370071D01*
X3690111Y3249929D01*
G37*
G36*
X3559809Y3429762D02*
G01*
X3559809Y3550157D01*
X3690111Y3550157D01*
X3690111Y3429762D01*
G37*
G36*
X1809750Y4129786D02*
G01*
X1809750Y4250181D01*
X1940052Y4250181D01*
X1940052Y4129786D01*
G37*
G36*
X1809750Y3949700D02*
G01*
X1809750Y4070095D01*
X1940052Y4070095D01*
X1940052Y3949700D01*
G37*
G36*
X2809747Y3949954D02*
G01*
X2809747Y4070095D01*
X2940050Y4070095D01*
X2940050Y3949954D01*
G37*
G36*
X2809747Y4129786D02*
G01*
X2809747Y4250181D01*
X2940050Y4250181D01*
X2940050Y4129786D01*
G37*
G36*
X2559811Y5429757D02*
G01*
X2559811Y5550154D01*
X2690113Y5550154D01*
X2690113Y5429757D01*
G37*
G36*
X2559811Y5249926D02*
G01*
X2559811Y5370068D01*
X2690113Y5370068D01*
X2690113Y5249926D01*
G37*
G36*
X3559809Y5429757D02*
G01*
X3559809Y5550154D01*
X3690111Y5550154D01*
X3690111Y5429757D01*
G37*
G36*
X3559809Y5249926D02*
G01*
X3559809Y5370068D01*
X3690111Y5370068D01*
X3690111Y5249926D01*
G37*
G36*
X4559808Y5429757D02*
G01*
X4559808Y5550154D01*
X4690109Y5550154D01*
X4690109Y5429757D01*
G37*
G36*
X4559808Y5249926D02*
G01*
X4559808Y5370068D01*
X4690109Y5370068D01*
X4690109Y5249926D01*
G37*
G36*
X5559806Y5249926D02*
G01*
X5559806Y5370068D01*
X5690108Y5370068D01*
X5690108Y5249926D01*
G37*
G36*
X5559806Y5429757D02*
G01*
X5559806Y5550154D01*
X5690108Y5550154D01*
X5690108Y5429757D01*
G37*
G36*
X5809741Y4129786D02*
G01*
X5809741Y4250181D01*
X5940043Y4250181D01*
X5940043Y4129786D01*
G37*
G36*
X5809741Y3949700D02*
G01*
X5809741Y4070095D01*
X5940043Y4070095D01*
X5940043Y3949700D01*
G37*
G36*
X2559811Y3249929D02*
G01*
X2559811Y3370071D01*
X2690113Y3370071D01*
X2690113Y3249929D01*
G37*
D26*
G01*
X2624988Y3490010D03*
G36*
X7609840Y4204715D02*
G01*
X7609840Y4325112D01*
X7740141Y4325112D01*
X7740141Y4204715D01*
G37*
G36*
X7609840Y4024884D02*
G01*
X7609840Y4145026D01*
X7740141Y4145026D01*
X7740141Y4024884D01*
G37*
G36*
X3809745Y3949954D02*
G01*
X3809745Y4070095D01*
X3940047Y4070095D01*
X3940047Y3949954D01*
G37*
G36*
X3809745Y4129786D02*
G01*
X3809745Y4250181D01*
X3940047Y4250181D01*
X3940047Y4129786D01*
G37*
G36*
X4809743Y3949954D02*
G01*
X4809743Y4070095D01*
X4940045Y4070095D01*
X4940045Y3949954D01*
G37*
G36*
X4809743Y4129786D02*
G01*
X4809743Y4250181D01*
X4940045Y4250181D01*
X4940045Y4129786D01*
G37*
G36*
X3754881Y2434844D02*
G01*
X3754881Y2565145D01*
X3875277Y2565145D01*
X3875277Y2434844D01*
G37*
G36*
X3574795Y2434844D02*
G01*
X3574795Y2565145D01*
X3695191Y2565145D01*
X3695191Y2434844D01*
G37*
G36*
X3809745Y2129789D02*
G01*
X3809745Y2250186D01*
X3940047Y2250186D01*
X3940047Y2129789D01*
G37*
G36*
X3809745Y1949704D02*
G01*
X3809745Y2070100D01*
X3940047Y2070100D01*
X3940047Y1949704D01*
G37*
G36*
X4559808Y1249934D02*
G01*
X4559808Y1370076D01*
X4690109Y1370076D01*
X4690109Y1249934D01*
G37*
G36*
X4559808Y1429765D02*
G01*
X4559808Y1550162D01*
X4690109Y1550162D01*
X4690109Y1429765D01*
G37*
G36*
X5609843Y2204720D02*
G01*
X5609843Y2325115D01*
X5740145Y2325115D01*
X5740145Y2204720D01*
G37*
G36*
X5609843Y2024887D02*
G01*
X5609843Y2145029D01*
X5740145Y2145029D01*
X5740145Y2024887D01*
G37*
G36*
X6559804Y3429762D02*
G01*
X6559804Y3550157D01*
X6690106Y3550157D01*
X6690106Y3429762D01*
G37*
G36*
X6559804Y3249929D02*
G01*
X6559804Y3370071D01*
X6690106Y3370071D01*
X6690106Y3249929D01*
G37*
G36*
X5559806Y3429762D02*
G01*
X5559806Y3550157D01*
X5690108Y3550157D01*
X5690108Y3429762D01*
G37*
G36*
X5559806Y3249929D02*
G01*
X5559806Y3370071D01*
X5690108Y3370071D01*
X5690108Y3249929D01*
G37*
G36*
X6559804Y5249926D02*
G01*
X6559804Y5370068D01*
X6690106Y5370068D01*
X6690106Y5249926D01*
G37*
G36*
X6559804Y5429757D02*
G01*
X6559804Y5550154D01*
X6690106Y5550154D01*
X6690106Y5429757D01*
G37*
G36*
X3249929Y5809742D02*
G01*
X3249929Y5940044D01*
X3370072Y5940044D01*
X3370072Y5809742D01*
G37*
G36*
X3429761Y5809742D02*
G01*
X3429761Y5940044D01*
X3550158Y5940044D01*
X3550158Y5809742D01*
G37*
G36*
X3809745Y6129781D02*
G01*
X3809745Y6250178D01*
X3940047Y6250178D01*
X3940047Y6129781D01*
G37*
G36*
X3809745Y5949950D02*
G01*
X3809745Y6070092D01*
X3940047Y6070092D01*
X3940047Y5949950D01*
G37*
G36*
X5559806Y6249923D02*
G01*
X5559806Y6370065D01*
X5690108Y6370065D01*
X5690108Y6249923D01*
G37*
G36*
X5559806Y6429755D02*
G01*
X5559806Y6550152D01*
X5690108Y6550152D01*
X5690108Y6429755D01*
G37*
G36*
X4559808Y7249921D02*
G01*
X4559808Y7370063D01*
X4690109Y7370063D01*
X4690109Y7249921D01*
G37*
G36*
X4559808Y7429754D02*
G01*
X4559808Y7550150D01*
X4690109Y7550150D01*
X4690109Y7429754D01*
G37*
M02*
